<svg width="17" height="17" viewBox="0 0 17 17" fill="none" xmlns="http://www.w3.org/2000/svg">
<path d="M8.64246 6.6228V9.77119H13.0213C12.9332 10.2701 12.7441 10.7456 12.4656 11.1688C12.1871 11.592 11.8252 11.9539 11.4018 12.2321V14.2767H14.0707C14.872 13.504 15.5019 12.5715 15.9195 11.5398C16.3372 10.508 16.5334 9.39991 16.4954 8.28745C16.4939 7.72948 16.4455 7.17266 16.3506 6.6228H8.64246Z" fill="#3E82F1"/>
<path d="M8.64238 13.0101C7.63311 12.99 6.65521 12.6558 5.84453 12.0543C5.03385 11.4528 4.43066 10.6137 4.11881 9.65356H1.40466V11.7254C2.07435 13.0753 3.10548 14.2129 4.38331 15.0115C5.66114 15.8102 7.13554 16.2385 8.64238 16.249C10.6375 16.3105 12.5803 15.6045 14.0707 14.2766L11.438 12.2321C10.6057 12.767 9.63133 13.0382 8.64238 13.0101Z" fill="#32A753"/>
<path d="M0.5 8.10653C0.517472 9.36658 0.82717 10.6054 1.40472 11.7254L4.11886 9.61745C3.78099 8.61374 3.78099 7.52698 4.11886 6.52328V4.48767H1.40472C0.82717 5.6077 0.517472 6.84649 0.5 8.10653Z" fill="#F9BB00"/>
<path d="M1.40466 4.48771L4.11881 6.59566C4.43066 5.63556 5.03385 4.79646 5.84453 4.19494C6.65521 3.59341 7.63311 3.25938 8.64239 3.2392C9.80068 3.21768 10.9201 3.65697 11.7546 4.46054L14.0888 2.11736C12.6193 0.739297 10.675 -0.0189597 8.6605 0.00036033C7.15437 0.00409255 5.67878 0.425408 4.39783 1.21762C3.11688 2.00983 2.08074 3.14185 1.40466 4.48771Z" fill="#E74133"/>
</svg>
