<svg width="13" height="17" viewBox="0 0 13 17" fill="none" xmlns="http://www.w3.org/2000/svg">
<path d="M6.69297 3.81682C7.41406 3.81682 8.31797 3.32858 8.85625 2.67759C9.34375 2.08764 9.69922 1.26374 9.69922 0.439833C9.69922 0.327945 9.68906 0.216057 9.66875 0.124512C8.86641 0.155027 7.90156 0.663609 7.32266 1.34511C6.86563 1.86386 6.44922 2.67759 6.44922 3.51167C6.44922 3.63373 6.46953 3.75579 6.47969 3.79648C6.53047 3.80665 6.61172 3.81682 6.69297 3.81682ZM4.15391 16.1245C5.13906 16.1245 5.57578 15.4634 6.80469 15.4634C8.05391 15.4634 8.32812 16.1042 9.425 16.1042C10.5016 16.1042 11.2227 15.1073 11.9031 14.1309C12.6648 13.012 12.9797 11.9135 13 11.8626C12.9289 11.8422 10.8672 10.998 10.8672 8.62801C10.8672 6.57334 12.4922 5.64772 12.5836 5.57651C11.507 4.03042 9.87187 3.98974 9.425 3.98974C8.21641 3.98974 7.23125 4.7221 6.61172 4.7221C5.94141 4.7221 5.05781 4.03042 4.01172 4.03042C2.02109 4.03042 0 5.67823 0 8.79075C0 10.7234 0.751563 12.7679 1.67578 14.0902C2.46797 15.2091 3.15859 16.1245 4.15391 16.1245Z" fill="black"/>
</svg>
