<svg width="35" height="39" viewBox="0 0 25 39" fill="none" xmlns="http://www.w3.org/2000/svg">
<path d="M21.134 28.1289H4.49132C4.16212 28.1289 3.89795 28.3851 3.89795 28.7043V33.3151C3.89795 33.6343 4.16619 33.8904 4.49132 33.8904H21.134C21.4632 33.8904 21.7274 33.6343 21.7274 33.3151V28.7043C21.7274 28.3851 21.4592 28.1289 21.134 28.1289ZM20.5407 32.7397H5.08874V29.2796H20.5407V32.7397Z" fill="#007CFF"/>
<path d="M20.7354 3.70391C18.5935 1.63496 15.6227 0.5 12.3713 0.5C5.90526 0.5 0.64624 5.31965 0.64624 11.2388C0.64624 12.0664 1.34121 12.7363 2.19468 12.7363H7.09605C7.94953 12.7363 8.64043 12.0624 8.64043 11.2388C8.64043 9.96984 8.90867 9.11074 9.43701 8.68119C9.91252 8.29499 10.7497 8.10583 12.0015 8.10583C13.0826 8.10583 13.8995 8.38169 14.4319 8.92552C15.0455 9.55606 15.3585 10.5807 15.3585 11.9718C15.3585 14.1393 14.8586 15.8299 13.9076 16.8663C12.9931 17.8673 11.8308 18.0801 11.018 18.0801H8.07552C3.97885 18.0801 0.64624 21.7411 0.64624 26.2376V37.1853C0.64624 38.0129 1.34121 38.6828 2.19468 38.6828H22.7878C23.6412 38.6828 24.3321 38.0089 24.3321 37.1853V13.091C24.3321 9.21715 23.0885 5.97383 20.7354 3.70391ZM2.19062 37.1853V26.2376C2.19062 22.5648 4.83232 19.5776 8.07552 19.5776H11.018C12.6396 19.5776 14.0376 18.9826 15.0618 17.8594C16.2851 16.5274 16.9029 14.5452 16.9029 11.9718C16.9029 10.1905 16.4477 8.81912 15.5536 7.9009C14.7204 7.04574 13.5256 6.6083 12.0015 6.6083C10.3514 6.6083 9.22161 6.90387 8.44536 7.53441C7.53499 8.27134 7.09605 9.48118 7.09605 11.2388H2.19062C2.19062 6.14329 6.75873 1.99753 12.3713 1.99753C15.2122 1.99753 17.797 2.98274 19.6462 4.76794C21.7026 6.75018 22.7878 9.62699 22.7878 13.091V37.1853H2.19062Z" fill="#007CFF"/>
</svg>

