<svg width="40" height="40" viewBox="0 0 40 40" fill="none" xmlns="http://www.w3.org/2000/svg">
<path d="M16.1395 21.2479C16.2037 20.8947 15.9695 20.5563 15.6163 20.4921C15.2631 20.4279 14.9247 20.6621 14.8605 21.0153L16.1395 21.2479ZM14.5 26.6316L14.8257 27.1941L15.0858 27.0435L15.1395 26.7479L14.5 26.6316ZM7.71642 30.5589L8.04209 31.1215H8.04209L7.71642 30.5589ZM10.3117 36.9106L10.4732 37.5403H10.4732L10.3117 36.9106ZM27.1614 33.2612C27.5092 33.1721 27.7188 32.8179 27.6296 32.4701C27.5405 32.1224 27.1863 31.9128 26.8386 32.002L27.1614 33.2612ZM6.29886 34.9891L5.70712 35.258L6.29886 34.9891ZM23.6395 21.0153C23.5753 20.6621 23.2369 20.4279 22.8837 20.4921C22.5305 20.5563 22.2963 20.8947 22.3605 21.2479L23.6395 21.0153ZM24 26.6316L23.3605 26.7479L23.4142 27.0435L23.6743 27.1941L24 26.6316ZM30.8007 30.5689L30.4751 31.1314L30.8007 30.5689ZM28.1787 36.8691L28.0091 37.4966L28.1787 36.8691ZM19.6696 33.896C19.323 33.8023 18.9662 34.0073 18.8725 34.3539C18.7789 34.7004 18.9839 35.0573 19.3304 35.151L19.6696 33.896ZM32.2094 34.971L31.6176 34.702L32.2094 34.971ZM10.329 32.5045C9.98264 32.599 9.77845 32.9563 9.8729 33.3026C9.96736 33.649 10.3247 33.8531 10.671 33.7587L10.329 32.5045ZM21.5 30.1316L21.756 29.5341C21.6211 29.4763 21.4706 29.4659 21.329 29.5045L21.5 30.1316ZM28.244 33.729C28.5739 33.8704 28.956 33.7176 29.0974 33.3876C29.2389 33.0577 29.086 32.6756 28.756 32.5341L28.244 33.729ZM4.61 28.1116C4.32281 28.327 4.26461 28.7344 4.48 29.0216C4.69539 29.3088 5.10281 29.367 5.39 29.1516L4.61 28.1116ZM17.5 14.6316L17.6675 15.2596C17.952 15.1838 18.15 14.9261 18.15 14.6316H17.5ZM18.15 12.6316C18.15 12.2726 17.859 11.9816 17.5 11.9816C17.141 11.9816 16.85 12.2726 16.85 12.6316H18.15ZM33.61 29.1516C33.8972 29.367 34.3046 29.3088 34.52 29.0216C34.7354 28.7344 34.6772 28.327 34.39 28.1116L33.61 29.1516ZM21.5 14.6316H20.85C20.85 14.9261 21.048 15.1838 21.3325 15.2596L21.5 14.6316ZM22.15 12.6316C22.15 12.2726 21.859 11.9816 21.5 11.9816C21.141 11.9816 20.85 12.2726 20.85 12.6316H22.15ZM14.8605 21.0153L13.8605 26.5153L15.1395 26.7479L16.1395 21.2479L14.8605 21.0153ZM14.1743 26.0691L7.39074 29.9964L8.04209 31.1215L14.8257 27.1941L14.1743 26.0691ZM10.4732 37.5403L27.1614 33.2612L26.8386 32.002L10.1503 36.281L10.4732 37.5403ZM5.70712 35.258C6.5324 37.0737 8.54129 38.0356 10.4732 37.5403L10.1503 36.281C8.829 36.6198 7.45504 35.9619 6.89059 34.7201L5.70712 35.258ZM7.39075 29.9964C5.55994 31.0563 4.83172 33.3322 5.70712 35.258L6.89059 34.7201C6.29187 33.4029 6.78993 31.8464 8.04209 31.1215L7.39075 29.9964ZM22.3605 21.2479L23.3605 26.7479L24.6395 26.5153L23.6395 21.0153L22.3605 21.2479ZM23.6743 27.1941L30.4751 31.1314L31.1264 30.0063L24.3257 26.0691L23.6743 27.1941ZM28.3483 36.2416L19.6696 33.896L19.3304 35.151L28.0091 37.4966L28.3483 36.2416ZM31.6176 34.702C31.0519 35.9466 29.668 36.5983 28.3483 36.2416L28.0091 37.4966C29.9435 38.0194 31.9719 37.0642 32.8011 35.24L31.6176 34.702ZM30.4751 31.1314C31.7175 31.8507 32.2117 33.3951 31.6176 34.702L32.8011 35.24C33.6718 33.3244 32.9475 31.0606 31.1264 30.0063L30.4751 31.1314ZM10.671 33.7587L21.671 30.7587L21.329 29.5045L10.329 32.5045L10.671 33.7587ZM21.244 30.729L28.244 33.729L28.756 32.5341L21.756 29.5341L21.244 30.729ZM5.39 29.1516C8.53463 26.7931 9.85804 23.623 11.2607 21.0007C12.6713 18.3633 14.1824 16.189 17.6675 15.2596L17.3325 14.0035C13.3176 15.0742 11.5787 17.6499 10.1143 20.3875C8.64196 23.1402 7.46537 25.9701 4.61 28.1116L5.39 29.1516ZM18.15 14.6316V12.6316H16.85V14.6316H18.15ZM34.39 28.1116C31.5346 25.9701 30.358 23.1402 28.8857 20.3875C27.4213 17.6499 25.6824 15.0742 21.6675 14.0035L21.3325 15.2596C24.8176 16.189 26.3287 18.3633 27.7393 21.0007C29.142 23.623 30.4654 26.7931 33.61 29.1516L34.39 28.1116ZM22.15 14.6316V12.6316H20.85V14.6316H22.15Z" fill="#FFFF"/>
<rect x="16.4485" y="4.10413" width="5.96329" height="8.5289" rx="2.98165" transform="rotate(-1 16.4485 4.10413)" stroke="#FFFF" stroke-width="1.3" stroke-linecap="round" stroke-linejoin="round"/>
</svg>
