<svg width="50" height="52" viewBox="0 0 50 52" fill="none" xmlns="http://www.w3.org/2000/svg">
<path fill-rule="evenodd" clip-rule="evenodd" d="M25.4994 16.9216C16.3675 16.9216 8.15886 22.9699 5.76675 25.2998C3.71876 27.2953 2.86349 28.2404 1.61064 29.7355C0.832203 30.666 0.794339 31.8655 1.51821 32.7924C2.08171 33.5145 2.72094 34.3311 3.39581 35.0968C5.06739 37.0002 7.04633 38.8201 9.44623 40.6629C11.0755 41.9157 17.0513 46 25.4994 46C33.9497 46 39.9233 41.9157 41.5537 40.6629C43.9513 38.8201 45.9314 37.0015 47.6041 35.098C48.2689 34.342 48.8859 33.5545 49.4806 32.7924C50.2055 31.8655 50.1688 30.666 49.3881 29.7343C48.1319 28.2367 47.2755 27.2893 45.2342 25.2986C42.8421 22.9699 34.6335 16.9216 25.4994 16.9216ZM25.4994 18.739C34.1056 18.739 41.8588 24.4517 44.1195 26.652C46.1162 28.599 46.9437 29.5174 48.1531 30.9592C48.4471 31.3094 48.3046 31.4935 48.2088 31.6159C47.633 32.3526 47.0372 33.1146 46.3958 33.8428C44.8055 35.6529 42.9067 37.3976 40.5892 39.1787C39.0613 40.3527 33.4575 44.1826 25.4994 44.1826C17.5391 44.1826 11.9374 40.3527 10.4106 39.1787C8.09538 37.4001 6.19662 35.6554 4.60188 33.8404C3.96154 33.1122 3.33901 32.3174 2.7911 31.6159C2.69533 31.4935 2.55278 31.3094 2.84567 30.9592C4.05174 29.5198 4.87918 28.6039 6.88151 26.6532C9.14109 24.4517 16.892 18.739 25.4994 18.739Z" fill="#333333"/>
<path fill-rule="evenodd" clip-rule="evenodd" d="M25.4989 18.1331C18.7068 18.1331 13.1798 24.1111 13.1798 31.4607C13.1798 38.8102 18.7068 44.7883 25.4989 44.7883C32.2943 44.7883 37.8191 38.8102 37.8191 31.4607C37.8191 24.1111 32.2943 18.1331 25.4989 18.1331ZM25.4989 19.9505C31.3711 19.9505 36.1486 25.1143 36.1486 31.4607C36.1486 37.807 31.3711 42.9709 25.4989 42.9709C19.6278 42.9709 14.8502 37.807 14.8502 31.4607C14.8502 25.1143 19.6278 19.9505 25.4989 19.9505Z" fill="#333333"/>
<path fill-rule="evenodd" clip-rule="evenodd" d="M25.4994 26.6143C23.3512 26.6143 21.6017 28.5165 21.6017 30.8549C21.6017 33.1933 23.3512 35.0955 25.4994 35.0955C27.6499 35.0955 29.3972 33.1933 29.3972 30.8549C29.3972 28.5165 27.6499 26.6143 25.4994 26.6143ZM25.4994 27.8259C27.0351 27.8259 28.2835 29.1853 28.2835 30.8549C28.2835 32.5245 27.0351 33.8839 25.4994 33.8839C23.9648 33.8839 22.7153 32.5245 22.7153 30.8549C22.7153 29.1853 23.9648 27.8259 25.4994 27.8259Z" fill="#333333"/>
<path d="M25.4999 5.85092V13.2768" stroke="#333333" stroke-width="1.51714" stroke-linecap="round" stroke-linejoin="round"/>
<path d="M40.5341 9.95496L36.5395 15.8785" stroke="#333333" stroke-width="1.51714" stroke-linecap="round" stroke-linejoin="round"/>
<path d="M40.5341 9.95496L36.5395 15.8785" stroke="#333333" stroke-width="1.51714" stroke-linecap="round" stroke-linejoin="round"/>
<path d="M10.7604 9.94177L14.7228 15.8907" stroke="#333333" stroke-width="1.51714" stroke-linecap="round" stroke-linejoin="round"/>
</svg>
