<svg width="35" height="39" viewBox="0 0 38 34" fill="none" xmlns="http://www.w3.org/2000/svg">
<path d="M2.35743 10.5977H34.8077C35.2121 10.5977 35.5915 10.4276 35.842 10.1361C36.1033 9.84113 36.2142 9.45245 36.1534 9.07071C35.7346 6.53735 33.6159 4.22263 30.1837 2.54646C26.9447 0.967447 22.8254 0.0998535 18.5879 0.0998535C14.3505 0.0998535 10.2311 0.967447 6.99216 2.54646C3.55638 4.21916 1.43406 6.53736 1.01891 9.06724C0.954486 9.44898 1.06543 9.83766 1.32312 10.1292C1.5808 10.4276 1.96017 10.5977 2.36459 10.5977H2.35743ZM7.597 3.72637C10.6498 2.23759 14.5545 1.41859 18.5843 1.41859C22.6142 1.41859 26.5153 2.23759 29.5717 3.72637C32.6031 5.20474 34.4641 7.1759 34.8113 9.27893H2.35743C2.70459 7.1759 4.56564 5.20474 7.60058 3.72637H7.597Z" fill="#FF6800"/>
<path d="M36.9012 12.5446C35.2907 12.5446 34.4389 14.1167 33.6086 15.6401C32.857 17.0179 32.084 18.4407 30.9709 18.4407C29.8579 18.4407 29.0812 17.0144 28.3297 15.6332C27.5029 14.1132 26.6511 12.5446 25.0406 12.5446C23.4301 12.5446 22.5819 14.1097 21.7444 15.6401C20.9964 17.0179 20.2198 18.4407 19.1067 18.4407C17.9937 18.4407 17.217 17.0179 16.4655 15.6367C15.6387 14.1167 14.7869 12.5446 13.1764 12.5446C11.5659 12.5446 10.7141 14.1097 9.8838 15.6367C9.1358 17.0144 8.36275 18.4407 7.24254 18.4407C6.12233 18.4407 5.35286 17.0179 4.60129 15.6332C3.77455 14.1132 2.92276 12.5446 1.30866 12.5446C0.932872 12.5446 0.628662 12.8396 0.628662 13.204C0.628662 13.5683 0.932872 13.8633 1.30866 13.8633C2.09961 13.8633 2.7295 15.0224 3.40234 16.2544C4.29708 17.8959 5.30992 19.7595 7.24254 19.7595C9.17517 19.7595 10.1952 17.8924 11.0899 16.2405C11.7592 15.019 12.3891 13.8633 13.1764 13.8633C13.9638 13.8633 14.6259 15.078 15.2665 16.2544C16.1613 17.8959 17.1741 19.7595 19.1067 19.7595C21.0394 19.7595 22.0522 17.8993 22.9577 16.2405C23.6269 15.019 24.2568 13.8633 25.0406 13.8633C25.8244 13.8633 26.4901 15.0779 27.1271 16.2509C28.0219 17.8959 29.0383 19.7595 30.9709 19.7595C32.9035 19.7595 33.9164 17.8959 34.8147 16.2475C35.4517 15.0745 36.1103 13.8599 36.9012 13.8599C37.277 13.8599 37.5812 13.5649 37.5812 13.2005C37.5812 12.8361 37.277 12.5411 36.9012 12.5411V12.5446Z" fill="#FF6800"/>
<path d="M34.8075 21.71H2.3572C1.97068 21.71 1.59847 21.8731 1.32647 22.1646C1.06878 22.4561 0.954258 22.8378 1.01152 23.2161C1.41952 25.9958 3.52036 28.557 6.92751 30.424C10.1808 32.2078 14.3216 33.1933 18.5877 33.1933C22.8538 33.1933 26.991 32.2112 30.2407 30.424C33.6515 28.557 35.7523 25.9958 36.1603 23.2092C36.2104 22.8344 36.0923 22.4526 35.8346 22.1611C35.5769 21.8765 35.2011 21.71 34.8075 21.71ZM30.9136 23.0287L26.4327 27.2313L21.9519 23.0287H30.9136ZM29.5679 29.2718C26.5151 30.948 22.614 31.8677 18.5841 31.8677C14.5542 31.8677 10.646 30.9446 7.59319 29.2718C4.56183 27.6095 2.70078 25.392 2.35362 23.0287H20.6778C20.6778 23.1606 20.7279 23.2924 20.8353 23.3931L26.0677 28.3036C26.1679 28.3973 26.3003 28.4459 26.4327 28.4459C26.5652 28.4459 26.694 28.3973 26.7978 28.3036L32.0338 23.3931C32.1411 23.2924 32.1913 23.1606 32.1913 23.0287H34.811C34.4639 25.3955 32.6028 27.613 29.5715 29.2718H29.5679Z" fill="#FF6800"/>
</svg>
