<svg width="41" height="40" viewBox="0 0 41 40" fill="none" xmlns="http://www.w3.org/2000/svg">
<path fill-rule="evenodd" clip-rule="evenodd" d="M13.5125 32H27.5125V28H13.5125V32Z" stroke="#FFFF" stroke-linecap="round" stroke-linejoin="round"/>
<path d="M29.075 36.175C29.434 36.175 29.725 35.884 29.725 35.525V14.6236C29.725 11.2639 28.6433 8.68225 26.8907 6.93933C25.1424 5.20086 22.7797 4.35 20.3135 4.35C15.3713 4.35 11.1 8.09268 11.1 13.0157C11.1 13.3747 11.391 13.6657 11.75 13.6657H15.875C16.234 13.6657 16.525 13.3747 16.525 13.0157C16.525 11.511 16.9094 10.7308 17.4261 10.2992C17.9686 9.84605 18.8065 9.6463 20 9.6463C21.1124 9.6463 21.9521 9.96684 22.5188 10.5648C23.0901 11.1675 23.475 12.148 23.475 13.6509C23.475 15.956 22.8844 17.4345 22.0917 18.3287C21.3039 19.2175 20.2536 19.601 19.175 19.601H16.7C13.5068 19.601 11.1 22.5477 11.1 26.026V35.525C11.1 35.884 11.391 36.175 11.75 36.175H29.075Z" stroke="#FFFF" stroke-width="1.3" stroke-linecap="round" stroke-linejoin="round"/>
</svg>
