<svg width="35" height="39" viewBox="0 0 35 38" fill="none" xmlns="http://www.w3.org/2000/svg">
<path d="M33.351 9.99689H26.8512V9.43517C26.8512 4.50697 22.8733 0.5 17.9879 0.5H16.6323C11.994 0.5 8.22085 4.30475 8.22085 8.9783V9.99689H1.72109C1.31558 9.99689 0.987305 10.3152 0.987305 10.7084V25.5117C0.987305 32.0277 5.68351 37.3267 11.4534 37.3267H23.6187C29.3885 37.3267 34.0847 32.0277 34.0847 25.5117V10.7084C34.0847 10.3152 33.7565 9.99689 33.351 9.99689ZM9.68842 8.9783C9.68842 5.08742 12.8051 1.92304 16.6323 1.92304H17.9879C22.0662 1.92304 25.3836 5.29338 25.3836 9.43517V9.99689H9.68842V8.9783ZM32.6172 25.5117C32.6172 31.2413 28.5814 35.9036 23.6187 35.9036H11.4534C6.49067 35.9036 2.45487 31.2413 2.45487 25.5117V11.4199H8.21699V16.2545C8.21313 16.6477 8.5414 16.966 8.94691 16.966C9.35242 16.966 9.68069 16.6477 9.68069 16.2545V11.4199H25.3836V16.2545C25.3875 16.6477 25.7196 16.966 26.1251 16.966C26.5306 16.966 26.8589 16.6477 26.8589 16.2545V11.4199H32.6172V25.5117Z" fill="#FF2794"/>
<path d="M5.21582 26.4253C5.21582 30.8143 8.15481 34.3831 11.7619 34.3831H23.7612C27.3722 34.3831 30.3073 30.8143 30.3073 26.3954C30.3073 26.092 30.0524 25.8486 29.7435 25.8486H5.77967C5.46685 25.8486 5.21582 26.122 5.21582 26.4253ZM29.1642 26.9421C28.9556 30.4847 26.6114 33.2896 23.7612 33.2896H11.7619C8.91949 33.2896 6.57911 30.4997 6.36284 26.9421H29.1642Z" fill="#FF2794"/>
</svg>
