<svg width="37" height="52" viewBox="0 0 37 52" fill="none" xmlns="http://www.w3.org/2000/svg">
<path fill-rule="evenodd" clip-rule="evenodd" d="M36 12.8126L18.5 32.0959L1 12.8126H36Z" stroke="#333333" stroke-width="1.72131" stroke-linecap="round" stroke-linejoin="round"/>
<path d="M18.496 31.5012V44.3697" stroke="#333333" stroke-width="1.72131" stroke-linecap="round" stroke-linejoin="round"/>
<path fill-rule="evenodd" clip-rule="evenodd" d="M28.1643 2.20496C26.8871 2.20496 25.6581 2.91758 25.0636 4.13971C24.234 5.84496 24.9489 7.90823 26.6553 8.73791C27.1384 8.97315 27.6514 9.08446 28.1563 9.08446C29.4323 9.08446 30.6614 8.37299 31.2558 7.15086C32.0855 5.44446 31.3705 3.38004 29.6641 2.55037C29.1799 2.31627 28.6681 2.20496 28.1643 2.20496ZM28.1643 3.3525C28.5109 3.3525 28.8471 3.42938 29.1615 3.58315C30.2999 4.13627 30.7761 5.51102 30.223 6.64938C29.8432 7.432 29.0318 7.93692 28.1563 7.93692C27.8086 7.93692 27.4723 7.86004 27.1568 7.70627C26.0195 7.15315 25.5433 5.7784 26.0953 4.64233C26.4763 3.85856 27.2887 3.3525 28.1643 3.3525Z" fill="#333333"/>
<path d="M26.9114 8.22424L20.8903 20.6085" stroke="#333333" stroke-width="1.14754" stroke-linecap="round" stroke-linejoin="round"/>
<path d="M11.1261 45.1807H25.8663" stroke="#333333" stroke-width="1.72131" stroke-linecap="round" stroke-linejoin="round"/>
</svg>
