<svg width="35" height="39" viewBox="0 0 38 43" fill="none" xmlns="http://www.w3.org/2000/svg">
<path d="M33.5779 32.914L25.462 28.3559L24.2911 22.0948C24.2105 21.671 23.7905 21.3872 23.3492 21.4653C22.9123 21.5435 22.6238 21.9508 22.7001 22.3745L23.9432 28.9936L24.0111 29.3474L24.3335 29.5284L32.7719 34.2675C34.3119 35.1314 34.9271 36.9908 34.1889 38.5623C33.4889 40.0597 31.7706 40.8454 30.133 40.4176L22.3904 38.3895L28.6524 36.8345L30.0015 37.3939C30.413 37.5626 30.8882 37.3775 31.0621 36.9826C31.2361 36.5835 31.0494 36.1269 30.6379 35.9541L21.9535 32.3463C21.7838 32.2764 21.5971 32.264 21.4231 32.3093L7.77072 35.9212C7.34223 36.0323 7.08768 36.4642 7.20647 36.8797C7.32102 37.2952 7.76648 37.542 8.19498 37.431L21.5759 33.889L26.2214 35.8225L19.1916 37.5708C19.0261 37.5626 18.8649 37.6037 18.7291 37.686L7.54587 40.4628C5.90402 40.8701 4.20277 40.0802 3.49852 38.5869C2.75607 36.999 3.37548 35.1272 4.92824 34.2551L13.3496 29.5284L13.6721 29.3474L13.7357 28.9936L12.9466 28.8537L13.7357 28.9936L14.9788 22.3745C15.0594 21.9508 14.7666 21.5435 14.3297 21.4653C13.8884 21.3872 13.4684 21.671 13.3921 22.0948L12.2169 28.3559L4.12217 32.9017C1.84818 34.177 0.944518 36.9167 2.0306 39.2328C3.05729 41.4172 5.54765 42.5773 7.94467 41.9808L19.217 39.1793L29.7088 41.9273C32.1058 42.5567 34.6259 41.4049 35.6525 39.2122C36.7344 36.9044 35.835 34.1811 33.5737 32.914H33.5779Z" fill="#00CD00"/>
<path d="M37.6297 30.6351C34.0872 28.0557 32.6277 24.6536 30.7992 21.3379C29.0598 18.1826 26.9937 15.2084 22.4415 13.8302V12.0078C22.4415 11.8268 22.3778 11.6623 22.2718 11.5306C23.1627 10.7161 23.7142 9.55602 23.693 8.28074L23.6378 5.1954C23.6166 4.02709 23.1287 2.94105 22.2633 2.12652C21.3978 1.31199 20.2608 0.884149 19.0559 0.900604C17.8511 0.921173 16.7268 1.39426 15.891 2.23347C15.0552 3.07269 14.6055 4.1793 14.6267 5.3435L14.6819 8.42884C14.7031 9.63829 15.2334 10.7202 16.065 11.4977C15.9419 11.6335 15.8698 11.8104 15.8698 12.0037V13.8261C11.3133 15.2001 9.25148 18.1785 7.5078 21.3338C5.68352 24.6495 4.2241 28.0516 0.677354 30.631C0.320983 30.8901 0.248858 31.3797 0.516137 31.7252C0.783415 32.0708 1.29252 32.1407 1.64889 31.8816C5.54776 29.043 7.18961 25.2296 8.93329 22.0743C10.6812 18.8984 12.5564 16.2821 16.8838 15.1672C17.2359 15.0726 17.482 14.7641 17.482 14.4103V12.3945C18.008 12.6043 18.585 12.7195 19.1874 12.7195C19.2129 12.7195 19.2426 12.7195 19.2681 12.7195C19.8196 12.7113 20.3457 12.6002 20.8335 12.4151V14.4103C20.8335 14.7641 21.0796 15.0726 21.4317 15.1672C25.7549 16.2821 27.6301 18.8984 29.3822 22.0743C31.1216 25.2296 32.7635 29.043 36.6666 31.8816C37.023 32.1407 37.5278 32.0708 37.7951 31.7252C38.0624 31.3797 37.9903 30.8901 37.6339 30.631L37.6297 30.6351ZM19.2341 11.1604C18.4662 11.1769 17.728 10.893 17.1723 10.3747C16.6165 9.85633 16.3025 9.15287 16.2898 8.40416L16.2347 5.31882C16.2219 4.57011 16.5104 3.85842 17.045 3.31951C17.5838 2.78061 18.305 2.47619 19.0771 2.46385C19.862 2.45562 20.579 2.73124 21.139 3.24958C21.6948 3.77203 22.0087 4.47137 22.0214 5.22008L22.0766 8.30543C22.0893 9.05413 21.8008 9.76582 21.2663 10.3047C20.7275 10.8436 20.0063 11.1481 19.2341 11.1604Z" fill="#00CD00"/>
</svg>

