<svg width="35" height="39" viewBox="0 0 35 39" fill="none" xmlns="http://www.w3.org/2000/svg">
<path d="M33.9755 10.7469C34.1838 10.5262 34.2328 10.2104 34.1021 9.94408C33.9714 9.67773 33.6855 9.5027 33.367 9.5027H24.2834L25.5209 7.13977C25.6761 7.1588 25.8354 7.17402 25.9988 7.17402C27.9756 7.17402 29.5849 5.67484 29.5849 3.83701C29.5849 1.99918 27.9756 0.5 25.9988 0.5C24.022 0.5 22.4127 1.99918 22.4127 3.83701C22.4127 5.1155 23.1888 6.22657 24.3242 6.78971L22.9029 9.5065H1.10876C0.794263 9.5065 0.504273 9.67773 0.373574 9.94789C0.242875 10.2142 0.291886 10.5301 0.500188 10.7507L16.4292 27.8353V36.8228H9.91053C9.46534 36.8228 9.10591 37.1576 9.10591 37.5724C9.10591 37.9871 9.46534 38.322 9.91053 38.322H24.3201C24.7653 38.322 25.1247 37.9871 25.1247 37.5724C25.1247 37.1576 24.7653 36.8228 24.3201 36.8228H18.0425V27.8429L33.9796 10.7507L33.9755 10.7469ZM23.6054 3.83701C23.6054 2.60799 24.6755 1.61107 25.9947 1.61107C27.314 1.61107 28.3841 2.60799 28.3841 3.83701C28.3841 5.06603 27.314 6.06295 25.9947 6.06295C24.6755 6.06295 23.6054 5.06603 23.6054 3.83701ZM22.1146 11.0057L19.0146 16.9301C18.8634 17.2155 18.9941 17.5617 19.3005 17.7025C19.3862 17.7406 19.4802 17.7596 19.57 17.7596C19.7987 17.7596 20.0193 17.6417 20.1296 17.4362L23.4951 11.0057H31.5984L17.2869 26.3552C17.2869 26.3552 17.2501 26.3514 17.2338 26.3514C17.2174 26.3514 17.2052 26.3514 17.1888 26.3552L2.87728 11.0057H22.1146Z" fill="#9747FF"/>
</svg>

