<svg width="40" height="40" viewBox="0 0 40 40" fill="none" xmlns="http://www.w3.org/2000/svg">
<path fill-rule="evenodd" clip-rule="evenodd" d="M12.7625 32H26.7625V28H12.7625V32Z" stroke="#333333" stroke-linecap="round" stroke-linejoin="round"/>
<path d="M28.325 36.175C28.684 36.175 28.975 35.884 28.975 35.525V14.6236C28.975 11.2639 27.8933 8.68225 26.1407 6.93933C24.3924 5.20086 22.0297 4.35 19.5635 4.35C14.6213 4.35 10.35 8.09268 10.35 13.0157C10.35 13.3747 10.641 13.6657 11 13.6657H15.125C15.484 13.6657 15.775 13.3747 15.775 13.0157C15.775 11.511 16.1594 10.7308 16.6761 10.2992C17.2186 9.84605 18.0565 9.6463 19.25 9.6463C20.3624 9.6463 21.2021 9.96684 21.7688 10.5648C22.3401 11.1675 22.725 12.148 22.725 13.6509C22.725 15.956 22.1344 17.4345 21.3417 18.3287C20.5539 19.2175 19.5036 19.601 18.425 19.601H15.95C12.7568 19.601 10.35 22.5477 10.35 26.026V35.525C10.35 35.884 10.641 36.175 11 36.175H28.325Z" stroke="#333333" stroke-width="1.3" stroke-linecap="round" stroke-linejoin="round"/>
</svg>
