<svg width="41" height="40" viewBox="0 0 41 40" fill="none" xmlns="http://www.w3.org/2000/svg">
<path d="M35.75 13.65C35.9397 13.65 36.12 13.5671 36.2434 13.4231C36.3669 13.2791 36.4213 13.0883 36.3924 12.9008C36.0062 10.3996 33.9132 8.26168 31.0442 6.77129C28.1502 5.26795 24.3402 4.35 20.25 4.35C16.1598 4.35 12.3498 5.26795 9.45581 6.77129C6.58675 8.26168 4.49383 10.3996 4.10761 12.9008C4.07866 13.0883 4.13307 13.2791 4.25656 13.4231C4.38004 13.5671 4.56029 13.65 4.75 13.65H35.75Z" stroke="#FF6800" stroke-width="1.3" stroke-linejoin="round"/>
<path d="M37.75 17C36.6063 17 35.914 18.3527 35.1816 19.7858C34.3745 21.3666 33.5396 23 32.0837 23C30.629 23 29.794 21.3666 28.9847 19.7858C28.2534 18.3527 27.5611 17 26.4174 17C25.2737 17 24.5814 18.3527 23.849 19.7858C23.0419 21.3666 22.2048 23 20.75 23C19.2952 23 18.4592 21.3666 17.651 19.7858C16.9197 18.3527 16.2274 17 15.0837 17C13.9411 17 13.2477 18.3527 12.5153 19.7858C11.7093 21.3666 10.8733 23 9.41741 23C7.96154 23 7.12659 21.3666 6.31839 19.7858C5.586 18.3527 4.89485 17 3.75 17" stroke="#FF6800" stroke-width="1.3" stroke-linecap="round" stroke-linejoin="round"/>
<path d="M32.75 27L27.75 32L22.75 27" stroke="#FF6800" stroke-linecap="round" stroke-linejoin="round"/>
<path d="M35.75 26.35C35.9378 26.35 36.1164 26.4312 36.2399 26.5728C36.3633 26.7143 36.4195 26.9023 36.394 27.0884C36.0165 29.8381 33.958 32.2333 31.0725 33.9196C28.1733 35.6139 24.3531 36.65 20.25 36.65C16.1469 36.65 12.3267 35.6139 9.42749 33.9196C6.54201 32.2333 4.48345 29.8381 4.10604 27.0884C4.0805 26.9023 4.13669 26.7143 4.26013 26.5728C4.38357 26.4312 4.56219 26.35 4.75 26.35H35.75Z" stroke="#FF6800" stroke-width="1.3" stroke-linejoin="round"/>
</svg>
