<svg width="35" height="39" viewBox="0 0 31 37" fill="none" xmlns="http://www.w3.org/2000/svg">
<path d="M26.8868 3.6978H24.6983V1.19644C24.6983 0.813581 24.3787 0.503646 23.9838 0.503646C23.589 0.503646 23.2693 0.813581 23.2693 1.19644V3.70144H8.19395V1.19644C8.19395 0.813581 7.87432 0.5 7.47948 0.5C7.08464 0.5 6.765 0.809935 6.765 1.19279V3.6978H4.24179C1.99308 3.6978 0.165527 5.46989 0.165527 7.65037V32.8061C0.165527 34.9866 1.99684 36.7587 4.24179 36.7587H26.8831C29.1318 36.7587 30.9593 34.9866 30.9593 32.8061V7.65402C30.9593 5.47354 29.1318 3.70144 26.8831 3.70144L26.8868 3.6978ZM4.24555 5.08338H6.76876V7.27116C6.76876 7.65402 7.0884 7.96395 7.48324 7.96395C7.87808 7.96395 8.19771 7.65402 8.19771 7.27116V5.08338H23.2693V7.27116C23.2693 7.65402 23.589 7.96395 23.9838 7.96395C24.3787 7.96395 24.6983 7.65402 24.6983 7.27116V5.08338H26.8868C28.3459 5.08338 29.5341 6.23561 29.5341 7.65037V12.2301H1.59447V7.65037C1.59447 6.23561 2.78276 5.08338 4.24179 5.08338H4.24555ZM26.8868 35.3731H4.24179C2.78276 35.3731 1.59447 34.2209 1.59447 32.8061V13.2985H29.5341V32.8098C29.5341 34.2245 28.3459 35.3768 26.8868 35.3768V35.3731Z" fill="#FFB607"/>
<path d="M20.6602 18.2681L12.9363 26.3774L10.4695 23.7885C10.2627 23.5734 9.91676 23.5588 9.69114 23.7594C9.46927 23.9599 9.45423 24.2954 9.66105 24.5142L12.5302 27.526C12.6355 27.6354 12.7822 27.6974 12.9326 27.6974C13.083 27.6974 13.2334 27.6354 13.3349 27.526L21.4611 18.9937C21.668 18.7785 21.6529 18.4394 21.4311 18.2389C21.2092 18.0383 20.8595 18.0529 20.6527 18.2681H20.6602Z" fill="#FFB607"/>
</svg>

