<svg width="41" height="40" viewBox="0 0 41 40" fill="none" xmlns="http://www.w3.org/2000/svg">
<path fill-rule="evenodd" clip-rule="evenodd" d="M33.25 12.5054L20.25 27.4751L7.25 12.5054H33.25Z" stroke="#C849D9" stroke-width="1.3" stroke-linecap="round" stroke-linejoin="round"/>
<path d="M20.2468 27.082V36.1417" stroke="#C849D9" stroke-width="1.3" stroke-linecap="round" stroke-linejoin="round"/>
<path fill-rule="evenodd" clip-rule="evenodd" d="M27.8643 4C26.858 4 25.8897 4.56146 25.4214 5.52435C24.7677 6.86788 25.331 8.49349 26.6754 9.14717C27.056 9.33252 27.4602 9.42022 27.858 9.42022C28.8634 9.42022 29.8317 8.85966 30.3 7.89677C30.9537 6.55234 30.3904 4.92582 29.046 4.27214C28.6645 4.0877 28.2612 4 27.8643 4ZM27.8643 4.90412C28.1374 4.90412 28.4023 4.9647 28.65 5.08585C29.5469 5.52164 29.9221 6.60478 29.4863 7.50167C29.1871 8.11828 28.5478 8.51609 27.858 8.51609C27.584 8.51609 27.3191 8.45552 27.0705 8.33437C26.1745 7.89858 25.7993 6.81544 26.2342 5.92036C26.5344 5.30284 27.1745 4.90412 27.8643 4.90412Z" fill="#C849D9"/>
<path d="M26.8771 8.74268L22.1332 18.5" stroke="#C849D9" stroke-linecap="round" stroke-linejoin="round"/>
<path d="M14.3409 36.1416H25.9544" stroke="#C849D9" stroke-width="1.3" stroke-linecap="round" stroke-linejoin="round"/>
</svg>
