<svg width="38" height="38" viewBox="0 0 38 38" fill="none" xmlns="http://www.w3.org/2000/svg">
<path fill-rule="evenodd" clip-rule="evenodd" d="M19 37C28.9411 37 37 28.9411 37 19C37 9.05887 28.9411 1 19 1C9.05887 1 1 9.05887 1 19C1 28.9411 9.05887 37 19 37ZM14 10C12.8954 10 12 10.8954 12 12V29L19 23.7222L26 29V12C26 10.8954 25.1046 10 24 10H14Z" fill="white"/>
<path d="M12 29H11C11 29.3792 11.2145 29.7258 11.5539 29.895C11.8933 30.0642 12.2992 30.0268 12.602 29.7985L12 29ZM19 23.7222L19.602 22.9237C19.2456 22.655 18.7544 22.655 18.398 22.9237L19 23.7222ZM26 29L25.398 29.7985C25.7008 30.0268 26.1067 30.0642 26.4461 29.895C26.7855 29.7258 27 29.3792 27 29H26ZM36 19C36 28.3888 28.3888 36 19 36V38C29.4934 38 38 29.4934 38 19H36ZM19 2C28.3888 2 36 9.61116 36 19H38C38 8.50659 29.4934 0 19 0V2ZM2 19C2 9.61116 9.61116 2 19 2V0C8.50659 0 0 8.50659 0 19H2ZM19 36C9.61116 36 2 28.3888 2 19H0C0 29.4934 8.50659 38 19 38V36ZM13 12C13 11.4477 13.4477 11 14 11V9C12.3431 9 11 10.3431 11 12H13ZM13 29V12H11V29H13ZM18.398 22.9237L11.398 28.2015L12.602 29.7985L19.602 24.5207L18.398 22.9237ZM26.602 28.2015L19.602 22.9237L18.398 24.5207L25.398 29.7985L26.602 28.2015ZM25 12V29H27V12H25ZM24 11C24.5523 11 25 11.4477 25 12H27C27 10.3431 25.6569 9 24 9V11ZM14 11H24V9H14V11Z" fill="white"/>
</svg>
