<svg width="40" height="40" viewBox="0 0 40 40" fill="none" xmlns="http://www.w3.org/2000/svg">
<path fill-rule="evenodd" clip-rule="evenodd" d="M20 40C31.0457 40 40 31.0457 40 20C40 8.95431 31.0457 0 20 0C8.95431 0 0 8.95431 0 20C0 31.0457 8.95431 40 20 40ZM27.4755 25.9041C27.9094 26.338 27.9094 27.0416 27.4755 27.4755C27.0416 27.9094 26.338 27.9094 25.9041 27.4755L20.0116 21.5829L14.119 27.4755C13.6851 27.9094 12.9816 27.9094 12.5477 27.4755C12.1138 27.0416 12.1138 26.338 12.5477 25.9041L18.4402 20.0116L12.5477 14.119C12.1137 13.6851 12.1137 12.9816 12.5477 12.5477C12.9816 12.1137 13.6851 12.1137 14.119 12.5477L20.0116 18.4402L25.9042 12.5477C26.3381 12.1137 27.0416 12.1137 27.4755 12.5477C27.9094 12.9816 27.9094 13.6851 27.4755 14.119L21.5829 20.0116L27.4755 25.9041Z" fill="white"/>
</svg>
