<svg width="26" height="25" viewBox="0 0 26 25" fill="none" xmlns="http://www.w3.org/2000/svg">
<circle cx="3.5" cy="3.5" r="2.5" fill="#FF6800"/>
<circle cx="12.5" cy="12.5" r="2.5" fill="#FFB600"/>
<circle cx="21.5" cy="20.5" r="2.5" fill="#FF2894"/>
<path d="M24.3353 11.3565H15.7729C15.4424 9.82428 14.0604 8.68262 12.4381 8.68262C10.8157 8.68262 9.4337 9.82428 9.10322 11.3565H0.751091C0.33048 11.3565 0 11.687 0 12.1076C0 12.5282 0.33048 12.8587 0.751091 12.8587H9.10322C9.4337 14.3909 10.8157 15.5326 12.4381 15.5326C14.0604 15.5326 15.4424 14.3909 15.7729 12.8587H24.3353C24.756 12.8587 25.0864 12.5282 25.0864 12.1076C25.0864 11.717 24.7259 11.3565 24.3353 11.3565ZM12.4381 14.0304C11.3865 14.0304 10.5153 13.1591 10.5153 12.1076C10.5153 11.0561 11.3865 10.1848 12.4381 10.1848C13.4896 10.1848 14.3609 11.0561 14.3609 12.1076C14.3609 13.1591 13.4896 14.0304 12.4381 14.0304Z" fill="#333333"/>
<path d="M3.45525 6.84995C5.0776 6.84995 6.45961 5.70829 6.79009 4.17606H24.3055C24.7261 4.17606 25.0566 3.84559 25.0566 3.42497C25.0566 3.00436 24.7261 2.67388 24.3055 2.67388H6.79009C6.45961 1.14166 5.0776 0 3.45525 0C1.5625 0 0.0302734 1.56227 0.0302734 3.42497C0.0302734 5.28768 1.5625 6.84995 3.45525 6.84995ZM3.45525 1.50218C4.50677 1.50218 5.37804 2.37345 5.37804 3.42497C5.37804 4.4765 4.50677 5.34777 3.45525 5.34777C2.40372 5.34777 1.53246 4.4765 1.53246 3.42497C1.53246 2.37345 2.40372 1.50218 3.45525 1.50218Z" fill="#333333"/>
<path d="M21.6314 17.4255C20.0091 17.4255 18.6571 18.5672 18.2966 20.0694H0.751091C0.33048 20.0694 0 20.3999 0 20.8205C0 21.2411 0.33048 21.5716 0.751091 21.5716H18.2966C18.6271 23.1038 20.0091 24.2755 21.6314 24.2755C23.5242 24.2755 25.0564 22.7433 25.0564 20.8505C25.0564 18.9578 23.4941 17.4255 21.6314 17.4255ZM21.6314 22.7433C20.5799 22.7433 19.7086 21.872 19.7086 20.8205C19.7086 19.7689 20.5799 18.8977 21.6314 18.8977C22.6829 18.8977 23.5542 19.7689 23.5542 20.8205C23.5542 21.872 22.6829 22.7433 21.6314 22.7433Z" fill="#333333"/>
</svg>
