<svg width="100" height="100" viewBox="0 0 125 125" fill="none" xmlns="http://www.w3.org/2000/svg">
<path fill-rule="evenodd" clip-rule="evenodd" d="M102.441 37.4407L62.0004 84.0083L21.5601 37.4407H102.441Z" stroke="white" stroke-width="4.04403" stroke-linecap="round" stroke-linejoin="round"/>
<path d="M61.9897 82.7861V110.969" stroke="white" stroke-width="4.04403" stroke-linecap="round" stroke-linejoin="round"/>
<path d="M79.2058 16.2691L79.2057 16.2693C77.4736 19.8293 78.9665 24.1421 82.5319 25.8757L82.5326 25.876C83.5423 26.3677 84.6127 26.5998 85.6666 26.5998C88.3387 26.5998 90.9045 25.1095 92.1442 22.5609L79.2058 16.2691ZM79.2058 16.2691C80.4457 13.7199 83.0119 12.2272 85.6863 12.2272M79.2058 16.2691L85.6863 12.2272M85.6863 12.2272C86.7363 12.2272 87.8047 12.4588 88.8195 12.9492M85.6863 12.2272L88.8195 12.9492M88.8195 12.9492C92.3834 14.6829 93.8766 18.9977 92.1443 22.5607L88.8195 12.9492Z" stroke="white" stroke-width="2.48864"/>
<path d="M82.5314 26.5369L67.8584 56.0888" stroke="white" stroke-width="2.48864" stroke-linecap="round" stroke-linejoin="round"/>
<path d="M43.6182 110.969H79.7453" stroke="white" stroke-width="4.04403" stroke-linecap="round" stroke-linejoin="round"/>
</svg>
