<svg width="100" height="101" viewBox="0 0 100 101" fill="none" xmlns="http://www.w3.org/2000/svg">
<path fill-rule="evenodd" clip-rule="evenodd" d="M82.5 30.9297L50 68.3539L17.5 30.9297H82.5Z" stroke="#C849D9" stroke-width="3.25" stroke-linecap="round" stroke-linejoin="round"/>
<path d="M49.9922 67.3716V90.0207" stroke="#C849D9" stroke-width="3.25" stroke-linecap="round" stroke-linejoin="round"/>
<path d="M63.8274 13.9151L63.8275 13.915C64.8239 11.8663 66.8863 10.6667 69.0356 10.6667C69.8794 10.6667 70.738 10.8529 71.5536 11.2469C74.4177 12.6402 75.6177 16.1078 74.2256 18.9713C73.2293 21.0196 71.1672 22.2173 69.0197 22.2173C68.1727 22.2173 67.3126 22.0308 66.5011 21.6356L66.5005 21.6354C63.6352 20.2422 62.4354 16.7762 63.8274 13.9151Z" stroke="#C849D9" stroke-width="2"/>
<path d="M66.5 22.1667L54.708 45.9162" stroke="#C849D9" stroke-width="2" stroke-linecap="round" stroke-linejoin="round"/>
<path d="M35.2266 90.0205H64.2602" stroke="#C849D9" stroke-width="3.25" stroke-linecap="round" stroke-linejoin="round"/>
</svg>
