<svg width="100" height="100" viewBox="0 0 125 125" fill="none" xmlns="http://www.w3.org/2000/svg">
<path d="M107.741 45.301C108.278 45.301 108.788 45.07 109.143 44.667C109.497 44.2639 109.661 43.7279 109.592 43.1957C108.494 34.6861 102.489 27.2062 93.9713 21.9115C85.4271 16.6 74.1589 13.3469 62.0498 13.3469C49.9406 13.3469 38.6724 16.6 30.1282 21.9115C21.6109 27.2062 15.6053 34.6861 14.5073 43.1957C14.4386 43.7279 14.6023 44.2639 14.9567 44.667C15.3111 45.07 15.8217 45.301 16.3584 45.301H107.741Z" stroke="white" stroke-width="3.73295" stroke-linejoin="round"/>
<path d="M111.773 56.873C108.383 56.873 106.331 59.5997 104.159 62.4886C101.767 65.6751 99.2918 68.9678 94.976 68.9678C90.6635 68.9678 88.1884 65.6751 85.7892 62.4886C83.6214 59.5997 81.5693 56.873 78.1788 56.873C74.7883 56.873 72.7361 59.5997 70.565 62.4886C68.1725 65.6751 65.6908 68.9678 61.3783 68.9678C57.0658 68.9678 54.5874 65.6751 52.1915 62.4886C50.0237 59.5997 47.9716 56.873 44.5811 56.873C41.1939 56.873 39.1384 59.5997 36.9673 62.4886C34.5781 65.6751 32.0997 68.9678 27.7839 68.9678C23.4681 68.9678 20.993 65.6751 18.5972 62.4886C16.426 59.5997 14.3772 56.873 10.9834 56.873" stroke="white" stroke-width="3.73295" stroke-linecap="round" stroke-linejoin="round"/>
<path d="M99.678 81.063L83.5517 97.1894L67.4253 81.063" stroke="white" stroke-width="2.48864" stroke-linecap="round" stroke-linejoin="round"/>
<path d="M107.741 79.1963C108.278 79.1963 108.788 79.4273 109.143 79.8303C109.497 80.2334 109.661 80.7694 109.592 81.3017C108.494 89.8112 102.489 97.2911 93.9713 102.586C85.4271 107.897 74.1589 111.15 62.0498 111.15C49.9406 111.15 38.6724 107.897 30.1282 102.586C21.6109 97.2911 15.6053 89.8112 14.5073 81.3017C14.4386 80.7694 14.6023 80.2334 14.9567 79.8303C15.3111 79.4273 15.8217 79.1963 16.3584 79.1963H107.741Z" stroke="white" stroke-width="3.73295" stroke-linejoin="round"/>
</svg>
