<svg width="100" height="101" viewBox="0 0 100 101" fill="none" xmlns="http://www.w3.org/2000/svg">
<path d="M40.3488 52.453C40.5093 51.5701 39.9237 50.7241 39.0407 50.5636C38.1577 50.403 37.3118 50.9887 37.1512 51.8717L40.3488 52.453ZM36.25 65.9124L37.0642 67.3187L37.7144 66.9422L37.8488 66.203L36.25 65.9124ZM19.291 75.7307L20.1052 77.137H20.1052L19.291 75.7307ZM25.7793 91.61L26.183 93.184L25.7793 91.61ZM67.9036 82.4864C68.7729 82.2635 69.297 81.3781 69.0741 80.5087C68.8512 79.6394 67.9657 79.1154 67.0964 79.3383L67.9036 82.4864ZM15.7471 86.8061L14.2678 87.4785L15.7471 86.8061ZM59.0988 51.8717C58.9382 50.9887 58.0923 50.403 57.2093 50.5636C56.3263 50.7241 55.7407 51.5701 55.9012 52.453L59.0988 51.8717ZM60 65.9124L58.4012 66.203L58.5356 66.9422L59.1858 67.3187L60 65.9124ZM77.0019 75.7555L76.1877 77.1619L77.0019 75.7555ZM70.4467 91.5061L70.0228 93.0748L70.4467 91.5061ZM49.174 84.0734C48.3076 83.8392 47.4154 84.3517 47.1813 85.2181C46.9471 86.0845 47.4596 86.9766 48.326 87.2108L49.174 84.0734ZM80.5234 86.7609L79.044 86.0885L80.5234 86.7609ZM25.8224 80.5946C24.9566 80.8307 24.4461 81.7241 24.6823 82.5899C24.9184 83.4558 25.8117 83.9662 26.6776 83.7301L25.8224 80.5946ZM53.75 74.6624L54.3901 73.1687C54.0528 73.0242 53.6765 72.9981 53.3224 73.0946L53.75 74.6624ZM70.6099 83.656C71.4348 84.0095 72.3901 83.6274 72.7436 82.8025C73.0971 81.9776 72.715 81.0223 71.8901 80.6687L70.6099 83.656ZM11.525 69.6124C10.807 70.1508 10.6615 71.1694 11.2 71.8874C11.7385 72.6053 12.757 72.7508 13.475 72.2124L11.525 69.6124ZM43.75 35.9124L44.1687 37.4825C44.8801 37.2928 45.375 36.6486 45.375 35.9124H43.75ZM45.375 30.9124C45.375 30.0149 44.6475 29.2874 43.75 29.2874C42.8525 29.2874 42.125 30.0149 42.125 30.9124H45.375ZM84.025 72.2124C84.743 72.7508 85.7615 72.6053 86.3 71.8874C86.8385 71.1694 86.693 70.1508 85.975 69.6124L84.025 72.2124ZM53.75 35.9124H52.125C52.125 36.6486 52.6199 37.2928 53.3313 37.4825L53.75 35.9124ZM55.375 30.9124C55.375 30.0149 54.6475 29.2874 53.75 29.2874C52.8525 29.2874 52.125 30.0149 52.125 30.9124H55.375ZM37.1512 51.8717L34.6512 65.6217L37.8488 66.203L40.3488 52.453L37.1512 51.8717ZM35.4358 64.506L18.4769 74.3244L20.1052 77.137L37.0642 67.3187L35.4358 64.506ZM26.183 93.184L67.9036 82.4864L67.0964 79.3383L25.3757 90.0359L26.183 93.184ZM14.2678 87.4785C16.331 92.0175 21.3532 94.4224 26.183 93.184L25.3757 90.0359C22.0725 90.8829 18.6376 89.2381 17.2265 86.1336L14.2678 87.4785ZM18.4769 74.3244C13.8999 76.9742 12.0793 82.6638 14.2678 87.4785L17.2265 86.1336C15.7297 82.8407 16.9748 78.9493 20.1052 77.137L18.4769 74.3244ZM55.9012 52.453L58.4012 66.203L61.5988 65.6217L59.0988 51.8717L55.9012 52.453ZM59.1858 67.3187L76.1877 77.1619L77.816 74.3492L60.8142 64.506L59.1858 67.3187ZM70.8707 89.9373L49.174 84.0734L48.326 87.2108L70.0228 93.0748L70.8707 89.9373ZM79.044 86.0885C77.6298 89.1999 74.1701 90.8291 70.8707 89.9373L70.0228 93.0748C74.8588 94.3818 79.9298 91.9938 82.0027 87.4333L79.044 86.0885ZM76.1877 77.1619C79.2937 78.9601 80.5292 82.8211 79.044 86.0885L82.0027 87.4333C84.1796 82.6443 82.3687 76.985 77.816 74.3492L76.1877 77.1619ZM26.6776 83.7301L54.1776 76.2301L53.3224 73.0946L25.8224 80.5946L26.6776 83.7301ZM53.1099 76.156L70.6099 83.656L71.8901 80.6687L54.3901 73.1687L53.1099 76.156ZM13.475 72.2124C21.3366 66.3162 24.6451 58.3908 28.1517 51.835C31.6784 45.2416 35.4561 39.8059 44.1687 37.4825L43.3313 34.3422C33.2939 37.0189 28.9466 43.4581 25.2858 50.3022C21.6049 57.1839 18.6634 64.2585 11.525 69.6124L13.475 72.2124ZM45.375 35.9124V30.9124H42.125V35.9124H45.375ZM85.975 69.6124C78.8366 64.2585 75.8951 57.1839 72.2141 50.3022C68.5534 43.4581 64.2061 37.0189 54.1687 34.3422L53.3313 37.4825C62.0439 39.8059 65.8216 45.2416 69.3484 51.835C72.8549 58.3908 76.1634 66.3162 84.025 72.2124L85.975 69.6124ZM55.375 35.9124V30.9124H52.125V35.9124H55.375Z" fill="#00BC00"/>
<rect x="41.1211" y="9.59326" width="14.9082" height="21.3223" rx="7.45411" transform="rotate(-1 41.1211 9.59326)" stroke="#00BC00" stroke-width="3.25" stroke-linecap="round" stroke-linejoin="round"/>
</svg>
