<svg width="100" height="100" viewBox="0 0 125 125" fill="none" xmlns="http://www.w3.org/2000/svg">
<path d="M50.207 64.8535C50.4067 63.7548 49.678 62.7022 48.5793 62.5024C47.4805 62.3026 46.4279 63.0314 46.2281 64.1301L50.207 64.8535ZM45.1068 81.6012L46.1199 83.3511L46.9289 82.8827L47.0962 81.9629L45.1068 81.6012ZM24.0044 93.8183L25.0175 95.5682H25.0175L24.0044 93.8183ZM32.0779 113.577L32.5801 115.536L32.0779 113.577ZM84.4939 102.225C85.5757 101.947 86.2277 100.845 85.9504 99.7637C85.673 98.682 84.5712 98.0299 83.4895 98.3073L84.4939 102.225ZM19.5947 107.6L17.7539 108.436L19.5947 107.6ZM73.5379 64.1301C73.3382 63.0314 72.2855 62.3026 71.1868 62.5024C70.0881 62.7022 69.3593 63.7548 69.5591 64.8535L73.5379 64.1301ZM74.6593 81.6012L72.6699 81.9629L72.8371 82.8827L73.6462 83.3511L74.6593 81.6012ZM95.815 93.8492L94.8019 95.5991L95.815 93.8492ZM87.6584 113.448L87.1308 115.4L87.6584 113.448ZM61.1883 104.199C60.1102 103.908 59.0001 104.546 58.7088 105.624C58.4174 106.702 59.0551 107.812 60.1332 108.103L61.1883 104.199ZM100.197 107.543L98.3562 106.707L100.197 107.543ZM32.1315 99.8706C31.0542 100.164 30.419 101.276 30.7128 102.353C31.0066 103.431 32.1182 104.066 33.1956 103.772L32.1315 99.8706ZM66.8823 92.489L67.6788 90.6304C67.2591 90.4506 66.7909 90.418 66.3503 90.5382L66.8823 92.489ZM87.8614 103.68C88.8878 104.12 90.0765 103.644 90.5164 102.618C90.9563 101.591 90.4808 100.403 89.4544 99.9628L87.8614 103.68ZM14.341 86.2052C13.4476 86.8752 13.2665 88.1426 13.9366 89.036C14.6066 89.9294 15.874 90.1104 16.7674 89.4404L14.341 86.2052ZM54.4391 44.2716L54.9601 46.2254C55.8453 45.9893 56.4612 45.1877 56.4612 44.2716H54.4391ZM56.4612 38.05C56.4612 36.9333 55.5559 36.028 54.4391 36.028C53.3224 36.028 52.4171 36.9333 52.4171 38.05H56.4612ZM104.554 89.4404C105.447 90.1104 106.715 89.9294 107.385 89.036C108.055 88.1426 107.874 86.8752 106.98 86.2052L104.554 89.4404ZM66.8823 44.2716H64.8603C64.8603 45.1877 65.4762 45.9893 66.3613 46.2254L66.8823 44.2716ZM68.9043 38.05C68.9043 36.9333 67.9991 36.028 66.8823 36.028C65.7656 36.028 64.8603 36.9333 64.8603 38.05H68.9043ZM46.2281 64.1301L43.1174 81.2395L47.0962 81.9629L50.207 64.8535L46.2281 64.1301ZM44.0937 79.8513L22.9913 92.0684L25.0175 95.5682L46.1199 83.3511L44.0937 79.8513ZM32.5801 115.536L84.4939 102.225L83.4895 98.3073L31.5757 111.619L32.5801 115.536ZM17.7539 108.436C20.3212 114.084 26.5704 117.077 32.5801 115.536L31.5757 111.619C27.4654 112.672 23.1913 110.626 21.4354 106.763L17.7539 108.436ZM22.9913 92.0684C17.2961 95.3657 15.0307 102.445 17.7539 108.436L21.4354 106.763C19.573 102.665 21.1223 97.8234 25.0175 95.5682L22.9913 92.0684ZM69.5591 64.8535L72.6699 81.9629L76.6487 81.2395L73.5379 64.1301L69.5591 64.8535ZM73.6462 83.3511L94.8019 95.5991L96.8281 92.0993L75.6724 79.8513L73.6462 83.3511ZM88.1859 111.496L61.1883 104.199L60.1332 108.103L87.1308 115.4L88.1859 111.496ZM98.3562 106.707C96.5964 110.578 92.2914 112.605 88.1859 111.496L87.1308 115.4C93.1484 117.026 99.4583 114.055 102.038 108.38L98.3562 106.707ZM94.8019 95.5991C98.6668 97.8367 100.204 102.641 98.3562 106.707L102.038 108.38C104.746 102.421 102.493 95.379 96.8281 92.0993L94.8019 95.5991ZM33.1956 103.772L67.4144 94.4397L66.3503 90.5382L32.1315 99.8706L33.1956 103.772ZM66.0858 94.3475L87.8614 103.68L89.4544 99.9628L67.6788 90.6304L66.0858 94.3475ZM16.7674 89.4404C26.5497 82.1037 30.6666 72.2419 35.0298 64.0845C39.4182 55.8802 44.1189 49.1164 54.9601 46.2254L53.9181 42.3179C41.4285 45.6485 36.0191 53.6609 31.4639 62.1771C26.8836 70.7403 23.2235 79.5433 14.341 86.2052L16.7674 89.4404ZM56.4612 44.2716V38.05H52.4171V44.2716H56.4612ZM106.98 86.2052C98.098 79.5433 94.4379 70.7403 89.8576 62.1771C85.3024 53.6609 79.893 45.6485 67.4033 42.3179L66.3613 46.2254C77.2026 49.1164 81.9033 55.8802 86.2916 64.0845C90.6549 72.2419 94.7718 82.1037 104.554 89.4404L106.98 86.2052ZM68.9043 44.2716V38.05H64.8603V44.2716H68.9043Z" fill="white"/>
<rect x="51.1675" y="11.5227" width="18.5506" height="26.5317" rx="9.27529" transform="rotate(-1 51.1675 11.5227)" stroke="white" stroke-width="4.04403" stroke-linecap="round" stroke-linejoin="round"/>
</svg>
