<svg width="100" height="100" viewBox="0 0 125 125" fill="none" xmlns="http://www.w3.org/2000/svg">
<path fill-rule="evenodd" clip-rule="evenodd" d="M39.4854 99.3294H83.0365V86.8862H39.4854V99.3294Z" stroke="white" stroke-width="2.48864" stroke-linecap="round" stroke-linejoin="round"/>
<path d="M88.1133 112.377C89.1441 112.377 89.9798 111.542 89.9798 110.511V45.4911C89.9798 35.0742 86.6269 27.0853 81.2086 21.6971C75.8031 16.3217 68.4942 13.6875 60.858 13.6875C45.5577 13.6875 32.3523 25.2722 32.3523 40.4892C32.3523 41.52 33.1879 42.3556 34.2188 42.3556H47.0508C48.0816 42.3556 48.9173 41.52 48.9173 40.4892C48.9173 35.7836 50.1197 33.303 51.7761 31.9194C53.5068 30.4738 56.1596 29.8521 59.8828 29.8521C63.3732 29.8521 66.0312 30.8586 67.8313 32.7579C69.6444 34.671 70.8484 37.7648 70.8484 42.4653C70.8484 49.6615 69.0043 54.3017 66.5061 57.12C64.0217 59.9226 60.7099 61.1301 57.3164 61.1301H49.6172C39.791 61.1301 32.3523 70.204 32.3523 80.9614V110.511C32.3523 111.542 33.1879 112.377 34.2188 112.377H88.1133Z" stroke="white" stroke-width="3.73295" stroke-linecap="round" stroke-linejoin="round"/>
</svg>
