<svg width="100" height="101" viewBox="0 0 100 101" fill="none" xmlns="http://www.w3.org/2000/svg">
<path fill-rule="evenodd" clip-rule="evenodd" d="M31.9062 80.6667H66.9062V70.6667H31.9062V80.6667Z" stroke="#007CFF" stroke-width="2" stroke-linecap="round" stroke-linejoin="round"/>
<path d="M70.8125 90.9792C71.6409 90.9792 72.3125 90.3077 72.3125 89.4792V37.2258C72.3125 28.8543 69.618 22.4339 65.2635 18.1037C60.9193 13.7838 55.0456 11.6667 48.9088 11.6667C36.6126 11.6667 26 20.9769 26 33.206C26 34.0344 26.6716 34.706 27.5 34.706H37.8125C38.6409 34.706 39.3125 34.0344 39.3125 33.206C39.3125 29.4244 40.2789 27.4308 41.61 26.3189C43.0009 25.1571 45.1328 24.6575 48.125 24.6575C50.9301 24.6575 53.0662 25.4664 54.5128 26.9928C55.9699 28.5302 56.9375 31.0166 56.9375 34.7941C56.9375 40.5773 55.4555 44.3065 53.4478 46.5714C51.4512 48.8238 48.7897 49.7941 46.0625 49.7941H39.875C31.9781 49.7941 26 57.0864 26 65.7316V89.4792C26 90.3077 26.6716 90.9792 27.5 90.9792H70.8125Z" stroke="#007CFF" stroke-width="3" stroke-linecap="round" stroke-linejoin="round"/>
</svg>
