<svg width="100" height="101" viewBox="0 0 100 101" fill="none" xmlns="http://www.w3.org/2000/svg">
<path fill-rule="evenodd" clip-rule="evenodd" d="M82.5 30.5962L50 68.0204L17.5 30.5962H82.5Z" stroke="#C849D9" stroke-width="3.25" stroke-linecap="round" stroke-linejoin="round"/>
<path d="M49.9919 67.0381V89.6872" stroke="#C849D9" stroke-width="3.25" stroke-linecap="round" stroke-linejoin="round"/>
<path fill-rule="evenodd" clip-rule="evenodd" d="M69.0358 9.33325C66.5201 9.33325 64.0993 10.7369 62.9285 13.1441C61.2943 16.5029 62.7024 20.567 66.0635 22.2012C67.0151 22.6645 68.0255 22.8838 69.02 22.8838C71.5335 22.8838 73.9542 21.4824 75.1251 19.0752C76.7593 15.7141 75.3511 11.6478 71.99 10.0136C71.0362 9.5525 70.0281 9.33325 69.0358 9.33325ZM69.0358 11.5936C69.7184 11.5936 70.3807 11.745 71 12.0479C73.2422 13.1374 74.1803 15.8452 73.0908 18.0874C72.3426 19.629 70.7446 20.6235 69.02 20.6235C68.3351 20.6235 67.6728 20.472 67.0513 20.1692C64.8113 19.0797 63.8733 16.3719 64.9605 14.1341C65.7109 12.5904 67.3112 11.5936 69.0358 11.5936Z" fill="#C849D9"/>
<path d="M66.5681 21.1895L54.7083 45.5827" stroke="#C849D9" stroke-width="2.5" stroke-linecap="round" stroke-linejoin="round"/>
<path d="M35.2271 89.687H64.2607" stroke="#C849D9" stroke-width="3.25" stroke-linecap="round" stroke-linejoin="round"/>
</svg>
