<svg width="100" height="101" viewBox="0 0 100 101" fill="none" xmlns="http://www.w3.org/2000/svg">
<path fill-rule="evenodd" clip-rule="evenodd" d="M31.9062 80.3333H66.9062V70.3333H31.9062V80.3333Z" stroke="#007CFF" stroke-width="2" stroke-linecap="round" stroke-linejoin="round"/>
<path d="M70.8125 90.6458C71.6409 90.6458 72.3125 89.9742 72.3125 89.1458V36.8923C72.3125 28.5208 69.618 22.1004 65.2635 17.7702C60.9193 13.4503 55.0456 11.3333 48.9088 11.3333C36.6126 11.3333 26 20.6434 26 32.8725C26 33.7009 26.6716 34.3725 27.5 34.3725H37.8125C38.6409 34.3725 39.3125 33.7009 39.3125 32.8725C39.3125 29.0909 40.2789 27.0973 41.61 25.9854C43.0009 24.8236 45.1328 24.324 48.125 24.324C50.9301 24.324 53.0662 25.1329 54.5128 26.6593C55.9699 28.1967 56.9375 30.6831 56.9375 34.4606C56.9375 40.2438 55.4555 43.973 53.4478 46.2379C51.4512 48.4903 48.7897 49.4606 46.0625 49.4606H39.875C31.9781 49.4606 26 56.7529 26 65.3981V89.1458C26 89.9742 26.6716 90.6458 27.5 90.6458H70.8125Z" stroke="#007CFF" stroke-width="3" stroke-linecap="round" stroke-linejoin="round"/>
</svg>
