<svg width="100" height="101" viewBox="0 0 100 101" fill="none" xmlns="http://www.w3.org/2000/svg">
<path d="M40.3488 52.7865C40.5093 51.9036 39.9237 51.0576 39.0407 50.8971C38.1577 50.7365 37.3118 51.3222 37.1512 52.2052L40.3488 52.7865ZM36.25 66.2458L37.0642 67.6522L37.7144 67.2757L37.8488 66.5365L36.25 66.2458ZM19.291 76.0642L20.1052 77.4705H20.1052L19.291 76.0642ZM25.7793 91.9435L26.183 93.5175L25.7793 91.9435ZM67.9036 82.8199C68.7729 82.597 69.297 81.7116 69.0741 80.8422C68.8512 79.9729 67.9657 79.4489 67.0964 79.6718L67.9036 82.8199ZM15.7471 87.1396L14.2678 87.812L15.7471 87.1396ZM59.0988 52.2052C58.9382 51.3222 58.0923 50.7365 57.2093 50.8971C56.3263 51.0576 55.7407 51.9036 55.9012 52.7865L59.0988 52.2052ZM60 66.2458L58.4012 66.5365L58.5356 67.2757L59.1858 67.6522L60 66.2458ZM77.0019 76.089L76.1877 77.4954L77.0019 76.089ZM70.4467 91.8396L70.0228 93.4083L70.4467 91.8396ZM49.174 84.4069C48.3076 84.1727 47.4154 84.6852 47.1813 85.5516C46.9471 86.418 47.4596 87.3101 48.326 87.5443L49.174 84.4069ZM80.5234 87.0944L79.044 86.422L80.5234 87.0944ZM25.8224 80.9281C24.9566 81.1642 24.4461 82.0576 24.6823 82.9234C24.9184 83.7893 25.8117 84.2997 26.6776 84.0636L25.8224 80.9281ZM53.75 74.9958L54.3901 73.5022C54.0528 73.3577 53.6765 73.3315 53.3224 73.4281L53.75 74.9958ZM70.6099 83.9895C71.4348 84.343 72.3901 83.9609 72.7436 83.136C73.0971 82.3111 72.715 81.3558 71.8901 81.0022L70.6099 83.9895ZM11.525 69.9459C10.807 70.4843 10.6615 71.5029 11.2 72.2208C11.7385 72.9388 12.757 73.0843 13.475 72.5458L11.525 69.9459ZM43.75 36.2458L44.1687 37.816C44.8801 37.6263 45.375 36.9821 45.375 36.2458H43.75ZM45.375 31.2458C45.375 30.3484 44.6475 29.6208 43.75 29.6208C42.8525 29.6208 42.125 30.3484 42.125 31.2458H45.375ZM84.025 72.5458C84.743 73.0843 85.7615 72.9388 86.3 72.2208C86.8385 71.5029 86.693 70.4843 85.975 69.9459L84.025 72.5458ZM53.75 36.2458H52.125C52.125 36.9821 52.6199 37.6263 53.3313 37.816L53.75 36.2458ZM55.375 31.2458C55.375 30.3484 54.6475 29.6208 53.75 29.6208C52.8525 29.6208 52.125 30.3484 52.125 31.2458H55.375ZM37.1512 52.2052L34.6512 65.9552L37.8488 66.5365L40.3488 52.7865L37.1512 52.2052ZM35.4358 64.8395L18.4769 74.6579L20.1052 77.4705L37.0642 67.6522L35.4358 64.8395ZM26.183 93.5175L67.9036 82.8199L67.0964 79.6718L25.3757 90.3694L26.183 93.5175ZM14.2678 87.812C16.331 92.351 21.3532 94.7559 26.183 93.5175L25.3757 90.3694C22.0725 91.2164 18.6376 89.5716 17.2265 86.4671L14.2678 87.812ZM18.4769 74.6579C13.8999 77.3077 12.0793 82.9973 14.2678 87.812L17.2265 86.4671C15.7297 83.1742 16.9748 79.2828 20.1052 77.4705L18.4769 74.6579ZM55.9012 52.7865L58.4012 66.5365L61.5988 65.9552L59.0988 52.2052L55.9012 52.7865ZM59.1858 67.6522L76.1877 77.4954L77.816 74.6827L60.8142 64.8395L59.1858 67.6522ZM70.8707 90.2708L49.174 84.4069L48.326 87.5443L70.0228 93.4083L70.8707 90.2708ZM79.044 86.422C77.6298 89.5334 74.1701 91.1626 70.8707 90.2708L70.0228 93.4083C74.8588 94.7153 79.9298 92.3273 82.0027 87.7668L79.044 86.422ZM76.1877 77.4954C79.2937 79.2936 80.5292 83.1546 79.044 86.422L82.0027 87.7668C84.1796 82.9778 82.3687 77.3185 77.816 74.6827L76.1877 77.4954ZM26.6776 84.0636L54.1776 76.5636L53.3224 73.4281L25.8224 80.9281L26.6776 84.0636ZM53.1099 76.4895L70.6099 83.9895L71.8901 81.0022L54.3901 73.5022L53.1099 76.4895ZM13.475 72.5458C21.3366 66.6497 24.6451 58.7243 28.1517 52.1685C31.6784 45.5751 35.4561 40.1393 44.1687 37.816L43.3313 34.6757C33.2939 37.3523 28.9466 43.7916 25.2858 50.6357C21.6049 57.5174 18.6634 64.592 11.525 69.9459L13.475 72.5458ZM45.375 36.2458V31.2458H42.125V36.2458H45.375ZM85.975 69.9459C78.8366 64.592 75.8951 57.5174 72.2141 50.6357C68.5534 43.7916 64.2061 37.3523 54.1687 34.6757L53.3313 37.816C62.0439 40.1393 65.8216 45.5751 69.3484 52.1685C72.8549 58.7243 76.1634 66.6497 84.025 72.5458L85.975 69.9459ZM55.375 36.2458V31.2458H52.125V36.2458H55.375Z" fill="#00BC00"/>
<rect x="41.1211" y="9.92676" width="14.9082" height="21.3223" rx="7.45411" transform="rotate(-1 41.1211 9.92676)" stroke="#00BC00" stroke-width="3.25" stroke-linecap="round" stroke-linejoin="round"/>
</svg>
