<svg width="100" height="100" viewBox="0 0 100 100" fill="none" xmlns="http://www.w3.org/2000/svg">
<path d="M86.7601 36.5799C87.1913 36.5799 87.6018 36.3943 87.8866 36.0704C88.1713 35.7465 88.3029 35.3157 88.2477 34.8879C87.3653 28.0492 82.5388 22.038 75.6939 17.7829C68.8273 13.5143 59.7716 10.8999 50.0401 10.8999C40.3085 10.8999 31.2528 13.5143 24.3862 17.7829C17.5413 22.038 12.7148 28.0492 11.8324 34.8879C11.7772 35.3157 11.9088 35.7465 12.1936 36.0704C12.4784 36.3943 12.8888 36.5799 13.3201 36.5799H86.7601Z" stroke="#FF6800" stroke-width="3" stroke-linejoin="round"/>
<path d="M90 45.8799C87.2752 45.8799 85.626 48.0712 83.8812 50.3928C81.9584 52.9537 79.9693 55.5999 76.5009 55.5999C73.0351 55.5999 71.046 52.9537 69.1179 50.3928C67.3758 48.0712 65.7266 45.8799 63.0018 45.8799C60.277 45.8799 58.6278 48.0712 56.8829 50.3928C54.9602 52.9537 52.9657 55.5999 49.5 55.5999C46.0343 55.5999 44.0425 52.9537 42.117 50.3928C40.3749 48.0712 38.7257 45.8799 36.0009 45.8799C33.2788 45.8799 31.6269 48.0712 29.8821 50.3928C27.962 52.9537 25.9702 55.5999 22.5018 55.5999C19.0334 55.5999 17.0442 52.9537 15.1188 50.3928C13.374 48.0712 11.7274 45.8799 9 45.8799" stroke="#FF6800" stroke-width="3" stroke-linecap="round" stroke-linejoin="round"/>
<path d="M80.2801 65.3198L67.3201 78.2798L54.3601 65.3198" stroke="#FF6800" stroke-width="2" stroke-linecap="round" stroke-linejoin="round"/>
<path d="M86.7601 63.82C87.1913 63.82 87.6018 64.0056 87.8866 64.3295C88.1713 64.6534 88.3029 65.0842 88.2477 65.512C87.3653 72.3507 82.5388 78.3619 75.6939 82.617C68.8273 86.8856 59.7716 89.5 50.0401 89.5C40.3085 89.5 31.2528 86.8856 24.3862 82.617C17.5413 78.3619 12.7148 72.3507 11.8324 65.512C11.7772 65.0842 11.9088 64.6534 12.1936 64.3295C12.4784 64.0056 12.8888 63.82 13.3201 63.82H86.7601Z" stroke="#FF6800" stroke-width="3" stroke-linejoin="round"/>
</svg>
