<svg width="264" height="42" viewBox="0 0 264 42" fill="none" xmlns="http://www.w3.org/2000/svg">
<path d="M25.0664 8.98002H23.0129V6.55355C23.0129 6.18486 22.7128 5.88477 22.3399 5.88477C21.9669 5.88477 21.6668 6.18486 21.6668 6.55355V8.98002H7.53236V6.55355C7.53236 6.18486 7.23227 5.88477 6.86358 5.88477C6.49061 5.88477 6.19052 6.18486 6.19052 6.55355V8.98002H3.82406C1.71482 8.98002 0 10.6948 0 12.8041V37.1417C0 39.251 1.71482 40.9658 3.82406 40.9658H25.0664C27.1757 40.9658 28.8905 39.251 28.8905 37.1417V12.8041C28.8948 10.6948 27.1757 8.98002 25.0664 8.98002ZM3.82406 10.3219H6.19052V12.4354C6.19052 12.8041 6.49061 13.1042 6.86358 13.1042C7.23227 13.1042 7.53236 12.8041 7.53236 12.4354V10.3219H21.6711V12.4354C21.6711 12.8041 21.9712 13.1042 22.3442 13.1042C22.7128 13.1042 23.0129 12.8041 23.0172 12.4354V10.3219H25.0707C26.4426 10.3219 27.5529 11.4365 27.5529 12.8041V17.2326H1.34185V12.8041C1.34185 11.4365 2.45648 10.3219 3.82406 10.3219ZM25.0664 39.6282H3.82406C2.4522 39.6282 1.34185 38.5136 1.34185 37.146V18.2658H27.5529V37.1417C27.5529 38.5136 26.4383 39.6282 25.0664 39.6282Z" fill="#FFB607"/>
<path d="M19.227 23.0767L11.9818 30.922L9.66684 28.4184C9.47392 28.2083 9.1481 28.1955 8.93804 28.3884C8.72797 28.5813 8.71511 28.9071 8.90803 29.1172L11.6003 32.0324C11.6989 32.1396 11.8361 32.1996 11.9776 32.1996C12.119 32.1996 12.2605 32.1396 12.3548 32.0324L19.9772 23.7755C20.1701 23.5654 20.1573 23.2396 19.9472 23.0467C19.7457 22.8538 19.4199 22.8666 19.227 23.0767Z" fill="#FFB607"/>
<path d="M125.978 11.0298C126.187 10.7909 126.237 10.4524 126.103 10.1637C125.973 9.87506 125.685 9.6909 125.366 9.6909H116.258L117.497 7.15245C117.656 7.17236 117.815 7.18729 117.975 7.18729C119.956 7.18729 121.568 5.57463 121.568 3.59365C121.568 1.61266 119.956 0 117.975 0C115.994 0 114.381 1.61266 114.381 3.59365C114.381 4.97237 115.158 6.16694 116.297 6.76919L114.874 9.6909H93.0183C92.6997 9.6909 92.416 9.87506 92.2816 10.1637C92.1522 10.4524 92.197 10.7909 92.406 11.0298L108.378 29.4211V39.0971H101.838C101.39 39.0971 101.032 39.4604 101.032 39.9034C101.032 40.3464 101.395 40.7097 101.838 40.7097H116.287C116.735 40.7097 117.094 40.3464 117.094 39.9034C117.094 39.4604 116.73 39.0971 116.287 39.0971H109.996V29.4311L125.978 11.0298ZM115.576 3.58867C115.576 2.26967 116.651 1.19456 117.97 1.19456C119.289 1.19456 120.364 2.26967 120.364 3.58867C120.364 4.90767 119.289 5.98277 117.97 5.98277C116.651 5.98277 115.576 4.90767 115.576 3.58867ZM94.7902 11.3085H114.082L110.977 17.6845C110.827 17.9931 110.952 18.3664 111.265 18.5157C111.355 18.5605 111.444 18.5804 111.539 18.5804C111.768 18.5804 111.992 18.451 112.096 18.232L115.471 11.3085H123.599L109.244 27.8284C109.225 27.8284 109.205 27.8234 109.19 27.8234C109.175 27.8234 109.155 27.8234 109.14 27.8284L94.7902 11.3085Z" fill="#C849D9"/>
<path d="M46.0051 18.3021H77.3433C77.7298 18.3021 78.0952 18.1341 78.343 17.8401C78.595 17.5461 78.7 17.1597 78.6412 16.7816C78.238 14.2615 76.1925 11.9513 72.8743 10.2838C69.7493 8.71291 65.7716 7.84766 61.6721 7.84766C57.5727 7.84766 53.5992 8.71291 50.4742 10.2838C47.156 11.9513 45.1063 14.2573 44.703 16.7774C44.64 17.1555 44.7492 17.5461 44.9971 17.8401C45.2533 18.1341 45.6187 18.3021 46.0051 18.3021ZM51.0665 11.4557C54.015 9.97299 57.7827 9.15814 61.6763 9.15814C65.57 9.15814 69.3376 9.97299 72.2862 11.4557C75.2138 12.93 77.0115 14.8915 77.3475 16.9832H46.0051C46.337 14.8957 48.1389 12.93 51.0665 11.4557Z" fill="#FF6800"/>
<path d="M79.3681 20.2441C77.814 20.2441 76.9908 21.8066 76.1927 23.3187C75.4703 24.6922 74.7184 26.1119 73.6432 26.1119C72.5679 26.1119 71.8161 24.6922 71.0936 23.3187C70.2956 21.8066 69.4723 20.2441 67.9182 20.2441C66.3683 20.2441 65.5409 21.8024 64.7428 23.3103L64.7344 23.3229C64.0078 24.6964 63.2601 26.1161 62.1848 26.1161C61.1096 26.1161 60.3577 24.6964 59.6353 23.3229C58.8372 21.8108 58.014 20.2483 56.4599 20.2483C54.91 20.2483 54.0825 21.8066 53.2845 23.3103L53.2761 23.3229C52.415 24.9568 51.7304 26.1161 50.7265 26.1161C49.6512 26.1161 48.8994 24.6964 48.1769 23.3229C47.3789 21.8108 46.5556 20.2483 44.9973 20.2483C44.6319 20.2483 44.3379 20.5424 44.3379 20.9036C44.3379 21.269 44.6319 21.563 44.9973 21.563C45.7618 21.563 46.3708 22.7181 47.0135 23.9362C47.8787 25.5743 48.8574 27.4308 50.7265 27.4308C52.604 27.4308 53.5785 25.5743 54.4395 23.9362L54.4437 23.9236C55.0864 22.7055 55.6954 21.5588 56.4557 21.5588C56.6531 21.5588 56.9639 21.6218 57.4007 22.1553C57.7746 22.6131 58.1274 23.2851 58.4718 23.9362C59.3371 25.5743 60.3157 27.4308 62.1848 27.4308C64.054 27.4308 65.0326 25.5743 65.8979 23.9362L65.9021 23.9236C66.5447 22.7055 67.1538 21.5588 67.914 21.5588C68.1114 21.5588 68.4222 21.6218 68.8591 22.1553C69.2329 22.6131 69.5857 23.2851 69.9301 23.9362C70.7954 25.5743 71.7741 27.4308 73.6432 27.4308C75.5123 27.4308 76.491 25.5743 77.3562 23.9362C77.9737 22.7685 78.6079 21.563 79.3723 21.563C79.7378 21.563 80.0318 21.269 80.0318 20.9036C80.0276 20.5382 79.7294 20.2441 79.3681 20.2441Z" fill="#FF6800"/>
<path d="M77.3449 29.3691H46.0067C45.6286 29.3691 45.2716 29.533 45.0196 29.8144C45.0196 29.8186 45.0154 29.8186 45.0154 29.8228C44.7676 30.1126 44.6542 30.4948 44.7088 30.8686C45.0994 33.6366 47.1281 36.1862 50.4211 38.0511C53.5629 39.8278 57.5616 40.8065 61.6821 40.8065C65.7983 40.8065 69.797 39.8278 72.9388 38.0511C76.2318 36.1904 78.2605 33.6408 78.6554 30.8686C78.6554 30.8644 78.6554 30.8644 78.6554 30.8602C78.7016 30.4864 78.5924 30.1084 78.3445 29.8228C78.0925 29.533 77.7271 29.3691 77.3449 29.3691ZM73.5898 30.6838L69.2594 34.8715L64.9331 30.6838H73.5898ZM72.2877 36.9044C69.3392 38.5719 65.5715 39.4876 61.6779 39.4876C57.7842 39.4876 54.0124 38.5677 51.0638 36.9044C48.1362 35.2495 46.3385 33.0402 46.0025 30.6838H63.694C63.694 30.8182 63.7444 30.9484 63.8494 31.0492L68.9023 35.9426C68.9989 36.0392 69.1249 36.0854 69.2552 36.0854C69.3854 36.0854 69.5072 36.0392 69.608 35.9426L74.6651 31.0492C74.7659 30.9484 74.8205 30.8182 74.8205 30.6838H77.3449C77.3449 30.6838 77.3449 30.688 77.3449 30.6922C77.0131 33.0444 75.2153 35.2495 72.2877 36.9044Z" fill="#FF6800"/>
<path d="M250.293 37.7711L255.518 36.4325L256.646 36.9145C256.99 37.0609 257.386 36.9016 257.532 36.5616C257.679 36.2216 257.524 35.8256 257.179 35.6792L249.927 32.5673C249.785 32.507 249.63 32.4984 249.483 32.5372L238.086 35.6448L238.439 36.9447L249.608 33.8973L253.486 35.5587L247.62 37.0652C247.482 37.0566 247.349 37.0953 247.232 37.1642L237.896 39.5573L238.228 40.8615L247.637 38.4511L256.396 40.8184L256.749 39.5186L250.293 37.7711ZM249.66 33.1871L249.483 32.5415L249.66 33.1871Z" fill="#00CD00"/>
<path d="M234.522 37.9447C233.902 36.5802 234.418 34.9662 235.714 34.2172L235.042 33.0508C233.144 34.1484 232.391 36.5071 233.295 38.5042C234.151 40.3851 236.23 41.3794 238.232 40.8672L237.9 39.563C236.532 39.9117 235.111 39.2273 234.522 37.9447Z" fill="#00CD00"/>
<path d="M237.616 36.4748C237.711 36.8321 238.085 37.043 238.443 36.9483L238.09 35.6484C237.728 35.7431 237.517 36.1133 237.616 36.4748Z" fill="#00CD00"/>
<path d="M263.016 31.0961C260.059 28.8794 258.841 25.944 257.313 23.0946C255.858 20.3743 254.141 17.809 250.336 16.6254V15.0587C250.336 14.9037 250.284 14.766 250.198 14.6498C250.943 13.9482 251.399 12.9496 251.377 11.8477L251.33 9.19202C251.313 8.18484 250.904 7.25082 250.181 6.54924C249.458 5.85196 248.506 5.47749 247.503 5.49471C247.499 5.49471 247.499 5.49471 247.495 5.49471C246.492 5.51193 245.558 5.92083 244.861 6.64393C244.163 7.36704 243.789 8.31827 243.806 9.32115L243.853 11.9811C243.871 13.0185 244.31 13.9525 245.007 14.6239C244.908 14.7401 244.848 14.8951 244.848 15.0587V16.6254C241.039 17.809 239.325 20.3743 237.866 23.0946C236.343 25.9483 235.125 28.8794 232.163 31.0961C231.866 31.3199 231.806 31.7417 232.03 32.0387C232.254 32.3357 232.68 32.396 232.977 32.1722L232.628 31.7073L232.977 32.1679C236.231 29.7231 237.604 26.439 239.059 23.723C240.518 20.9898 242.084 18.7387 245.696 17.7746L245.524 17.1247L245.696 17.7746C245.988 17.6971 246.195 17.4303 246.195 17.1247V15.3901C246.634 15.5709 247.116 15.6698 247.62 15.6698C247.641 15.6698 247.663 15.6698 247.684 15.6698C248.145 15.6612 248.584 15.5709 248.993 15.4116V17.1247C248.993 17.4303 249.199 17.6971 249.492 17.7746C253.103 18.7387 254.666 20.9898 256.129 23.723C257.58 26.439 258.953 29.7231 262.211 32.1679L262.671 31.5524L262.207 32.1722C262.504 32.396 262.925 32.3357 263.149 32.0387C263.373 31.7417 263.313 31.3199 263.016 31.0961ZM249.354 13.5909C248.902 14.0558 248.304 14.3183 247.658 14.3312C246.328 14.3571 245.227 13.2896 245.201 11.9596L245.153 9.30393C245.14 8.6583 245.381 8.0471 245.829 7.58225C246.277 7.11739 246.879 6.85484 247.525 6.84623C247.529 6.84623 247.529 6.84623 247.534 6.84623C248.175 6.83762 248.786 7.07866 249.247 7.52199C249.712 7.96963 249.974 8.57222 249.983 9.21785L250.03 11.8735C250.043 12.5192 249.802 13.1304 249.354 13.5909Z" fill="#00CD00"/>
<path d="M259.634 33.0585L252.859 29.1374L251.878 23.7442C251.809 23.3783 251.46 23.1373 251.09 23.2019C250.724 23.2664 250.483 23.6194 250.548 23.9852L251.589 29.684L252.252 29.5635V29.5678L251.589 29.6883L251.645 29.9939L251.912 30.1488L258.958 34.2292C260.245 34.9739 260.757 36.575 260.142 37.9265L261.368 38.4861C262.272 36.4975 261.519 34.1518 259.634 33.0585Z" fill="#00CD00"/>
<path d="M235.043 33.0495L235.714 34.2159L242.743 30.1484L243.01 29.9935L243.062 29.6879L242.403 29.5674L243.062 29.6879L244.099 23.9891L243.014 23.7911L244.095 23.9891C244.164 23.6233 243.918 23.2703 243.552 23.2058C243.182 23.1412 242.834 23.3822 242.769 23.7481L241.788 29.1413L235.043 33.0495Z" fill="#00CD00"/>
<path d="M256.757 39.5207L256.404 40.8206C258.406 41.3629 260.511 40.3729 261.367 38.4834L260.14 37.9238C259.555 39.2151 258.122 39.8908 256.757 39.5207Z" fill="#00CD00"/>
<path d="M174.922 12.8531H168.476V12.2807C168.476 9.84678 167.564 7.55244 165.912 5.83053C164.25 4.09931 162.04 3.14062 159.685 3.14062H158.34C153.742 3.14062 150 7.03122 150 11.8107V12.8531H143.555C143.15 12.8531 142.824 13.1789 142.824 13.5838V28.7227C142.824 31.9291 143.89 34.9495 145.826 37.2252C147.79 39.5335 150.41 40.8086 153.207 40.8086H165.27C168.067 40.8086 170.687 39.5381 172.651 37.2252C174.587 34.9495 175.652 31.9291 175.652 28.7227V13.5791C175.648 13.1789 175.322 12.8531 174.922 12.8531ZM151.457 11.8107C151.457 7.83167 154.547 4.59727 158.345 4.59727H159.69C163.734 4.59727 167.024 8.04575 167.024 12.2807V12.8531H151.457V11.8107ZM174.191 28.718C174.191 34.5772 170.189 39.3427 165.27 39.3427H153.207C148.288 39.3427 144.286 34.5772 144.286 28.7134V14.3098H149.996L149.991 19.2521C149.991 19.6524 150.317 19.9781 150.717 19.9828C151.117 19.9828 151.443 19.657 151.448 19.2568L151.452 14.3144H167.019L167.029 19.2521C167.029 19.6524 167.354 19.9781 167.755 19.9781C168.155 19.9781 168.481 19.6524 168.481 19.2475L168.476 14.3051H174.191V28.718Z" fill="#FF2794"/>
<path d="M147.023 29.621V29.6536C147.023 34.1399 149.937 37.7885 153.516 37.7885H165.415C168.994 37.7885 171.907 34.1399 171.907 29.6536V29.621C171.907 29.3139 171.656 29.0626 171.349 29.0626H147.582C147.275 29.0579 147.023 29.3092 147.023 29.621ZM170.772 30.1795C170.674 31.8735 170.111 33.4511 169.166 34.6611C168.152 35.9549 166.821 36.6669 165.415 36.6669H153.516C152.11 36.6669 150.779 35.9549 149.765 34.6611C148.815 33.4511 148.257 31.8781 148.159 30.1795H170.772Z" fill="#FF2794"/>
<path d="M212.082 30.2969H195.991C195.676 30.2969 195.418 30.5547 195.418 30.8699V35.468C195.418 35.7832 195.676 36.041 195.991 36.041H212.082C212.397 36.041 212.655 35.7832 212.655 35.468V30.8699C212.655 30.5547 212.397 30.2969 212.082 30.2969ZM211.504 34.8951H196.564V31.4476H211.504V34.8951Z" fill="#007CFF"/>
<path d="M211.695 5.94047C209.627 3.88251 206.753 2.74609 203.606 2.74609C202.116 2.74609 200.665 3.01826 199.285 3.55782C197.938 4.08305 196.721 4.83748 195.675 5.802C193.478 7.82177 192.266 10.5387 192.266 13.4513C192.266 14.2726 192.939 14.9459 193.765 14.9459H198.502C199.323 14.9459 199.996 14.2774 199.996 13.4513C199.996 12.186 200.254 11.3313 200.765 10.9015C201.228 10.5148 202.04 10.3238 203.243 10.3238C204.289 10.3238 205.077 10.6007 205.592 11.1451C206.184 11.7706 206.49 12.7924 206.49 14.1771C206.49 16.3353 206.003 18.0209 205.086 19.057C204.203 20.0597 203.081 20.265 202.293 20.265H199.447C197.47 20.265 195.637 21.1388 194.285 22.7193C192.982 24.2425 192.266 26.2623 192.266 28.3966V39.3119C192.266 40.1332 192.939 40.8065 193.765 40.8065H213.676C214.497 40.8065 215.171 40.138 215.171 39.3119V15.304C215.175 11.4411 213.972 8.20375 211.695 5.94047ZM213.681 39.3263H193.77V28.4062C193.77 26.6251 194.362 24.9539 195.431 23.6982C196.496 22.4519 197.924 21.7643 199.457 21.7643H202.302C203.869 21.7643 205.22 21.1723 206.213 20.0502C207.392 18.718 207.994 16.746 207.994 14.1771C207.994 12.3961 207.555 11.0305 206.69 10.1185C205.884 9.26377 204.728 8.82926 203.253 8.82926C201.658 8.82926 200.569 9.12053 199.815 9.75558C198.936 10.4957 198.511 11.7037 198.511 13.4561H193.77C193.77 10.9636 194.811 8.63827 196.692 6.90499C198.554 5.19082 201.013 4.2454 203.611 4.2454C206.356 4.2454 208.858 5.22424 210.644 7.00527C212.63 8.98206 213.681 11.8517 213.681 15.3087V39.3263Z" fill="#007CFF"/>
</svg>
