<svg width="106" height="13" viewBox="0 0 106 13" fill="none" xmlns="http://www.w3.org/2000/svg">
<path fill-rule="evenodd" clip-rule="evenodd" d="M1.06415 0.569101H6.02227C6.18014 0.569101 6.30805 0.702623 6.30805 0.867416V2.59997C6.86083 2.06539 8.56053 0.312481 12.0013 0.312481H12.1242C16.2405 0.312481 17.5308 2.85659 17.5308 4.67378V11.772C17.5308 11.9368 17.4028 12.0703 17.245 12.0703H12.2253C12.0676 12.0703 11.9397 11.9368 11.9397 11.772V6.57609C11.9397 5.03687 11.1822 3.92526 9.2776 3.92526C7.3934 3.92526 6.34894 5.10115 6.34894 6.726V11.772C6.34894 11.9368 6.22079 12.0703 6.06316 12.0703H1.06415C0.906278 12.0703 0.778366 11.9368 0.778366 11.772V0.867416C0.778366 0.702623 0.906278 0.569101 1.06415 0.569101Z" fill="black"/>
<path fill-rule="evenodd" clip-rule="evenodd" d="M28.9977 6.64018L25.3115 7.32417C24.3489 7.49541 23.9599 7.73044 23.9599 8.30771V8.3293C23.9599 8.86339 24.3284 9.50494 25.7007 9.50494C27.7485 9.50494 28.9977 8.3293 28.9977 7.13208V6.64018ZM23.9394 12.2838H23.7141C20.0277 12.2838 18.6145 10.4669 18.6145 8.58568V8.32931C18.6145 6.40491 19.8025 5.27196 23.079 4.99425L28.3835 4.5026C28.8545 4.43832 28.9977 4.26732 28.9977 3.94692C28.9977 3.51905 28.7725 3.07034 26.6018 3.07034H26.5198C24.5866 3.07034 24.1988 3.61758 24.088 4.01467C24.0502 4.14993 23.9364 4.24598 23.8013 4.24598H18.881V4.11742C18.881 2.57869 19.3315 0.269855 25.9463 0.269855H27.0933C33.9743 0.269855 34.4453 2.4072 34.4453 3.96801V8.2221C34.4453 8.543 34.5273 8.71399 34.9165 8.71399H35.2135C35.3773 8.71399 35.5105 8.85273 35.5105 9.02373V11.7604C35.5105 11.9314 35.3773 12.0702 35.2135 12.0702H30.8819C30.0785 12.0702 29.4891 11.6979 29.2207 10.9906C29.1451 10.7908 28.9166 10.7188 28.7561 10.8538C28.0466 11.4527 26.6187 12.2838 23.9394 12.2838Z" fill="black"/>
<path fill-rule="evenodd" clip-rule="evenodd" d="M34.9276 0.569069H40.2305C40.3479 0.569069 40.4542 0.642531 40.4998 0.755702L43.4553 8.05125L46.2689 0.760417C46.3139 0.645013 46.4213 0.569069 46.5407 0.569069H51.6018C51.8148 0.569069 51.9565 0.799133 51.8683 1.0014L47.1175 11.8914C47.0697 12.0003 46.9658 12.0703 46.851 12.0703H39.8724C39.7592 12.0703 39.6563 12.0023 39.608 11.8956L34.6632 1.00562C34.571 0.802856 34.7127 0.569069 34.9276 0.569069Z" fill="black"/>
<path fill-rule="evenodd" clip-rule="evenodd" d="M57.0941 4.8016H63.4421C63.2172 3.71158 62.3777 3.07028 60.2681 3.07028C58.159 3.07028 57.3599 3.77561 57.0941 4.8016ZM68.972 7.92299C68.972 9.52649 68.0296 12.3908 60.8418 12.3908H59.756C52.9776 12.3908 51.5644 9.16291 51.5644 6.46914V6.04177C51.5644 3.39069 52.8751 0.248215 59.6946 0.248215H60.8211C68.0094 0.248215 69.0129 3.75428 69.0129 6.51183V6.85184C69.0129 7.01837 68.8836 7.15338 68.7241 7.15338H57.0323C57.1965 8.35036 58.1388 9.26962 60.3706 9.26962H60.3908C62.6009 9.26962 63.2491 8.47693 63.4259 8.06743C63.474 7.95575 63.5755 7.88005 63.6929 7.88005H68.9352C68.967 7.88005 68.972 7.92299 68.972 7.92299Z" fill="black"/>
<path fill-rule="evenodd" clip-rule="evenodd" d="M70.4668 0.569101H75.4207C75.5797 0.569101 75.7086 0.703616 75.7086 0.869649V2.59997C76.2613 2.06539 77.9611 0.312481 81.4016 0.312481H81.5247C85.6407 0.312481 86.931 2.85659 86.931 4.67378V11.7695C86.931 11.9356 86.8019 12.0703 86.6429 12.0703H81.6282C81.4691 12.0703 81.3403 11.9356 81.3403 11.7695V6.57609C81.3403 5.03687 80.5825 3.92526 78.6776 3.92526C76.7937 3.92526 75.7495 5.10115 75.7495 6.726V11.7695C75.7495 11.9356 75.6206 12.0703 75.4615 12.0703H70.4668C70.3078 12.0703 70.1786 11.9356 70.1786 11.7695V0.869649C70.1786 0.703616 70.3078 0.569101 70.4668 0.569101Z" fill="black"/>
<path fill-rule="evenodd" clip-rule="evenodd" d="M104.744 12.0703H99.7943C99.634 12.0703 99.5044 11.935 99.5044 11.7677V10.0181C98.9716 10.5737 97.2921 12.3267 93.9129 12.3267H93.77C89.6738 12.3267 88.4857 9.69741 88.4857 7.83729V0.871572C88.4857 0.704546 88.6155 0.569038 88.7758 0.569038H93.7874C93.9474 0.569038 94.0772 0.704546 94.0772 0.871572V6.06304C94.0772 7.53798 94.7532 8.71412 96.6162 8.71412C98.4797 8.71412 99.4837 7.4742 99.4837 5.91339V0.871572C99.4837 0.704546 99.6136 0.569038 99.7736 0.569038H104.744C104.904 0.569038 105.034 0.704546 105.034 0.871572V11.7677C105.034 11.935 104.904 12.0703 104.744 12.0703Z" fill="black"/>
</svg>
