<svg width="260" height="47" viewBox="0 0 260 47" fill="none" xmlns="http://www.w3.org/2000/svg">
<g filter="url(#filter0_d_6_438)">
<path d="M28.5201 8.54292H26.5668V6.23479C26.5668 5.88409 26.2813 5.59863 25.9265 5.59863C25.5717 5.59863 25.2863 5.88409 25.2863 6.23479V8.54292H11.8412V6.23479C11.8412 5.88409 11.5558 5.59863 11.2051 5.59863C10.8503 5.59863 10.5648 5.88409 10.5648 6.23479V8.54292H8.31381C6.30745 8.54292 4.67627 10.1741 4.67627 12.1805V35.3311C4.67627 37.3374 6.30745 38.9686 8.31381 38.9686H28.5201C30.5265 38.9686 32.1577 37.3374 32.1577 35.3311V12.1805C32.1617 10.1741 30.5265 8.54292 28.5201 8.54292ZM8.31381 9.81932H10.5648V11.8298C10.5648 12.1805 10.8503 12.4659 11.2051 12.4659C11.5558 12.4659 11.8412 12.1805 11.8412 11.8298V9.81932H25.2904V11.8298C25.2904 12.1805 25.5758 12.4659 25.9306 12.4659C26.2813 12.4659 26.5668 12.1805 26.5709 11.8298V9.81932H28.5242C29.8291 9.81932 30.8853 10.8796 30.8853 12.1805V16.393H5.95267V12.1805C5.95267 10.8796 7.01294 9.81932 8.31381 9.81932ZM28.5201 37.6963H8.31381C7.00886 37.6963 5.95267 36.636 5.95267 35.3351V17.3758H30.8853V35.3311C30.8853 36.636 29.8251 37.6963 28.5201 37.6963Z" fill="#FFB607"/>
<path d="M22.9658 21.9526L16.074 29.4153L13.8719 27.0338C13.6884 26.8339 13.3785 26.8217 13.1787 27.0052C12.9789 27.1887 12.9666 27.4986 13.1501 27.6985L15.7111 30.4715C15.8049 30.5734 15.9354 30.6305 16.07 30.6305C16.2045 30.6305 16.3391 30.5734 16.4288 30.4715L23.6794 22.6173C23.863 22.4175 23.8507 22.1076 23.6509 21.9241C23.4592 21.7406 23.1493 21.7528 22.9658 21.9526Z" fill="#FFB607"/>
<path d="M124.509 10.4918C124.708 10.2646 124.755 9.94262 124.628 9.66802C124.504 9.39341 124.23 9.21823 123.927 9.21823H115.263L116.441 6.8036C116.593 6.82253 116.744 6.83674 116.896 6.83674C118.78 6.83674 120.314 5.30273 120.314 3.41837C120.314 1.53401 118.78 0 116.896 0C115.012 0 113.478 1.53401 113.478 3.41837C113.478 4.72985 114.216 5.86615 115.3 6.43903L113.946 9.21823H93.1568C92.8537 9.21823 92.5839 9.39341 92.456 9.66802C92.3329 9.94262 92.3756 10.2646 92.5744 10.4918L107.768 27.9861V37.1901H101.546C101.12 37.1901 100.779 37.5358 100.779 37.9571C100.779 38.3785 101.125 38.7242 101.546 38.7242H115.291C115.717 38.7242 116.058 38.3785 116.058 37.9571C116.058 37.5358 115.712 37.1901 115.291 37.1901H109.306V27.9956L124.509 10.4918ZM114.614 3.41363C114.614 2.15897 115.637 1.1363 116.891 1.1363C118.146 1.1363 119.169 2.15897 119.169 3.41363C119.169 4.6683 118.146 5.69097 116.891 5.69097C115.637 5.69097 114.614 4.6683 114.614 3.41363ZM94.8423 10.757H113.194L110.239 16.822C110.097 17.1155 110.215 17.4706 110.514 17.6126C110.599 17.6553 110.684 17.6742 110.774 17.6742C110.992 17.6742 111.205 17.5511 111.304 17.3428L114.514 10.757H122.246L108.592 26.4711C108.573 26.4711 108.554 26.4663 108.539 26.4663C108.525 26.4663 108.506 26.4663 108.492 26.4711L94.8423 10.757Z" fill="#C849D9"/>
<path d="M48.4383 17.4094H78.2481C78.6156 17.4094 78.9632 17.2496 79.199 16.9699C79.4387 16.6902 79.5386 16.3227 79.4826 15.9631C79.0991 13.5658 77.1533 11.3684 73.9969 9.78218C71.0244 8.2879 67.2407 7.46484 63.3412 7.46484C59.4417 7.46484 55.662 8.2879 52.6894 9.78218C49.5331 11.3684 47.5833 13.5618 47.1998 15.9591C47.1398 16.3187 47.2437 16.6902 47.4794 16.9699C47.7231 17.2496 48.0707 17.4094 48.4383 17.4094ZM53.2528 10.8969C56.0576 9.48652 59.6414 8.71141 63.3452 8.71141C67.0489 8.71141 70.6328 9.48652 73.4376 10.8969C76.2224 12.2993 77.9324 14.1651 78.252 16.1549H48.4383C48.754 14.1691 50.468 12.2993 53.2528 10.8969Z" fill="#FF6800"/>
<path d="M80.1742 19.2551C78.6959 19.2551 77.9128 20.7414 77.1537 22.1798C76.4665 23.4863 75.7513 24.8367 74.7285 24.8367C73.7057 24.8367 72.9905 23.4863 72.3033 22.1798C71.5441 20.7414 70.761 19.2551 69.2827 19.2551C67.8084 19.2551 67.0213 20.7374 66.2622 22.1718L66.2542 22.1838C65.563 23.4903 64.8518 24.8407 63.829 24.8407C62.8062 24.8407 62.091 23.4903 61.4038 22.1838C60.6447 20.7454 59.8616 19.2591 58.3833 19.2591C56.909 19.2591 56.1219 20.7414 55.3628 22.1718L55.3548 22.1838C54.5357 23.738 53.8845 24.8407 52.9296 24.8407C51.9067 24.8407 51.1915 23.4903 50.5043 22.1838C49.7452 20.7454 48.9621 19.2591 47.4798 19.2591C47.1322 19.2591 46.8525 19.5388 46.8525 19.8824C46.8525 20.23 47.1322 20.5097 47.4798 20.5097C48.207 20.5097 48.7863 21.6084 49.3976 22.7671C50.2207 24.3253 51.1516 26.0913 52.9296 26.0913C54.7155 26.0913 55.6424 24.3253 56.4615 22.7671L56.4655 22.7551C57.0768 21.5964 57.6561 20.5057 58.3793 20.5057C58.5671 20.5057 58.8627 20.5656 59.2783 21.073C59.6338 21.5085 59.9695 22.1478 60.2971 22.7671C61.1201 24.3253 62.0511 26.0913 63.829 26.0913C65.607 26.0913 66.5379 24.3253 67.361 22.7671L67.365 22.7551C67.9762 21.5964 68.5556 20.5057 69.2788 20.5057C69.4665 20.5057 69.7622 20.5656 70.1777 21.073C70.5333 21.5085 70.8689 22.1478 71.1965 22.7671C72.0196 24.3253 72.9505 26.0913 74.7285 26.0913C76.5064 26.0913 77.4374 24.3253 78.2604 22.7671C78.8477 21.6564 79.4511 20.5097 80.1782 20.5097C80.5258 20.5097 80.8055 20.23 80.8055 19.8824C80.8015 19.5348 80.5178 19.2551 80.1742 19.2551Z" fill="#FF6800"/>
<path d="M78.2483 27.9373H48.4385C48.079 27.9373 47.7393 28.0931 47.4996 28.3608C47.4996 28.3648 47.4956 28.3648 47.4956 28.3688C47.2599 28.6444 47.152 29.008 47.204 29.3636C47.5755 31.9966 49.5053 34.4218 52.6377 36.1958C55.6263 37.8858 59.4299 38.8167 63.3494 38.8167C67.2649 38.8167 71.0685 37.8858 74.0571 36.1958C77.1895 34.4258 79.1193 32.0006 79.4948 29.3636C79.4948 29.3596 79.4948 29.3596 79.4948 29.3556C79.5388 29 79.4349 28.6404 79.1992 28.3688C78.9594 28.0931 78.6119 27.9373 78.2483 27.9373ZM74.6764 29.1878L70.5571 33.1712L66.4418 29.1878H74.6764ZM73.4378 35.105C70.633 36.6912 67.0491 37.5622 63.3454 37.5622C59.6417 37.5622 56.0538 36.6872 53.249 35.105C50.4642 33.5308 48.7542 31.4292 48.4345 29.1878H65.2632C65.2632 29.3157 65.3111 29.4395 65.411 29.5354L70.2175 34.1901C70.3094 34.282 70.4293 34.3259 70.5531 34.3259C70.677 34.3259 70.7928 34.282 70.8887 34.1901L75.6992 29.5354C75.7951 29.4395 75.847 29.3157 75.847 29.1878H78.2483C78.2483 29.1878 78.2483 29.1918 78.2483 29.1958C77.9326 31.4332 76.2226 33.5308 73.4378 35.105Z" fill="#FF6800"/>
<path d="M242.76 35.929L247.731 34.6556L248.804 35.1142C249.131 35.2534 249.508 35.1019 249.647 34.7785C249.786 34.455 249.639 34.0783 249.311 33.9391L242.412 30.979C242.277 30.9217 242.13 30.9135 241.991 30.9503L231.149 33.9064L231.485 35.1429L242.11 32.2441L245.798 33.8245L240.218 35.2575C240.087 35.2493 239.96 35.2861 239.849 35.3517L230.969 37.6281L231.284 38.8686L240.234 36.5758L248.566 38.8277L248.902 37.5912L242.76 35.929ZM242.159 31.5686L241.991 30.9544L242.159 31.5686Z" fill="#00CD00"/>
<path d="M227.759 36.0932C227.169 34.7953 227.66 33.2599 228.893 32.5475L228.254 31.438C226.448 32.482 225.732 34.7257 226.592 36.6254C227.407 38.4146 229.384 39.3604 231.288 38.8732L230.973 37.6326C229.671 37.9643 228.32 37.3133 227.759 36.0932Z" fill="#00CD00"/>
<path d="M230.703 34.6963C230.793 35.0361 231.149 35.2367 231.489 35.1466L231.153 33.9102C230.809 34.0002 230.609 34.3523 230.703 34.6963Z" fill="#00CD00"/>
<path d="M254.863 29.5791C252.05 27.4705 250.891 24.6782 249.438 21.9678C248.054 19.3803 246.42 16.9401 242.801 15.8142V14.3238C242.801 14.1764 242.752 14.0454 242.67 13.9349C243.378 13.2675 243.812 12.3176 243.792 11.2695L243.747 8.74335C243.731 7.78529 243.342 6.89683 242.654 6.22947C241.966 5.5662 241.061 5.20999 240.107 5.22637C240.103 5.22637 240.103 5.22637 240.099 5.22637C239.145 5.24275 238.257 5.6317 237.593 6.31954C236.93 7.00738 236.574 7.91221 236.59 8.86618L236.635 11.3964C236.652 12.3832 237.069 13.2716 237.732 13.9103C237.638 14.0209 237.581 14.1683 237.581 14.3238V15.8142C233.958 16.9401 232.328 19.3803 230.94 21.9678C229.491 24.6823 228.332 27.4705 225.515 29.5791C225.233 29.792 225.175 30.1932 225.388 30.4757C225.601 30.7582 226.006 30.8156 226.289 30.6027L225.957 30.1605L226.289 30.5986C229.384 28.273 230.69 25.1491 232.074 22.5656C233.462 19.9657 234.952 17.8244 238.388 16.9073L238.224 16.2891L238.388 16.9073C238.666 16.8336 238.862 16.5798 238.862 16.2891V14.6391C239.28 14.8111 239.739 14.9052 240.218 14.9052C240.238 14.9052 240.259 14.9052 240.279 14.9052C240.717 14.897 241.135 14.8111 241.524 14.6596V16.2891C241.524 16.5798 241.72 16.8336 241.999 16.9073C245.434 17.8244 246.92 19.9657 248.312 22.5656C249.692 25.1491 250.998 28.273 254.097 30.5986L254.535 30.0131L254.093 30.6027C254.376 30.8156 254.777 30.7582 254.99 30.4757C255.203 30.1932 255.145 29.792 254.863 29.5791ZM241.868 12.9277C241.438 13.3699 240.869 13.6196 240.255 13.6319C238.989 13.6565 237.941 12.6411 237.917 11.376L237.872 8.8498C237.859 8.23566 238.089 7.65427 238.514 7.21209C238.94 6.76991 239.513 6.52016 240.128 6.51197C240.132 6.51197 240.132 6.51197 240.136 6.51197C240.746 6.50378 241.327 6.73306 241.765 7.15477C242.207 7.58058 242.457 8.15377 242.465 8.76791L242.51 11.2941C242.523 11.9082 242.293 12.4896 241.868 12.9277Z" fill="#00CD00"/>
<path d="M251.645 31.4456L245.2 27.7158L244.267 22.5856C244.201 22.2376 243.87 22.0083 243.518 22.0698C243.17 22.1312 242.94 22.4669 243.002 22.8149L243.992 28.2357L244.623 28.1211V28.1252L243.992 28.2398L244.046 28.5305L244.3 28.6779L251.002 32.5593C252.226 33.2676 252.713 34.7907 252.128 36.0763L253.295 36.6085C254.154 34.717 253.438 32.4856 251.645 31.4456Z" fill="#00CD00"/>
<path d="M228.254 31.438L228.893 32.5475L235.579 28.6785L235.833 28.5311L235.882 28.2404L235.256 28.1257L235.882 28.2404L236.869 22.8196L235.837 22.6312L236.865 22.8196C236.93 22.4715 236.697 22.1358 236.349 22.0744C235.997 22.013 235.665 22.2423 235.604 22.5903L234.67 27.7204L228.254 31.438Z" fill="#00CD00"/>
<path d="M248.91 37.592L248.574 38.8284C250.478 39.3443 252.48 38.4026 253.295 36.6053L252.128 36.073C251.571 37.3013 250.208 37.9441 248.91 37.592Z" fill="#00CD00"/>
<path d="M171.066 12.2249H164.935V11.6804C164.935 9.36515 164.067 7.18272 162.496 5.54479C160.916 3.89801 158.813 2.98608 156.573 2.98608H155.293C150.92 2.98608 147.361 6.68692 147.361 11.2333V12.2249H141.229C140.844 12.2249 140.534 12.5348 140.534 12.9199V27.3204C140.534 30.3705 141.548 33.2435 143.39 35.4082C145.258 37.6039 147.75 38.8169 150.411 38.8169H161.885C164.546 38.8169 167.038 37.6083 168.906 35.4082C170.748 33.2435 171.761 30.3705 171.761 27.3204V12.9155C171.757 12.5348 171.447 12.2249 171.066 12.2249ZM148.746 11.2333C148.746 7.44833 151.686 4.37168 155.298 4.37168H156.577C160.424 4.37168 163.554 7.65197 163.554 11.6804V12.2249H148.746V11.2333ZM170.371 27.316C170.371 32.8893 166.564 37.4224 161.885 37.4224H150.411C145.732 37.4224 141.924 32.8893 141.924 27.3115V13.6105H147.356L147.352 18.3118C147.352 18.6925 147.662 19.0024 148.042 19.0068C148.423 19.0068 148.733 18.6969 148.737 18.3162L148.742 13.6149H163.55L163.558 18.3118C163.558 18.6925 163.868 19.0024 164.249 19.0024C164.63 19.0024 164.94 18.6925 164.94 18.3073L164.935 13.6061H170.371V27.316Z" fill="#FF2794"/>
<path d="M144.528 28.1758V28.2068C144.528 32.4743 147.299 35.9449 150.703 35.9449H162.022C165.427 35.9449 168.198 32.4743 168.198 28.2068V28.1758C168.198 27.8836 167.959 27.6446 167.667 27.6446H145.059C144.767 27.6402 144.528 27.8792 144.528 28.1758ZM167.118 28.707C167.025 30.3184 166.489 31.8191 165.59 32.9701C164.625 34.2007 163.359 34.878 162.022 34.878H150.703C149.366 34.878 148.1 34.2007 147.135 32.9701C146.232 31.8191 145.701 30.3228 145.608 28.707H167.118Z" fill="#FF2794"/>
<path d="M206.411 28.8213H191.105C190.805 28.8213 190.56 29.0666 190.56 29.3663V33.7402C190.56 34.04 190.805 34.2853 191.105 34.2853H206.411C206.711 34.2853 206.956 34.04 206.956 33.7402V29.3663C206.956 29.0666 206.711 28.8213 206.411 28.8213ZM205.862 33.1952H191.65V29.9159H205.862V33.1952Z" fill="#007CFF"/>
<path d="M206.044 5.65259C204.077 3.695 201.343 2.61401 198.349 2.61401C196.932 2.61401 195.552 2.87291 194.239 3.38615C192.958 3.88576 191.8 4.6034 190.805 5.52087C188.716 7.44212 187.562 10.0265 187.562 12.7971C187.562 13.5783 188.203 14.2187 188.988 14.2187H193.494C194.275 14.2187 194.916 13.5829 194.916 12.7971C194.916 11.5935 195.161 10.7805 195.647 10.3717C196.088 10.0038 196.86 9.82212 198.004 9.82212C198.999 9.82212 199.748 10.0855 200.239 10.6033C200.802 11.1983 201.093 12.1703 201.093 13.4875C201.093 15.5405 200.629 17.1438 199.757 18.1294C198.917 19.0832 197.85 19.2785 197.1 19.2785H194.393C192.513 19.2785 190.769 20.1097 189.484 21.6131C188.244 23.0619 187.562 24.9832 187.562 27.0135V37.3964C187.562 38.1776 188.203 38.818 188.988 38.818H207.928C208.71 38.818 209.35 38.1822 209.35 37.3964V14.5594C209.355 10.8849 208.21 7.80548 206.044 5.65259ZM207.933 37.41H188.993V27.0225C188.993 25.3284 189.556 23.7387 190.574 22.5442C191.586 21.3587 192.944 20.7047 194.402 20.7047H197.109C198.599 20.7047 199.885 20.1415 200.829 19.0741C201.951 17.8069 202.523 15.9311 202.523 13.4875C202.523 11.7933 202.106 10.4943 201.284 9.62681C200.516 8.8138 199.417 8.40048 198.013 8.40048C196.496 8.40048 195.461 8.67754 194.743 9.28162C193.907 9.98563 193.503 11.1347 193.503 12.8016H188.993C188.993 10.4307 189.983 8.2188 191.773 6.57007C193.544 4.9395 195.883 4.04019 198.354 4.04019C200.966 4.04019 203.346 4.97129 205.044 6.66545C206.934 8.54582 207.933 11.2755 207.933 14.5639V37.41Z" fill="#007CFF"/>
</g>
<defs>
<filter id="filter0_d_6_438" x="0.67627" y="0" width="258.442" height="47.0005" filterUnits="userSpaceOnUse" color-interpolation-filters="sRGB">
<feFlood flood-opacity="0" result="BackgroundImageFix"/>
<feColorMatrix in="SourceAlpha" type="matrix" values="0 0 0 0 0 0 0 0 0 0 0 0 0 0 0 0 0 0 127 0" result="hardAlpha"/>
<feOffset dy="4"/>
<feGaussianBlur stdDeviation="2"/>
<feComposite in2="hardAlpha" operator="out"/>
<feColorMatrix type="matrix" values="0 0 0 0 0 0 0 0 0 0 0 0 0 0 0 0 0 0 0.25 0"/>
<feBlend mode="normal" in2="BackgroundImageFix" result="effect1_dropShadow_6_438"/>
<feBlend mode="normal" in="SourceGraphic" in2="effect1_dropShadow_6_438" result="shape"/>
</filter>
</defs>
</svg>
