<svg width="51" height="50" viewBox="0 0 51 50" fill="none" xmlns="http://www.w3.org/2000/svg">
<path d="M15.61 22.96C15.61 17.4371 20.0871 12.96 25.61 12.96V12.96C31.1328 12.96 35.61 17.4371 35.61 22.96V24.84V27.3931C35.61 29.1441 36.281 30.8285 37.4849 32.1L38.8428 33.5339C39.1748 33.8845 39.3599 34.3491 39.3599 34.832V34.832C39.3599 35.8747 38.5146 36.72 37.4719 36.72H13.7478C12.7051 36.72 11.8599 35.8747 11.8599 34.832V34.832C11.8599 34.3491 12.0449 33.8845 12.377 33.5339L13.7349 32.1C14.939 30.8285 15.61 29.1441 15.61 27.393V24.84V22.96Z" stroke="white" stroke-width="2" stroke-linecap="round" stroke-linejoin="round"/>
<path d="M29.3599 36.7199C29.3599 37.2399 29.2629 37.7549 29.0744 38.2353C28.886 38.7158 28.6097 39.1523 28.2615 39.52C27.9133 39.8877 27.4999 40.1794 27.0449 40.3784C26.59 40.5775 26.1023 40.6799 25.6099 40.6799C25.1174 40.6799 24.6298 40.5775 24.1748 40.3784C23.7198 40.1794 23.3064 39.8877 22.9582 39.52C22.61 39.1523 22.3338 38.7158 22.1453 38.2353C21.9569 37.7549 21.8599 37.2399 21.8599 36.7199L25.6099 36.7199H29.3599Z" stroke="white" stroke-width="2" stroke-linecap="round" stroke-linejoin="round"/>
<path d="M24.3599 11.64C24.3599 11.4666 24.3922 11.295 24.455 11.1348C24.5178 10.9747 24.6099 10.8292 24.726 10.7066C24.8421 10.584 24.9799 10.4868 25.1315 10.4204C25.2832 10.3541 25.4457 10.32 25.6099 10.32C25.774 10.32 25.9366 10.3541 26.0882 10.4204C26.2399 10.4868 26.3777 10.584 26.4937 10.7066C26.6098 10.8292 26.7019 10.9747 26.7647 11.1348C26.8275 11.295 26.8599 11.4666 26.8599 11.64L25.6099 11.64L24.3599 11.64Z" stroke="white" stroke-width="2" stroke-linecap="round" stroke-linejoin="round"/>
</svg>
