<svg width="48" height="48" viewBox="0 0 48 48" fill="none" xmlns="http://www.w3.org/2000/svg">
<path fill-rule="evenodd" clip-rule="evenodd" d="M23.6099 46.5C36.0363 46.5 46.1099 36.4264 46.1099 24C46.1099 11.5736 36.0363 1.5 23.6099 1.5C11.1835 1.5 1.10986 11.5736 1.10986 24C1.10986 36.4264 11.1835 46.5 23.6099 46.5ZM16.8599 12.75C15.7553 12.75 14.8599 13.6454 14.8599 14.75V36.5L23.6099 29.9028L32.3599 36.5V14.75C32.3599 13.6454 31.4644 12.75 30.3599 12.75H16.8599Z" fill="white"/>
<path d="M14.8599 36.5H13.8599C13.8599 36.8792 14.0744 37.2258 14.4138 37.395C14.7532 37.5642 15.1591 37.5268 15.4619 37.2985L14.8599 36.5ZM23.6099 29.9028L24.2119 29.1043C23.8555 28.8356 23.3642 28.8356 23.0078 29.1043L23.6099 29.9028ZM32.3599 36.5L31.7578 37.2985C32.0606 37.5268 32.4665 37.5642 32.8059 37.395C33.1454 37.2258 33.3599 36.8792 33.3599 36.5H32.3599ZM45.1099 24C45.1099 35.8741 35.484 45.5 23.6099 45.5V47.5C36.5886 47.5 47.1099 36.9787 47.1099 24H45.1099ZM23.6099 2.5C35.484 2.5 45.1099 12.1259 45.1099 24H47.1099C47.1099 11.0213 36.5886 0.5 23.6099 0.5V2.5ZM2.10986 24C2.10986 12.1259 11.7357 2.5 23.6099 2.5V0.5C10.6312 0.5 0.109863 11.0213 0.109863 24H2.10986ZM23.6099 45.5C11.7357 45.5 2.10986 35.8741 2.10986 24H0.109863C0.109863 36.9787 10.6312 47.5 23.6099 47.5V45.5ZM15.8599 14.75C15.8599 14.1977 16.3076 13.75 16.8599 13.75V11.75C15.203 11.75 13.8599 13.0931 13.8599 14.75H15.8599ZM15.8599 36.5V14.75H13.8599V36.5H15.8599ZM23.0078 29.1043L14.2578 35.7015L15.4619 37.2985L24.2119 30.7013L23.0078 29.1043ZM32.9619 35.7015L24.2119 29.1043L23.0078 30.7013L31.7578 37.2985L32.9619 35.7015ZM31.3599 14.75V36.5H33.3599V14.75H31.3599ZM30.3599 13.75C30.9121 13.75 31.3599 14.1977 31.3599 14.75H33.3599C33.3599 13.0931 32.0167 11.75 30.3599 11.75V13.75ZM16.8599 13.75H30.3599V11.75H16.8599V13.75Z" fill="white"/>
</svg>
