<svg width="51" height="50" viewBox="0 0 51 50" fill="none" xmlns="http://www.w3.org/2000/svg">
<path fill-rule="evenodd" clip-rule="evenodd" d="M25.6099 47.5C38.0363 47.5 48.1099 37.4264 48.1099 25C48.1099 12.5736 38.0363 2.5 25.6099 2.5C13.1835 2.5 3.10986 12.5736 3.10986 25C3.10986 37.4264 13.1835 47.5 25.6099 47.5ZM23.7716 16.2122C20.2394 17.0429 17.61 20.2144 17.61 24V25V26.8786C17.61 28.2369 17.0704 29.5396 16.1099 30.5L15.0241 31.5858C14.7589 31.851 14.6099 32.2107 14.6099 32.5858C14.6099 33.3668 15.243 34 16.0241 34H22.6099C22.6099 34.394 22.6875 34.7841 22.8382 35.1481C22.989 35.512 23.21 35.8427 23.4885 36.1213C23.7671 36.3999 24.0978 36.6209 24.4618 36.7716C24.8258 36.9224 25.2159 37 25.6099 37C26.0038 37 26.3939 36.9224 26.7579 36.7716C27.1219 36.6209 27.4526 36.3999 27.7312 36.1213C28.0098 35.8427 28.2307 35.512 28.3815 35.1481C28.5323 34.7841 28.6099 34.394 28.6099 34H35.1956C35.9767 34 36.6099 33.3668 36.6099 32.5858C36.6099 32.2107 36.4609 31.851 36.1957 31.5858L35.1099 30.5C34.1495 29.5396 33.61 28.237 33.61 26.8787V25V24C33.61 20.2143 30.9804 17.0427 27.4482 16.2122C27.348 15.9784 27.2041 15.7658 27.0241 15.5858C26.8384 15.4001 26.6179 15.2528 26.3752 15.1522C26.1326 15.0517 25.8725 15 25.6099 15C25.3472 15 25.0872 15.0517 24.8445 15.1522C24.6019 15.2528 24.3814 15.4001 24.1957 15.5858C24.0157 15.7658 23.8718 15.9784 23.7716 16.2122Z" fill="white"/>
<path d="M23.7716 16.2122L24.0005 17.1857C24.3095 17.113 24.5657 16.8979 24.6907 16.6061L23.7716 16.2122ZM16.1099 30.5L15.4028 29.7929V29.7929L16.1099 30.5ZM15.0241 31.5858L15.7312 32.2929L15.7312 32.2929L15.0241 31.5858ZM22.6099 34H23.6099C23.6099 33.4477 23.1621 33 22.6099 33V34ZM22.8382 35.1481L23.7621 34.7654L22.8382 35.1481ZM23.4885 36.1213L24.1957 35.4142L24.1956 35.4142L23.4885 36.1213ZM24.4618 36.7716L24.0791 37.6955L24.0791 37.6955L24.4618 36.7716ZM26.7579 36.7716L27.1406 37.6955L27.1406 37.6955L26.7579 36.7716ZM28.3815 35.1481L29.3054 35.5307V35.5307L28.3815 35.1481ZM28.6099 34V33C28.0576 33 27.6099 33.4477 27.6099 34H28.6099ZM36.1957 31.5858L35.4886 32.2929H35.4886L36.1957 31.5858ZM35.1099 30.5L34.4028 31.2071L34.4028 31.2071L35.1099 30.5ZM27.4482 16.2122L26.529 16.6061C26.6541 16.8979 26.9103 17.113 27.2193 17.1857L27.4482 16.2122ZM24.8445 15.1522L25.2272 16.0761L25.2272 16.0761L24.8445 15.1522ZM24.1957 15.5858L23.4886 14.8787L24.1957 15.5858ZM47.1099 25C47.1099 36.8741 37.484 46.5 25.6099 46.5V48.5C38.5886 48.5 49.1099 37.9787 49.1099 25H47.1099ZM25.6099 3.5C37.484 3.5 47.1099 13.1259 47.1099 25H49.1099C49.1099 12.0213 38.5886 1.5 25.6099 1.5V3.5ZM4.10986 25C4.10986 13.1259 13.7357 3.5 25.6099 3.5V1.5C12.6312 1.5 2.10986 12.0213 2.10986 25H4.10986ZM25.6099 46.5C13.7357 46.5 4.10986 36.8741 4.10986 25H2.10986C2.10986 37.9787 12.6312 48.5 25.6099 48.5V46.5ZM18.61 24C18.61 20.6889 20.9099 17.9125 24.0005 17.1857L23.5426 15.2388C19.5689 16.1733 16.61 19.7399 16.61 24H18.61ZM18.61 25V24H16.61V25H18.61ZM18.61 26.8786V25H16.61V26.8786H18.61ZM16.817 31.2071C17.965 30.0591 18.61 28.5021 18.61 26.8786H16.61C16.61 27.9717 16.1757 29.02 15.4028 29.7929L16.817 31.2071ZM15.7312 32.2929L16.817 31.2071L15.4028 29.7929L14.317 30.8787L15.7312 32.2929ZM15.6099 32.5858C15.6099 32.4759 15.6535 32.3706 15.7312 32.2929L14.317 30.8787C13.8642 31.3314 13.6099 31.9455 13.6099 32.5858H15.6099ZM16.0241 33C15.7953 33 15.6099 32.8146 15.6099 32.5858H13.6099C13.6099 33.9191 14.6907 35 16.0241 35V33ZM22.6099 33H16.0241V35H22.6099V33ZM23.7621 34.7654C23.6616 34.5227 23.6099 34.2626 23.6099 34H21.6099C21.6099 34.5253 21.7133 35.0454 21.9143 35.5307L23.7621 34.7654ZM24.1956 35.4142C24.0099 35.2285 23.8626 35.008 23.7621 34.7654L21.9143 35.5307C22.1154 36.016 22.41 36.457 22.7814 36.8284L24.1956 35.4142ZM24.8445 35.8478C24.6019 35.7473 24.3814 35.5999 24.1957 35.4142L22.7814 36.8284C23.1529 37.1999 23.5938 37.4945 24.0791 37.6955L24.8445 35.8478ZM25.6099 36C25.3472 36 25.0871 35.9483 24.8445 35.8478L24.0791 37.6955C24.5644 37.8965 25.0846 38 25.6099 38V36ZM26.3752 35.8478C26.1326 35.9483 25.8725 36 25.6099 36V38C26.1352 38 26.6553 37.8965 27.1406 37.6955L26.3752 35.8478ZM27.0241 35.4142C26.8384 35.5999 26.6179 35.7472 26.3752 35.8478L27.1406 37.6955C27.6259 37.4945 28.0669 37.1999 28.4383 36.8284L27.0241 35.4142ZM27.4576 34.7654C27.3571 35.008 27.2098 35.2285 27.0241 35.4142L28.4383 36.8284C28.8097 36.457 29.1044 36.016 29.3054 35.5307L27.4576 34.7654ZM27.6099 34C27.6099 34.2626 27.5581 34.5227 27.4576 34.7654L29.3054 35.5307C29.5064 35.0454 29.6099 34.5253 29.6099 34H27.6099ZM35.1956 33H28.6099V35H35.1956V33ZM35.6099 32.5858C35.6099 32.8145 35.4244 33 35.1956 33V35C36.529 35 37.6099 33.9191 37.6099 32.5858H35.6099ZM35.4886 32.2929C35.5662 32.3706 35.6099 32.4759 35.6099 32.5858H37.6099C37.6099 31.9455 37.3555 31.3314 36.9028 30.8787L35.4886 32.2929ZM34.4028 31.2071L35.4886 32.2929L36.9028 30.8787L35.817 29.7929L34.4028 31.2071ZM32.61 26.8787C32.61 28.5022 33.2549 30.0591 34.4028 31.2071L35.817 29.7929C35.0442 29.02 34.61 27.9717 34.61 26.8787H32.61ZM32.61 25V26.8787H34.61V25H32.61ZM32.61 24V25H34.61V24H32.61ZM27.2193 17.1857C30.31 17.9124 32.61 20.6888 32.61 24H34.61C34.61 19.7398 31.6509 16.1731 27.6771 15.2387L27.2193 17.1857ZM26.317 16.2929C26.407 16.3829 26.4789 16.4892 26.529 16.6061L28.3673 15.8183C28.217 15.4676 28.0012 15.1486 27.7312 14.8787L26.317 16.2929ZM25.9926 16.0761C26.1139 16.1264 26.2241 16.2 26.317 16.2929L27.7312 14.8787C27.4526 14.6001 27.1219 14.3791 26.7579 14.2284L25.9926 16.0761ZM25.6099 16C25.7412 16 25.8712 16.0259 25.9926 16.0761L26.7579 14.2284C26.3939 14.0776 26.0038 14 25.6099 14V16ZM25.2272 16.0761C25.3485 16.0259 25.4786 16 25.6099 16V14C25.2159 14 24.8258 14.0776 24.4618 14.2284L25.2272 16.0761ZM24.9028 16.2929C24.9956 16.2 25.1059 16.1264 25.2272 16.0761L24.4618 14.2284C24.0978 14.3791 23.7671 14.6001 23.4886 14.8787L24.9028 16.2929ZM24.6907 16.6061C24.7408 16.4892 24.8128 16.3829 24.9028 16.2929L23.4886 14.8787C23.2186 15.1487 23.0027 15.4676 22.8524 15.8184L24.6907 16.6061Z" fill="white"/>
</svg>
