<svg width="36" height="36" viewBox="0 0 36 36" fill="none" xmlns="http://www.w3.org/2000/svg">
<g clip-path="url(#clip0)">
<mask id="path-1-outside-1" maskUnits="userSpaceOnUse" x="0.157611" y="0.171573" width="39.598" height="39.598" fill="black">
<rect fill="white" x="0.157611" y="0.171573" width="39.598" height="39.598"/>
<path d="M23.8204 23.8204C19.9191 27.7217 13.6769 27.805 9.87822 24.0063C6.07952 20.2076 6.16275 13.9654 10.0641 10.0641C13.9655 6.16269 20.2076 6.07946 24.0063 9.87816C27.805 13.6769 27.7218 19.919 23.8204 23.8204Z"/>
</mask>
<path d="M23.8204 23.8204C19.9191 27.7217 13.6769 27.805 9.87822 24.0063C6.07952 20.2076 6.16275 13.9654 10.0641 10.0641C13.9655 6.16269 20.2076 6.07946 24.0063 9.87816C27.805 13.6769 27.7218 19.919 23.8204 23.8204Z" fill="white"/>
<path d="M29.425 30.8391C29.8155 31.2297 30.4487 31.2297 30.8392 30.8391C31.2297 30.4486 31.2297 29.8155 30.8392 29.4249L29.425 30.8391ZM23.1133 24.5275L29.425 30.8391L30.8392 29.4249L24.5275 23.1133L23.1133 24.5275ZM22.4062 22.4062C19.2501 25.5623 14.2748 25.5744 11.2924 22.5921L8.46401 25.4205C13.0791 30.0355 20.588 29.8812 25.2347 25.2346L22.4062 22.4062ZM11.2924 22.5921C8.3101 19.6097 8.32222 14.6344 11.4783 11.4783L8.64991 8.64984C4.00328 13.2965 3.84894 20.8054 8.46401 25.4205L11.2924 22.5921ZM11.4783 11.4783C14.6344 8.32216 19.6098 8.31003 22.5921 11.2924L25.4205 8.46395C20.8055 3.84888 13.2965 4.00321 8.64991 8.64984L11.4783 11.4783ZM22.5921 11.2924C25.5745 14.2747 25.5623 19.25 22.4062 22.4062L25.2347 25.2346C29.8813 20.588 30.0356 13.079 25.4205 8.46395L22.5921 11.2924Z" fill="#333333" mask="url(#path-1-outside-1)"/>
</g>
<defs>
<clipPath id="clip0">
<rect width="26" height="26" fill="white" transform="translate(5 5)"/>
</clipPath>
</defs>
</svg>
