<svg width="40" height="40" viewBox="0 0 40 40" fill="none" xmlns="http://www.w3.org/2000/svg">
<path d="M35 13.65C35.1897 13.65 35.37 13.5671 35.4934 13.4231C35.6169 13.2791 35.6713 13.0883 35.6424 12.9008C35.2562 10.3996 33.1632 8.26168 30.2942 6.77129C27.4002 5.26795 23.5902 4.35 19.5 4.35C15.4098 4.35 11.5998 5.26795 8.70581 6.77129C5.83675 8.26168 3.74383 10.3996 3.35761 12.9008C3.32866 13.0883 3.38307 13.2791 3.50656 13.4231C3.63004 13.5671 3.81029 13.65 4 13.65H35Z" stroke="#333333" stroke-width="1.3" stroke-linejoin="round"/>
<path d="M37 17C35.8563 17 35.164 18.3527 34.4316 19.7858C33.6245 21.3666 32.7896 23 31.3337 23C29.879 23 29.044 21.3666 28.2347 19.7858C27.5034 18.3527 26.8111 17 25.6674 17C24.5237 17 23.8314 18.3527 23.099 19.7858C22.2919 21.3666 21.4548 23 20 23C18.5452 23 17.7092 21.3666 16.901 19.7858C16.1697 18.3527 15.4774 17 14.3337 17C13.1911 17 12.4977 18.3527 11.7653 19.7858C10.9593 21.3666 10.1233 23 8.66741 23C7.21154 23 6.37659 21.3666 5.56839 19.7858C4.836 18.3527 4.14485 17 3 17" stroke="#333333" stroke-width="1.3" stroke-linecap="round" stroke-linejoin="round"/>
<path d="M32 27L27 32L22 27" stroke="#333333" stroke-linecap="round" stroke-linejoin="round"/>
<path d="M35 26.35C35.1878 26.35 35.3664 26.4312 35.4899 26.5728C35.6133 26.7143 35.6695 26.9023 35.644 27.0884C35.2665 29.8381 33.208 32.2333 30.3225 33.9196C27.4233 35.6139 23.6031 36.65 19.5 36.65C15.3969 36.65 11.5767 35.6139 8.67749 33.9196C5.79201 32.2333 3.73345 29.8381 3.35604 27.0884C3.3305 26.9023 3.38669 26.7143 3.51013 26.5728C3.63357 26.4312 3.81219 26.35 4 26.35H35Z" stroke="#333333" stroke-width="1.3" stroke-linejoin="round"/>
</svg>
