<svg width="41" height="40" viewBox="0 0 41 40" fill="none" xmlns="http://www.w3.org/2000/svg">
<path d="M16.8895 21.2481C16.9537 20.8949 16.7195 20.5565 16.3663 20.4923C16.0131 20.4281 15.6747 20.6624 15.6105 21.0156L16.8895 21.2481ZM15.25 26.6318L15.5757 27.1944L15.8358 27.0438L15.8895 26.7481L15.25 26.6318ZM8.46642 30.5592L8.79209 31.1217H8.79209L8.46642 30.5592ZM11.0617 36.9109L11.2232 37.5405H11.2232L11.0617 36.9109ZM27.9114 33.2615C28.2592 33.1723 28.4688 32.8181 28.3796 32.4704C28.2905 32.1227 27.9363 31.913 27.5886 32.0022L27.9114 33.2615ZM7.04886 34.9893L6.45712 35.2583L7.04886 34.9893ZM24.3895 21.0156C24.3253 20.6624 23.9869 20.4281 23.6337 20.4923C23.2805 20.5565 23.0463 20.8949 23.1105 21.2481L24.3895 21.0156ZM24.75 26.6318L24.1105 26.7481L24.1642 27.0438L24.4243 27.1944L24.75 26.6318ZM31.5507 30.5691L31.2251 31.1316L31.5507 30.5691ZM28.9287 36.8693L28.7591 37.4968L28.9287 36.8693ZM20.4196 33.8962C20.073 33.8026 19.7162 34.0076 19.6225 34.3541C19.5289 34.7007 19.7339 35.0576 20.0804 35.1512L20.4196 33.8962ZM32.9594 34.9713L32.3676 34.7023L32.9594 34.9713ZM11.079 32.5047C10.7326 32.5992 10.5284 32.9565 10.6229 33.3029C10.7174 33.6492 11.0747 33.8534 11.421 33.7589L11.079 32.5047ZM22.25 30.1318L22.506 29.5344C22.3711 29.4766 22.2206 29.4661 22.079 29.5047L22.25 30.1318ZM28.994 33.7293C29.3239 33.8707 29.706 33.7178 29.8474 33.3879C29.9889 33.0579 29.836 32.6758 29.506 32.5344L28.994 33.7293ZM5.36 28.1118C5.07281 28.3272 5.01461 28.7346 5.23 29.0218C5.44539 29.309 5.85281 29.3672 6.14 29.1518L5.36 28.1118ZM18.25 14.6318L18.4175 15.2599C18.702 15.184 18.9 14.9263 18.9 14.6318H18.25ZM18.9 12.6318C18.9 12.2729 18.609 11.9818 18.25 11.9818C17.891 11.9818 17.6 12.2729 17.6 12.6318H18.9ZM34.36 29.1518C34.6472 29.3672 35.0546 29.309 35.27 29.0218C35.4854 28.7346 35.4272 28.3272 35.14 28.1118L34.36 29.1518ZM22.25 14.6318H21.6C21.6 14.9263 21.798 15.184 22.0825 15.2599L22.25 14.6318ZM22.9 12.6318C22.9 12.2729 22.609 11.9818 22.25 11.9818C21.891 11.9818 21.6 12.2729 21.6 12.6318H22.9ZM15.6105 21.0156L14.6105 26.5156L15.8895 26.7481L16.8895 21.2481L15.6105 21.0156ZM14.9243 26.0693L8.14074 29.9966L8.79209 31.1217L15.5757 27.1944L14.9243 26.0693ZM11.2232 37.5405L27.9114 33.2615L27.5886 32.0022L10.9003 36.2812L11.2232 37.5405ZM6.45712 35.2583C7.2824 37.0739 9.29129 38.0359 11.2232 37.5405L10.9003 36.2812C9.579 36.62 8.20504 35.9621 7.64059 34.7203L6.45712 35.2583ZM8.14075 29.9966C6.30994 31.0566 5.58172 33.3324 6.45712 35.2583L7.64059 34.7203C7.04187 33.4032 7.53993 31.8466 8.79209 31.1217L8.14075 29.9966ZM23.1105 21.2481L24.1105 26.7481L25.3895 26.5156L24.3895 21.0156L23.1105 21.2481ZM24.4243 27.1944L31.2251 31.1316L31.8764 30.0066L25.0757 26.0693L24.4243 27.1944ZM29.0983 36.2418L20.4196 33.8962L20.0804 35.1512L28.7591 37.4968L29.0983 36.2418ZM32.3676 34.7023C31.8019 35.9468 30.418 36.5985 29.0983 36.2418L28.7591 37.4968C30.6935 38.0196 32.7219 37.0644 33.5511 35.2402L32.3676 34.7023ZM31.2251 31.1316C32.4675 31.8509 32.9617 33.3954 32.3676 34.7023L33.5511 35.2402C34.4218 33.3246 33.6975 31.0609 31.8764 30.0066L31.2251 31.1316ZM11.421 33.7589L22.421 30.7589L22.079 29.5047L11.079 32.5047L11.421 33.7589ZM21.994 30.7293L28.994 33.7293L29.506 32.5344L22.506 29.5344L21.994 30.7293ZM6.14 29.1518C9.28463 26.7934 10.608 23.6232 12.0107 21.0009C13.4213 18.3635 14.9324 16.1892 18.4175 15.2599L18.0825 14.0038C14.0676 15.0744 12.3287 17.6501 10.8643 20.3878C9.39196 23.1405 8.21537 25.9703 5.36 28.1118L6.14 29.1518ZM18.9 14.6318V12.6318H17.6V14.6318H18.9ZM35.14 28.1118C32.2846 25.9703 31.108 23.1405 29.6357 20.3878C28.1713 17.6501 26.4324 15.0744 22.4175 14.0038L22.0825 15.2599C25.5676 16.1892 27.0787 18.3635 28.4893 21.0009C29.892 23.6232 31.2154 26.7934 34.36 29.1518L35.14 28.1118ZM22.9 14.6318V12.6318H21.6V14.6318H22.9Z" fill="#00BC00"/>
<rect x="17.1985" y="4.104" width="5.96329" height="8.5289" rx="2.98165" transform="rotate(-1 17.1985 4.104)" stroke="#00BC00" stroke-width="1.3" stroke-linecap="round" stroke-linejoin="round"/>
</svg>
