<svg xmlns="http://www.w3.org/2000/svg" width="114" height="14" viewBox="0 0 114 14" fill="none">
  <path fill-rule="evenodd" clip-rule="evenodd" d="M1.14663 0.612297H6.48615C6.65616 0.612297 6.79391 0.75609 6.79391 0.933559V2.79939C7.38921 2.22368 9.21966 0.335938 12.9251 0.335938H13.0575C17.4904 0.335938 18.8799 3.07575 18.8799 5.03272V12.677C18.8799 12.8545 18.7421 12.9982 18.5721 12.9982H13.1663C12.9965 12.9982 12.8588 12.8545 12.8588 12.677V7.08137C12.8588 5.42374 12.043 4.22663 9.99188 4.22663C7.96275 4.22663 6.83795 5.49296 6.83795 7.2428V12.677C6.83795 12.8545 6.69994 12.9982 6.53019 12.9982H1.14663C0.976618 12.9982 0.838867 12.8545 0.838867 12.677V0.933559C0.838867 0.75609 0.976618 0.612297 1.14663 0.612297Z" fill="#333333"/>
  <path fill-rule="evenodd" clip-rule="evenodd" d="M31.2292 7.15151L27.2595 7.88811C26.2228 8.07253 25.8039 8.32564 25.8039 8.94731V8.97056C25.8039 9.54574 26.2008 10.2366 27.6786 10.2366C29.8839 10.2366 31.2292 8.97056 31.2292 7.68124V7.15151ZM25.7815 13.2292H25.5387C21.5688 13.2292 20.0469 11.2724 20.0469 9.24652V8.97043C20.0469 6.898 21.3263 5.6779 24.8548 5.37882L30.5674 4.84935C31.0746 4.78013 31.2288 4.59598 31.2288 4.25093C31.2288 3.79015 30.9863 3.30692 28.6486 3.30692H28.5603C26.4784 3.30692 26.0608 3.89626 25.9415 4.32389C25.9008 4.46956 25.7781 4.57299 25.6327 4.57299H20.3339V4.43454C20.3339 2.77745 20.8191 0.291016 27.9427 0.291016H29.1779C36.5883 0.291016 37.0955 2.59277 37.0955 4.27365V8.85497C37.0955 9.20055 37.1838 9.3847 37.603 9.3847H37.9228C38.0992 9.3847 38.2426 9.53411 38.2426 9.71826V12.6655C38.2426 12.8496 38.0992 12.999 37.9228 12.999H33.2579C32.3927 12.999 31.758 12.5981 31.4689 11.8364C31.3875 11.6212 31.1415 11.5437 30.9686 11.6891C30.2046 12.3341 28.6668 13.2292 25.7815 13.2292Z" fill="#333333"/>
  <path fill-rule="evenodd" clip-rule="evenodd" d="M37.6154 0.613281H43.3262C43.4527 0.613281 43.5671 0.692394 43.6163 0.81427L46.7991 8.67102L49.8291 0.819349C49.8775 0.695067 49.9933 0.613281 50.1218 0.613281H55.5722C55.8016 0.613281 55.9542 0.861043 55.8592 1.07887L50.743 12.8065C50.6915 12.9239 50.5796 12.9992 50.4559 12.9992H42.9406C42.8187 12.9992 42.7078 12.926 42.6558 12.8111L37.3307 1.08341C37.2313 0.865052 37.3839 0.613281 37.6154 0.613281Z" fill="#333333"/>
  <path fill-rule="evenodd" clip-rule="evenodd" d="M61.4864 5.17113H68.3228C68.0806 3.99727 67.1765 3.30664 64.9046 3.30664C62.6332 3.30664 61.7727 4.06622 61.4864 5.17113ZM74.2775 8.53272C74.2775 10.2596 73.2625 13.3442 65.5218 13.3442H64.3525C57.0527 13.3442 55.5308 9.86801 55.5308 6.96704V6.50679C55.5308 3.65179 56.9423 0.267578 64.2864 0.267578H65.4995C73.2407 0.267578 74.3215 4.04334 74.3215 7.01301V7.37917C74.3215 7.55851 74.1822 7.70391 74.0104 7.70391H61.4192C61.5962 8.99296 62.6109 9.98294 65.0143 9.98294H65.0361C67.4163 9.98294 68.1142 9.12927 68.3047 8.68827C68.3565 8.568 68.4658 8.48648 68.5923 8.48648H74.2378C74.2721 8.48648 74.2775 8.53272 74.2775 8.53272Z" fill="#333333"/>
  <path fill-rule="evenodd" clip-rule="evenodd" d="M75.8875 0.612297H81.2224C81.3937 0.612297 81.5324 0.757159 81.5324 0.935965V2.79939C82.1277 2.22368 83.9582 0.335938 87.6634 0.335938H87.796C92.2286 0.335938 93.6182 3.07575 93.6182 5.03272V12.6743C93.6182 12.8531 93.4791 12.9982 93.3079 12.9982H87.9074C87.7361 12.9982 87.5973 12.8531 87.5973 12.6743V7.08137C87.5973 5.42374 86.7813 4.22663 84.7299 4.22663C82.701 4.22663 81.5765 5.49296 81.5765 7.2428V12.6743C81.5765 12.8531 81.4377 12.9982 81.2664 12.9982H75.8875C75.7162 12.9982 75.5771 12.8531 75.5771 12.6743V0.935965C75.5771 0.757159 75.7162 0.612297 75.8875 0.612297Z" fill="#333333"/>
  <path fill-rule="evenodd" clip-rule="evenodd" d="M112.801 12.9992H107.471C107.298 12.9992 107.159 12.8536 107.159 12.6734V10.7892C106.585 11.3876 104.776 13.2753 101.137 13.2753H100.983C96.5719 13.2753 95.2925 10.4438 95.2925 8.44063V0.939087C95.2925 0.759212 95.4323 0.613281 95.6049 0.613281H101.002C101.174 0.613281 101.314 0.759212 101.314 0.939087V6.5299C101.314 8.1183 102.042 9.3849 104.048 9.3849C106.055 9.3849 107.137 8.04961 107.137 6.36873V0.939087C107.137 0.759212 107.276 0.613281 107.449 0.613281H112.801C112.974 0.613281 113.113 0.759212 113.113 0.939087V12.6734C113.113 12.8536 112.974 12.9992 112.801 12.9992Z" fill="#333333"/>
</svg>