<svg width="59" height="36" viewBox="0 0 59 36" fill="none" xmlns="http://www.w3.org/2000/svg">
<path d="M47.9914 7.54095C47.5414 7.54095 47.2812 7.78684 47.2812 8.18026V18.0649C47.2812 21.1631 45.1505 23.622 41.1427 23.622C37.6423 23.622 36.1204 21.8024 35.7653 19.3927V15.6061C35.7653 12.0653 33.0258 7 24.2494 7H23.9957C16.6397 7 13.0378 10.4916 11.8203 11.5243V8.22944C11.8203 7.83602 11.5159 7.54095 11.1101 7.54095H0.710232C0.304385 7.49177 0 7.83602 0 8.22944V29.6216C0 30.015 0.304385 30.3101 0.710232 30.3101H11.1608C11.5666 30.3101 11.871 30.015 11.871 29.6216V19.737C11.871 16.4912 14.1032 14.1799 18.1109 14.1799C21.7635 14.1799 23.3869 15.9503 23.742 18.5075V21.9499C23.742 25.6383 26.2786 30.8511 35.0043 30.8511H35.3087C42.5125 30.8511 46.1144 27.3595 47.2304 26.2776V29.6216C47.2304 30.015 47.5348 30.3101 47.9407 30.3101H58.2898C58.6956 30.3101 59 30.015 59 29.6216V8.22944C59 7.83602 58.6956 7.54095 58.2898 7.54095H47.9914Z" fill="#333333"/>
</svg>
