<svg width="35" height="35" viewBox="0 0 35 35" fill="none" xmlns="http://www.w3.org/2000/svg">
<g filter="url(#filter0_d)">
<mask id="path-1-outside-1" maskUnits="userSpaceOnUse" x="-0.473004" y="-1.89425" width="39.598" height="39.598" fill="black">
<rect fill="white" x="-0.473004" y="-1.89425" width="39.598" height="39.598"/>
<path d="M23.1898 21.7545C19.2885 25.6559 13.0463 25.7391 9.24761 21.9404C5.4489 18.1417 5.53213 11.8996 9.4335 7.99823C13.3349 4.09686 19.577 4.01363 23.3757 7.81233C27.1744 11.611 27.0912 17.8532 23.1898 21.7545Z"/>
</mask>
<path d="M23.1898 21.7545C19.2885 25.6559 13.0463 25.7391 9.24761 21.9404C5.4489 18.1417 5.53213 11.8996 9.4335 7.99823C13.3349 4.09686 19.577 4.01363 23.3757 7.81233C27.1744 11.611 27.0912 17.8532 23.1898 21.7545Z" fill="white"/>
<path d="M28.7944 28.7733C29.1849 29.1638 29.8181 29.1638 30.2086 28.7733C30.5991 28.3828 30.5991 27.7496 30.2086 27.3591L28.7944 28.7733ZM22.4827 22.4617L28.7944 28.7733L30.2086 27.3591L23.8969 21.0474L22.4827 22.4617ZM21.7756 20.3403C18.6195 23.4964 13.6442 23.5086 10.6618 20.5262L7.83339 23.3547C12.4485 27.9697 19.9574 27.8154 24.604 23.1688L21.7756 20.3403ZM10.6618 20.5262C7.67948 17.5439 7.69161 12.5686 10.8477 9.41244L8.01929 6.58402C3.37266 11.2306 3.21833 18.7396 7.83339 23.3547L10.6618 20.5262ZM10.8477 9.41244C14.0038 6.25633 18.9792 6.24421 21.9615 9.22655L24.7899 6.39812C20.1749 1.78305 12.6659 1.93739 8.01929 6.58402L10.8477 9.41244ZM21.9615 9.22655C24.9438 12.2089 24.9317 17.1842 21.7756 20.3403L24.604 23.1688C29.2507 18.5221 29.405 11.0132 24.7899 6.39812L21.9615 9.22655Z" fill="#333333" mask="url(#path-1-outside-1)"/>
</g>
<defs>
<filter id="filter0_d" x="0.452034" y="0.0167542" width="34.0495" height="34.0495" filterUnits="userSpaceOnUse" color-interpolation-filters="sRGB">
<feFlood flood-opacity="0" result="BackgroundImageFix"/>
<feColorMatrix in="SourceAlpha" type="matrix" values="0 0 0 0 0 0 0 0 0 0 0 0 0 0 0 0 0 0 127 0"/>
<feOffset dy="1"/>
<feGaussianBlur stdDeviation="2"/>
<feColorMatrix type="matrix" values="0 0 0 0 0 0 0 0 0 0 0 0 0 0 0 0 0 0 0.25 0"/>
<feBlend mode="normal" in2="BackgroundImageFix" result="effect1_dropShadow"/>
<feBlend mode="normal" in="SourceGraphic" in2="effect1_dropShadow" result="shape"/>
</filter>
</defs>
</svg>
