<svg width="27" height="27" viewBox="0 0 27 27" fill="none" xmlns="http://www.w3.org/2000/svg">
<mask id="path-1-outside-1" maskUnits="userSpaceOnUse" x="-4.473" y="-4.89422" width="39.598" height="39.598" fill="black">
<rect fill="white" x="-4.473" y="-4.89422" width="39.598" height="39.598"/>
<path d="M19.1898 18.7546C15.2885 22.6559 9.04631 22.7392 5.24761 18.9405C1.4489 15.1418 1.53213 8.89963 5.4335 4.99826C9.33487 1.09689 15.577 1.01366 19.3757 4.81236C23.1744 8.61107 23.0912 14.8532 19.1898 18.7546Z"/>
</mask>
<path d="M19.1898 18.7546C15.2885 22.6559 9.04631 22.7392 5.24761 18.9405C1.4489 15.1418 1.53213 8.89963 5.4335 4.99826C9.33487 1.09689 15.577 1.01366 19.3757 4.81236C23.1744 8.61107 23.0912 14.8532 19.1898 18.7546Z" fill="white"/>
<path d="M24.7944 25.7734C25.1849 26.1639 25.8181 26.1639 26.2086 25.7734C26.5991 25.3828 26.5991 24.7497 26.2086 24.3591L24.7944 25.7734ZM18.4827 19.4617L24.7944 25.7734L26.2086 24.3591L19.8969 18.0475L18.4827 19.4617ZM17.7756 17.3404C14.6195 20.4965 9.64416 20.5086 6.66182 17.5263L3.83339 20.3547C8.44846 24.9698 15.9574 24.8154 20.604 20.1688L17.7756 17.3404ZM6.66182 17.5263C3.67948 14.5439 3.69161 9.56858 6.84772 6.41247L4.01929 3.58405C-0.627339 8.23067 -0.781673 15.7396 3.83339 20.3547L6.66182 17.5263ZM6.84772 6.41247C10.0038 3.25636 14.9792 3.24424 17.9615 6.22658L20.7899 3.39815C16.1749 -1.21692 8.66592 -1.06258 4.01929 3.58405L6.84772 6.41247ZM17.9615 6.22658C20.9438 9.20892 20.9317 14.1843 17.7756 17.3404L20.604 20.1688C25.2507 15.5222 25.405 8.01322 20.7899 3.39815L17.9615 6.22658Z" fill="#333333" mask="url(#path-1-outside-1)"/>
</svg>
