<svg width="19" height="27" viewBox="0 0 19 27" fill="none" xmlns="http://www.w3.org/2000/svg">
<circle cx="9.35359" cy="7.99397" r="6.30769" fill="white" stroke="#333333" stroke-width="2"/>
<path d="M17.7938 25.0297C17.8457 25.2747 17.776 25.4926 17.6081 25.6718C17.4302 25.8616 17.1423 26 16.8065 26H9.5L2.19354 26C1.85767 26 1.56975 25.8616 1.39191 25.6718C1.22399 25.4926 1.15429 25.2747 1.20622 25.0297C1.30733 24.5528 1.44477 24.0863 1.61667 23.635C2.04422 22.5123 2.68435 21.4841 3.50749 20.6177C5.10597 18.9351 7.26269 18 9.5 18C11.7373 18 13.894 18.9351 15.4925 20.6177C16.6468 21.8327 17.441 23.3657 17.7938 25.0297Z" fill="white" stroke="#333333" stroke-width="2" stroke-linecap="round" stroke-linejoin="round"/>
</svg>
