<svg width="23" height="25" viewBox="0 0 23 25" fill="none" xmlns="http://www.w3.org/2000/svg">
<path d="M22 6.34884V23C22 23.5523 21.5523 24 21 24H2C1.44772 24 1 23.5523 1 23V2C1 1.44772 1.44771 1 2 1H17.3333M22 6.34884L17.3333 1M22 6.34884H18.3333C17.781 6.34884 17.3333 5.90112 17.3333 5.34884V1M15 3.67442H4.33333C3.78105 3.67442 3.33333 4.12213 3.33333 4.67442V10.6977C3.33333 11.25 3.78105 11.6977 4.33333 11.6977H18.6667C19.219 11.6977 19.6667 11.25 19.6667 10.6977V7.95349M3.33333 14.3721H19.6667M3.33333 16.5116H11.5M13.8333 16.5116H19.6667M3.33333 18.6512H19.6667M19.6667 20.7907H8M6.25 20.7907H3.33333" stroke="#333333" stroke-linecap="round"/>
</svg>
