<svg width="29" height="27" viewBox="0 0 29 27" fill="none" xmlns="http://www.w3.org/2000/svg">
<path d="M19.75 10.7656C20.1406 12.7187 19.8819 16.625 14.5694 18.1875M21.8889 12.1179C21.8889 16.3166 18.6119 19.7203 14.5694 19.7203C10.527 19.7203 7.25 16.3166 7.25 12.1179C7.25 6.46874 14.5694 1 14.5694 1C14.5694 1 21.8889 6.85937 21.8889 12.1179Z" stroke="#333333" stroke-linecap="round" stroke-linejoin="round"/>
<path d="M14.2812 22.8749C9.10357 22.8749 4.90625 21.3009 4.90625 19.3592C4.90625 18.5198 5.69083 17.7491 7 17.1445M22 17.3634C23.0445 17.9303 23.6562 18.618 23.6562 19.3592C23.6562 20.8768 21.0922 22.1698 17.5 22.6622" stroke="#333333" stroke-linecap="round"/>
<path d="M5 15.2794C2.532 16.4142 1 17.9979 1 19.75C1 23.2017 6.94621 25.9999 14.2812 25.9999C21.6162 25.9999 27.5625 23.2017 27.5625 19.75C27.5625 17.8684 25.7956 16.181 23 15.0352" stroke="#333333" stroke-linecap="round"/>
</svg>
