<svg width="31" height="31" viewBox="0 0 31 31" fill="none" xmlns="http://www.w3.org/2000/svg">
<path d="M0 15.0714C0 6.74771 6.74771 0 15.0714 0C23.3952 0 30.1429 6.74771 30.1429 15.0714C30.1429 23.3952 23.3952 30.1429 15.0714 30.1429C6.74771 30.1429 0 23.3952 0 15.0714Z" fill="#C849D9"/>
<path fill-rule="evenodd" clip-rule="evenodd" d="M22.1966 10.8511L15.0001 19.1379L7.80371 10.8511H22.1966Z" stroke="white" stroke-width="0.719643" stroke-linecap="round" stroke-linejoin="round"/>
<path d="M14.9983 18.9203V23.9355" stroke="white" stroke-width="0.719643" stroke-linecap="round" stroke-linejoin="round"/>
<path fill-rule="evenodd" clip-rule="evenodd" d="M19.2151 6.14288C18.658 6.14288 18.122 6.45369 17.8627 6.98672C17.5009 7.73046 17.8127 8.63035 18.5569 8.99221C18.7676 9.09481 18.9914 9.14336 19.2116 9.14336C19.7681 9.14336 20.3042 8.83305 20.5634 8.30002C20.9253 7.55579 20.6135 6.65539 19.8692 6.29353C19.658 6.19143 19.4348 6.14288 19.2151 6.14288ZM19.2151 6.64338C19.3662 6.64338 19.5129 6.67691 19.65 6.74398C20.1465 6.98522 20.3542 7.58481 20.113 8.08131C19.9473 8.42265 19.5935 8.64286 19.2116 8.64286C19.0599 8.64286 18.9133 8.60933 18.7756 8.54226C18.2797 8.30103 18.0719 7.70143 18.3127 7.20594C18.4789 6.8641 18.8332 6.64338 19.2151 6.64338Z" fill="white"/>
<path d="M18.6688 8.76813L16.0427 14.1695" stroke="white" stroke-width="0.553571" stroke-linecap="round" stroke-linejoin="round"/>
<path d="M11.729 23.9355H18.1579" stroke="white" stroke-width="0.719643" stroke-linecap="round" stroke-linejoin="round"/>
</svg>
