<svg width="31" height="31" viewBox="0 0 31 31" fill="none" xmlns="http://www.w3.org/2000/svg">
<path d="M0 15.0714C0 6.74771 6.74771 0 15.0714 0C23.3952 0 30.1429 6.74771 30.1429 15.0714C30.1429 23.3952 23.3952 30.1429 15.0714 30.1429C6.74771 30.1429 0 23.3952 0 15.0714Z" fill="#007CFF"/>
<path fill-rule="evenodd" clip-rule="evenodd" d="M10.9934 21.6429H18.7434V19.4286H10.9934V21.6429Z" stroke="white" stroke-width="0.553571" stroke-linecap="round" stroke-linejoin="round"/>
<path d="M19.68 24.0255C19.8787 24.0255 20.0398 23.8644 20.0398 23.6657V12.0952C20.0398 10.2354 19.441 8.80627 18.4708 7.84144C17.503 6.87907 16.1951 6.40806 14.8299 6.40806C12.094 6.40806 9.72953 8.4799 9.72953 11.2051C9.72953 11.4039 9.89063 11.565 10.0894 11.565H12.3728C12.5716 11.565 12.7327 11.4039 12.7327 11.2051C12.7327 10.3722 12.9454 9.9403 13.2315 9.70139C13.5318 9.45052 13.9956 9.33994 14.6563 9.33994C15.2721 9.33994 15.737 9.51738 16.0507 9.8484C16.3669 10.1821 16.58 10.7248 16.58 11.5568C16.58 12.8328 16.253 13.6513 15.8142 14.1463C15.3781 14.6383 14.7967 14.8506 14.1996 14.8506H12.8295C11.0618 14.8506 9.72953 16.4818 9.72953 18.4073V23.6657C9.72953 23.8644 9.89063 24.0255 10.0894 24.0255H19.68Z" stroke="white" stroke-width="0.719643" stroke-linecap="round" stroke-linejoin="round"/>
</svg>
