<svg width="31" height="31" viewBox="0 0 31 31" fill="none" xmlns="http://www.w3.org/2000/svg">
<path d="M0 15.0714C0 6.74771 6.74771 0 15.0714 0C23.3952 0 30.1429 6.74771 30.1429 15.0714C30.1429 23.3952 23.3952 30.1429 15.0714 30.1429C6.74771 30.1429 0 23.3952 0 15.0714Z" fill="#FF6800"/>
<path d="M23.3035 11.4849C23.4086 11.4849 23.5083 11.439 23.5767 11.3593C23.6451 11.2795 23.6752 11.1739 23.6591 11.0701C23.4453 9.68555 22.2868 8.50204 20.6985 7.67701C19.0965 6.8448 16.9874 6.33665 14.7232 6.33665C12.4589 6.33665 10.3499 6.8448 8.74783 7.67701C7.15959 8.50204 6.00101 9.68555 5.78722 11.0701C5.77119 11.1739 5.80131 11.2795 5.86967 11.3593C5.93802 11.439 6.0378 11.4849 6.14282 11.4849H23.3035Z" stroke="#333333" stroke-width="0.719643" stroke-linejoin="round"/>
<path d="M24.4108 13.3394C23.7776 13.3394 23.3944 14.0882 22.989 14.8815C22.5422 15.7566 22.08 16.6608 21.2741 16.6608C20.4688 16.6608 20.0066 15.7566 19.5586 14.8815C19.1537 14.0882 18.7705 13.3394 18.1374 13.3394C17.5042 13.3394 17.121 14.0882 16.7156 14.8815C16.2688 15.7566 15.8054 16.6608 15.0001 16.6608C14.1948 16.6608 13.7319 15.7566 13.2845 14.8815C12.8797 14.0882 12.4965 13.3394 11.8634 13.3394C11.2308 13.3394 10.847 14.0882 10.4416 14.8815C9.99542 15.7566 9.5326 16.6608 8.72667 16.6608C7.92074 16.6608 7.45854 15.7566 7.01114 14.8815C6.60571 14.0882 6.22311 13.3394 5.58936 13.3394" stroke="#333333" stroke-width="0.719643" stroke-linecap="round" stroke-linejoin="round"/>
<path d="M21.6429 18.8751L18.875 21.6429L16.1072 18.8751" stroke="#333333" stroke-width="0.553571" stroke-linecap="round" stroke-linejoin="round"/>
<path d="M23.3035 18.5152C23.4075 18.5152 23.5064 18.5602 23.5747 18.6385C23.6431 18.7169 23.6742 18.821 23.66 18.924C23.4511 20.4461 22.3115 21.772 20.7142 22.7055C19.1093 23.6434 16.9946 24.217 14.7232 24.217C12.4518 24.217 10.3371 23.6434 8.73215 22.7055C7.13483 21.772 5.99527 20.4461 5.78634 18.924C5.77221 18.821 5.80331 18.7169 5.87164 18.6385C5.93998 18.5602 6.03886 18.5152 6.14282 18.5152H23.3035Z" stroke="#333333" stroke-width="0.719643" stroke-linejoin="round"/>
</svg>
