<svg width="31" height="31" viewBox="0 0 31 31" fill="none" xmlns="http://www.w3.org/2000/svg">
<path d="M0 15.0714C0 6.74771 6.74771 0 15.0714 0C23.3952 0 30.1429 6.74771 30.1429 15.0714C30.1429 23.3952 23.3952 30.1429 15.0714 30.1429C6.74771 30.1429 0 23.3952 0 15.0714Z" fill="#00BC00"/>
<path d="M12.9341 15.7623C12.9696 15.5668 12.84 15.3794 12.6444 15.3439C12.4489 15.3083 12.2616 15.438 12.2261 15.6335L12.9341 15.7623ZM12.0265 18.7426L12.2068 19.054L12.3508 18.9706L12.3805 18.8069L12.0265 18.7426ZM8.27131 20.9166L8.45159 21.228H8.45159L8.27131 20.9166ZM9.708 24.4327L9.79738 24.7813L9.708 24.4327ZM19.0355 22.4125C19.228 22.3632 19.3441 22.1671 19.2947 21.9746C19.2453 21.7821 19.0493 21.6661 18.8568 21.7154L19.0355 22.4125ZM7.48659 23.369L7.15902 23.5179H7.15902L7.48659 23.369ZM17.0859 15.6335C17.0503 15.438 16.863 15.3083 16.6675 15.3439C16.472 15.3794 16.3423 15.5668 16.3778 15.7623L17.0859 15.6335ZM17.2854 18.7426L16.9314 18.8069L16.9612 18.9706L17.1052 19.054L17.2854 18.7426ZM21.0501 20.9221L20.8699 21.2335L21.0501 20.9221ZM19.5986 24.4097L19.5048 24.7571L19.5986 24.4097ZM14.8882 22.7639C14.6964 22.7121 14.4989 22.8256 14.447 23.0174C14.3952 23.2092 14.5086 23.4068 14.7005 23.4586L14.8882 22.7639ZM21.8299 23.359L21.5023 23.2101L21.8299 23.359ZM9.71755 21.9936C9.52582 22.0459 9.41279 22.2437 9.46508 22.4354C9.51737 22.6272 9.71517 22.7402 9.9069 22.6879L9.71755 21.9936ZM15.9015 20.6801L16.0432 20.3493C15.9686 20.3173 15.8852 20.3115 15.8068 20.3329L15.9015 20.6801ZM19.6348 22.6715C19.8174 22.7498 20.029 22.6652 20.1072 22.4825C20.1855 22.2999 20.1009 22.0883 19.9182 22.01L19.6348 22.6715ZM6.55169 19.5618C6.39271 19.6811 6.36049 19.9066 6.47972 20.0656C6.59896 20.2246 6.82449 20.2568 6.98347 20.1376L6.55169 19.5618ZM13.6872 12.0997L13.7799 12.4474C13.9374 12.4054 14.047 12.2627 14.047 12.0997H13.6872ZM14.047 10.9926C14.047 10.7938 13.8859 10.6327 13.6872 10.6327C13.4885 10.6327 13.3274 10.7938 13.3274 10.9926H14.047ZM22.6053 20.1376C22.7642 20.2568 22.9898 20.2246 23.109 20.0656C23.2282 19.9066 23.196 19.6811 23.037 19.5618L22.6053 20.1376ZM15.9015 12.0997H15.5417C15.5417 12.2627 15.6513 12.4054 15.8088 12.4474L15.9015 12.0997ZM16.2613 10.9926C16.2613 10.7938 16.1002 10.6327 15.9015 10.6327C15.7028 10.6327 15.5417 10.7938 15.5417 10.9926H16.2613ZM12.2261 15.6335L11.6725 18.6782L12.3805 18.8069L12.9341 15.7623L12.2261 15.6335ZM11.8462 18.4312L8.09103 20.6052L8.45159 21.228L12.2068 19.054L11.8462 18.4312ZM9.79738 24.7813L19.0355 22.4125L18.8568 21.7154L9.61863 24.0842L9.79738 24.7813ZM7.15902 23.5179C7.61587 24.523 8.72794 25.0555 9.79738 24.7813L9.61863 24.0842C8.8872 24.2717 8.12662 23.9075 7.81416 23.2201L7.15902 23.5179ZM8.09103 20.6052C7.07755 21.192 6.67442 22.4518 7.15902 23.5179L7.81416 23.2201C7.48272 22.491 7.75843 21.6293 8.45159 21.228L8.09103 20.6052ZM16.3778 15.7623L16.9314 18.8069L17.6395 18.6782L17.0859 15.6335L16.3778 15.7623ZM17.1052 19.054L20.8699 21.2335L21.2304 20.6107L17.4657 18.4312L17.1052 19.054ZM19.6925 24.0624L14.8882 22.7639L14.7005 23.4586L19.5048 24.7571L19.6925 24.0624ZM21.5023 23.2101C21.1892 23.8991 20.4231 24.2598 19.6925 24.0624L19.5048 24.7571C20.5756 25.0465 21.6985 24.5177 22.1575 23.5079L21.5023 23.2101ZM20.8699 21.2335C21.5576 21.6317 21.8312 22.4866 21.5023 23.2101L22.1575 23.5079C22.6395 22.4475 22.2385 21.1943 21.2304 20.6107L20.8699 21.2335ZM9.9069 22.6879L15.9962 21.0272L15.8068 20.3329L9.71755 21.9936L9.9069 22.6879ZM15.7598 21.0108L19.6348 22.6715L19.9182 22.01L16.0432 20.3493L15.7598 21.0108ZM6.98347 20.1376C8.72425 18.832 9.45685 17.0771 10.2333 15.6254C11.0142 14.1655 11.8507 12.9618 13.7799 12.4474L13.5945 11.752C11.3719 12.3447 10.4093 13.7705 9.59873 15.286C8.78366 16.8098 8.13234 18.3764 6.55169 19.5618L6.98347 20.1376ZM14.047 12.0997V10.9926H13.3274V12.0997H14.047ZM23.037 19.5618C21.4564 18.3764 20.8051 16.8098 19.99 15.286C19.1794 13.7705 18.2168 12.3447 15.9942 11.752L15.8088 12.4474C17.738 12.9618 18.5745 14.1655 19.3554 15.6254C20.1319 17.0771 20.8645 18.832 22.6053 20.1376L23.037 19.5618ZM16.2613 12.0997V10.9926H15.5417V12.0997H16.2613Z" fill="white"/>
<rect x="13.105" y="6.27197" width="3.30111" height="4.72136" rx="1.65055" transform="rotate(-1 13.105 6.27197)" stroke="white" stroke-width="0.719643" stroke-linecap="round" stroke-linejoin="round"/>
</svg>
