<svg width="30" height="30" viewBox="0 0 30 30" fill="none" xmlns="http://www.w3.org/2000/svg">
<path d="M0 15C0 6.71573 6.71573 0 15 0V0C23.2843 0 30 6.71573 30 15V15C30 23.2843 23.2843 30 15 30V30C6.71573 30 0 23.2843 0 15V15Z" fill="black"/>
<g clip-path="url(#clip0)">
<path d="M21.1182 11.4008C20.9664 11.4008 20.8786 11.4837 20.8786 11.6164V14.9505C20.8786 15.9955 20.1599 16.8249 18.8081 16.8249C17.6274 16.8249 17.1141 16.2112 16.9943 15.3984V14.1212C16.9943 12.9268 16.0703 11.2183 13.11 11.2183H13.0244C10.5433 11.2183 9.32833 12.396 8.91766 12.7444V11.633C8.91766 11.5003 8.81499 11.4008 8.67809 11.4008H5.17023C5.03333 11.3842 4.93066 11.5003 4.93066 11.633V18.8486C4.93066 18.9813 5.03333 19.0808 5.17023 19.0808H8.69521C8.8321 19.0808 8.93477 18.9813 8.93477 18.8486V15.5145C8.93477 14.4197 9.68768 13.6401 11.0395 13.6401C12.2715 13.6401 12.8191 14.2373 12.9389 15.0998V16.2609C12.9389 17.505 13.7944 19.2633 16.7376 19.2633H16.8403C19.2701 19.2633 20.4851 18.0856 20.8615 17.7207V18.8486C20.8615 18.9813 20.9642 19.0808 21.1011 19.0808H24.5918C24.7287 19.0808 24.8314 18.9813 24.8314 18.8486V11.633C24.8314 11.5003 24.7287 11.4008 24.5918 11.4008H21.1182Z" fill="white"/>
</g>
<defs>
<clipPath id="clip0">
<rect width="19.9007" height="12.1428" fill="white" transform="translate(5.0498 8.92859)"/>
</clipPath>
</defs>
</svg>
