<svg width="31" height="31" viewBox="0 0 31 31" fill="none" xmlns="http://www.w3.org/2000/svg">
<path d="M0 15.0714C0 6.74771 6.74771 0 15.0714 0C23.3952 0 30.1429 6.74771 30.1429 15.0714C30.1429 23.3952 23.3952 30.1429 15.0714 30.1429C6.74771 30.1429 0 23.3952 0 15.0714Z" fill="#FF2894"/>
<path d="M10.8621 13.8172L10.8661 10.1401C10.8661 7.97203 12.5504 6.21436 14.6288 6.21436H15.2928C17.4934 6.21436 19.277 8.07521 19.277 10.3711L19.281 13.8172" stroke="white" stroke-width="0.719643" stroke-linecap="round" stroke-linejoin="round"/>
<path fill-rule="evenodd" clip-rule="evenodd" d="M13.1624 11.0142H22.8218V18.4957C22.8218 21.5951 20.6868 24.1071 18.0527 24.1071H12.0908C9.45673 24.1071 7.32178 21.5951 7.32178 18.4957V11.0142H10.916H13.1624Z" stroke="white" stroke-width="0.719643" stroke-linecap="round" stroke-linejoin="round"/>
<path fill-rule="evenodd" clip-rule="evenodd" d="M12.2424 22.6996C10.6259 22.6996 9.31128 21.0195 9.31128 18.9551V18.9402H21.0535V18.9551C21.0535 21.0195 19.739 22.6996 18.1225 22.6996H12.2424Z" stroke="white" stroke-width="0.553571" stroke-linecap="round" stroke-linejoin="round"/>
</svg>
