<svg width="73" height="73" viewBox="0 0 73 73" fill="none" xmlns="http://www.w3.org/2000/svg">
<rect width="73" height="73" rx="5" fill="#FFB607" fill-opacity="0.45"/>
<path fill-rule="evenodd" clip-rule="evenodd" d="M26.8767 16C27.2853 16 27.6164 16.3298 27.6164 16.7365V18.7006H44.8767V16.7365C44.8767 16.3298 45.2079 16 45.6164 16C46.025 16 46.3562 16.3298 46.3562 16.7365V18.7006H48.6896C51.6225 18.7006 54 21.0679 54 23.988V51.7126C54 54.6327 51.6225 57 48.6896 57H23.3104C20.3775 57 18 54.6327 18 51.7126V23.988C18 21.0679 20.3775 18.7006 23.3104 18.7006H26.137V16.7365C26.137 16.3298 26.4682 16 26.8767 16ZM26.137 20.1737H23.3104C21.1946 20.1737 19.4795 21.8814 19.4795 23.988V28.521H52.5205V23.988C52.5205 21.8814 50.8054 20.1737 48.6896 20.1737H46.3562V23.1198C46.3562 23.5265 46.025 23.8563 45.6164 23.8563C45.2079 23.8563 44.8767 23.5265 44.8767 23.1198V20.1737H27.6164V23.1198C27.6164 23.5265 27.2853 23.8563 26.8767 23.8563C26.4682 23.8563 26.137 23.5265 26.137 23.1198V20.1737ZM52.5205 29.994H19.4795V51.7126C19.4795 53.8192 21.1946 55.5269 23.3104 55.5269H48.6896C50.8054 55.5269 52.5205 53.8192 52.5205 51.7126V29.994ZM42.4198 35.5908C42.7199 35.8668 42.7384 36.3328 42.4611 36.6316L33.3486 46.4519C33.2085 46.6028 33.0116 46.6886 32.8052 46.6886C32.5989 46.6886 32.4019 46.6028 32.2619 46.4519L29.0457 42.9859C28.7685 42.6871 28.787 42.2212 29.0871 41.9451C29.3871 41.6691 29.8551 41.6875 30.1324 41.9863L32.8052 44.8668L41.3745 35.6319C41.6517 35.3331 42.1197 35.3147 42.4198 35.5908Z" fill="white"/>
</svg>
