<svg width="107" height="107" viewBox="0 0 107 107" fill="none" xmlns="http://www.w3.org/2000/svg">
<rect width="107" height="107" rx="5" fill="#FFB600"/>
<path fill-rule="evenodd" clip-rule="evenodd" d="M37.7945 19C38.4754 19 39.0274 19.555 39.0274 20.2395V23.5449H67.7945V20.2395C67.7945 19.555 68.3465 19 69.0274 19C69.7083 19 70.2603 19.555 70.2603 20.2395V23.5449H74.1493C79.0374 23.5449 83 27.5288 83 32.4433V79.1016C83 84.0161 79.0374 88 74.1493 88H31.8506C26.9626 88 23 84.0161 23 79.1016V32.4433C23 27.5288 26.9626 23.5449 31.8507 23.5449H36.5616V20.2395C36.5616 19.555 37.1136 19 37.7945 19ZM36.5616 26.024H31.8507C28.3244 26.024 25.4658 28.898 25.4658 32.4433V40.0719H80.5342V32.4433C80.5342 28.898 77.6756 26.024 74.1493 26.024H70.2603V30.982C70.2603 31.6666 69.7083 32.2216 69.0274 32.2216C68.3465 32.2216 67.7945 31.6666 67.7945 30.982V26.024H39.0274V30.982C39.0274 31.6666 38.4754 32.2216 37.7945 32.2216C37.1136 32.2216 36.5616 31.6666 36.5616 30.982V26.024ZM80.5342 42.5509H25.4658V79.1016C25.4658 82.6469 28.3244 85.521 31.8506 85.521H74.1493C77.6756 85.521 80.5342 82.6469 80.5342 79.1016V42.5509ZM63.6997 51.9698C64.1998 52.4344 64.2306 53.2186 63.7686 53.7214L48.5809 70.2483C48.3476 70.5023 48.0193 70.6467 47.6754 70.6467C47.3315 70.6467 47.0032 70.5023 46.7699 70.2483L41.4095 64.4153C40.9475 63.9125 40.9783 63.1283 41.4784 62.6637C41.9785 62.1992 42.7585 62.2302 43.2206 62.733L47.6754 67.5806L61.9575 52.0391C62.4195 51.5363 63.1995 51.5053 63.6997 51.9698Z" fill="white"/>
</svg>

