<svg width="107" height="107" viewBox="0 0 107 107" fill="none" xmlns="http://www.w3.org/2000/svg">
<rect width="107" height="107" rx="5" fill="#9747FF"/>
<path fill-rule="evenodd" clip-rule="evenodd" d="M64.4171 18.1822C65.7382 15.5358 68.4664 14 71.2926 14C72.4127 14 73.5485 14.2415 74.6188 14.7456L74.6218 14.747C78.4074 16.5404 79.9933 20.9999 78.1518 24.6901C76.8305 27.337 74.1018 28.8706 71.2782 28.8706C70.6969 28.8706 70.1106 28.8058 69.5315 28.6725L67.4178 32.8204H83.5238C84.102 32.8204 84.627 33.1493 84.8669 33.6619C85.1068 34.1746 85.0175 34.7764 84.6384 35.2018L55.4689 67.9295V85.1233H66.9548C67.7701 85.1233 68.431 85.7672 68.431 86.5616C68.431 87.356 67.7701 87.9999 66.9548 87.9999H54.0085C54.0032 88 53.998 88 53.9927 88C53.9874 88 53.9821 88 53.9769 87.9999H40.5799C39.7646 87.9999 39.1037 87.356 39.1037 86.5616C39.1037 85.7672 39.7646 85.1233 40.5799 85.1233H52.5165V67.9131L23.3616 35.2018C22.9825 34.7764 22.8932 34.1746 23.1331 33.6619C23.373 33.1493 23.898 32.8204 24.4762 32.8204H64.1215L66.842 27.4818C63.8698 25.4125 62.766 21.4887 64.4171 18.1822ZM70.3291 25.8987C70.193 25.6114 69.845 26.0503 69.5315 25.8987C69.1752 25.7263 68.896 25.0226 68.5444 25.1309C66.7337 23.8584 66.0647 21.4578 67.0719 19.4407C67.8781 17.8257 69.5482 16.8767 71.2926 16.8767C71.9747 16.8767 72.6699 17.0231 73.3321 17.3347C75.6521 18.4346 76.6241 21.1729 75.4967 23.4322C74.6907 25.0466 73.0211 25.9939 71.2782 25.9939C70.9625 25.9939 70.6445 25.9628 70.3291 25.8987ZM62.6556 35.6971H27.7133L53.9006 65.0788C53.9311 65.077 53.9618 65.076 53.9927 65.076C54.0283 65.076 54.0636 65.0773 54.0986 65.0797L80.2867 35.6971H65.9519L59.5993 48.1634C59.2367 48.8748 58.3508 49.1652 57.6206 48.812C56.8904 48.4587 56.5923 47.5956 56.9549 46.8841L62.6556 35.6971Z" fill="white"/>
</svg>
