<svg width="73" height="73" viewBox="0 0 73 73" fill="none" xmlns="http://www.w3.org/2000/svg">
<rect width="73" height="73" rx="5" fill="#9747FF" fill-opacity="0.45"/>
<path fill-rule="evenodd" clip-rule="evenodd" d="M42.3847 16.5997C43.1944 14.9547 44.8665 14 46.5987 14C47.2852 14 47.9813 14.1501 48.6373 14.4635L48.6392 14.4643C50.9594 15.5792 51.9314 18.3513 50.8027 20.6452C49.9929 22.2906 48.3205 23.2439 46.5899 23.2439C46.2336 23.2439 45.8742 23.2036 45.5193 23.1208L44.2238 25.6992H54.0952C54.4496 25.6992 54.7714 25.9036 54.9184 26.2223C55.0655 26.5409 55.0107 26.9151 54.7784 27.1795L36.9003 47.5237V58.2118H43.94C44.4397 58.2118 44.8448 58.6121 44.8448 59.1059C44.8448 59.5996 44.4397 60 43.94 60H36.0052C36.002 60 35.9988 60 35.9955 60C35.9923 60 35.989 60 35.9858 60H27.7748C27.2751 60 26.87 59.5996 26.87 59.1059C26.87 58.6121 27.2751 58.2118 27.7748 58.2118H35.0908V47.5135L17.2217 27.1795C16.9893 26.9151 16.9345 26.5409 17.0816 26.2223C17.2286 25.9036 17.5504 25.6992 17.9048 25.6992H42.2035L43.8709 22.3806C42.0492 21.0942 41.3727 18.6551 42.3847 16.5997ZM46.0082 21.3965C45.9248 21.2179 45.7114 21.4907 45.5193 21.3965C45.3009 21.2893 45.1298 20.8519 44.9143 20.9192C43.8045 20.1282 43.3945 18.636 44.0118 17.3821C44.5059 16.3782 45.5296 15.7882 46.5987 15.7882C47.0168 15.7882 47.4428 15.8792 47.8487 16.0729C49.2706 16.7566 49.8664 18.4588 49.1754 19.8633C48.6814 20.8668 47.6581 21.4557 46.5899 21.4557C46.3964 21.4557 46.2015 21.4363 46.0082 21.3965ZM41.3051 27.4874H19.8888L35.9391 45.7517C35.9578 45.7505 35.9766 45.75 35.9955 45.75C36.0173 45.75 36.039 45.7507 36.0604 45.7522L52.1112 27.4874H43.3254L39.4318 35.2367C39.2096 35.679 38.6666 35.8595 38.2191 35.6399C37.7715 35.4203 37.5889 34.8837 37.8111 34.4414L41.3051 27.4874Z" fill="white"/>
</svg>


