<svg width="73" height="73" viewBox="0 0 73 73" fill="none" xmlns="http://www.w3.org/2000/svg">
<rect width="73" height="73" rx="5" fill="#FF6800" fill-opacity="0.45"/>
<path fill-rule="evenodd" clip-rule="evenodd" d="M59.0861 29.9322C58.758 30.3053 58.2852 30.5192 57.7884 30.5192H15.4882C14.9914 30.5192 14.5186 30.3053 14.1905 29.9322C13.8625 29.5591 13.7109 29.0629 13.7745 28.5701C14.3269 24.2887 17.328 20.6297 21.406 18.0947C25.5089 15.5441 30.8853 14 36.6383 14C42.3913 14 47.7677 15.5441 51.8706 18.0947C55.9486 20.6297 58.9497 24.2887 59.5022 28.5701C59.5657 29.0629 59.4141 29.5591 59.0861 29.9322ZM15.8778 27.0633C17.9424 20.6813 26.612 15.7279 36.6383 15.7279C46.6646 15.7279 55.3343 20.6813 57.3988 27.0633C57.5818 27.6289 57.7129 28.2057 57.7884 28.7912H15.4882C15.5638 28.2057 15.6949 27.6289 15.8778 27.0633Z" fill="white"/>
<path d="M59.6546 35.0117C58.0852 35.0117 57.1353 36.2739 56.1303 37.6111C55.0228 39.0861 53.8771 40.6103 51.8794 40.6103C49.8832 40.6103 48.7374 39.0861 47.6269 37.6111C46.6235 36.2739 45.6735 35.0117 44.1041 35.0117C42.5347 35.0117 41.5848 36.2739 40.5798 37.6111C39.4723 39.0861 38.3235 40.6103 36.3273 40.6103C34.3311 40.6103 33.1839 39.0861 32.0749 37.6111C31.0714 36.2739 30.1215 35.0117 28.5521 35.0117C26.9842 35.0117 26.0327 36.2739 25.0277 37.6111C23.9218 39.0861 22.7745 40.6103 20.7768 40.6103C18.7791 40.6103 17.6333 39.0861 16.5243 37.6111C15.5194 36.2739 14.571 35.0117 13 35.0117" stroke="white" stroke-width="2" stroke-linecap="round" stroke-linejoin="round"/>
<path fill-rule="evenodd" clip-rule="evenodd" d="M38.7195 45.2253C38.9444 45.0004 39.3091 45.0004 39.534 45.2253L46.5915 52.2828L53.649 45.2253C53.8739 45.0004 54.2386 45.0004 54.4635 45.2253C54.6885 45.4503 54.6885 45.815 54.4635 46.0399L46.9988 53.5046C46.8908 53.6127 46.7443 53.6733 46.5915 53.6733C46.4387 53.6733 46.2922 53.6127 46.1842 53.5046L38.7195 46.0399C38.4945 45.815 38.4945 45.4503 38.7195 45.2253Z" fill="white"/>
<path fill-rule="evenodd" clip-rule="evenodd" d="M59.0861 45.0674C59.4141 45.4405 59.5657 45.9368 59.5022 46.4295C58.9497 50.711 55.9486 54.3699 51.8706 56.905C47.7677 59.4555 42.3913 60.9997 36.6383 60.9997C30.8853 60.9997 25.5089 59.4555 21.406 56.905C17.328 54.3699 14.3269 50.711 13.7745 46.4295C13.7109 45.9368 13.8625 45.4405 14.1905 45.0674C14.5186 44.6943 14.9914 44.4805 15.4882 44.4805H57.7884C58.2852 44.4805 58.758 44.6943 59.0861 45.0674ZM57.7884 46.2084H15.4882C15.5638 46.794 15.6949 47.3708 15.8778 47.9364C17.9424 54.3183 26.612 59.2717 36.6383 59.2717C46.6646 59.2717 55.3343 54.3183 57.3988 47.9364C57.5818 47.3708 57.7129 46.794 57.7884 46.2084Z" fill="white"/>
</svg>

