<svg width="107" height="107" viewBox="0 0 107 107" fill="none" xmlns="http://www.w3.org/2000/svg">
<rect width="107" height="107" rx="5" fill="#FF6800"/>
<path fill-rule="evenodd" clip-rule="evenodd" d="M86.6057 43.8723C86.1248 44.4191 85.4318 44.7326 84.7036 44.7326H22.702C21.9737 44.7326 21.2807 44.4191 20.7999 43.8723C20.319 43.3254 20.0968 42.598 20.19 41.8757C20.9998 35.6002 25.3987 30.2371 31.376 26.5213C37.3898 22.7829 45.2703 20.5195 53.7028 20.5195C62.1353 20.5195 70.0157 22.7829 76.0296 26.5213C82.0069 30.2371 86.4058 35.6002 87.2155 41.8757C87.3087 42.598 87.0865 43.3254 86.6057 43.8723ZM23.273 39.6671C26.2991 30.3127 39.0067 23.0523 53.7028 23.0523C68.3988 23.0523 81.1064 30.3127 84.1325 39.6671C84.4007 40.4961 84.5929 41.3416 84.7036 42.1999H22.702C22.8127 41.3416 23.0048 40.4961 23.273 39.6671Z" fill="white"/>
<path d="M87.4391 51.3184C85.1387 51.3184 83.7464 53.1684 82.2733 55.1284C80.65 57.2904 78.9707 59.5245 76.0425 59.5245C73.1166 59.5245 71.4372 57.2904 69.8095 55.1284C68.3386 53.1684 66.9463 51.3184 64.6459 51.3184C62.3455 51.3184 60.9531 53.1684 59.4801 55.1284C57.8568 57.2904 56.173 59.5245 53.247 59.5245C50.3211 59.5245 48.6395 57.2904 47.014 55.1284C45.5432 53.1684 44.1508 51.3184 41.8504 51.3184C39.5523 51.3184 38.1577 53.1684 36.6846 55.1284C35.0636 57.2904 33.382 59.5245 30.4538 59.5245C27.5256 59.5245 25.8463 57.2904 24.2207 55.1284C22.7477 53.1684 21.3576 51.3184 19.0549 51.3184" stroke="white" stroke-width="3" stroke-linecap="round" stroke-linejoin="round"/>
<path fill-rule="evenodd" clip-rule="evenodd" d="M56.7534 66.2883C57.0831 65.9586 57.6176 65.9586 57.9473 66.2883L68.2918 76.6328L78.6363 66.2883C78.966 65.9586 79.5006 65.9586 79.8303 66.2883C80.16 66.618 80.16 67.1525 79.8303 67.4822L68.8888 78.4237C68.7305 78.582 68.5157 78.671 68.2918 78.671C68.0679 78.671 67.8532 78.582 67.6948 78.4237L56.7534 67.4822C56.4237 67.1525 56.4237 66.618 56.7534 66.2883Z" fill="white"/>
<path fill-rule="evenodd" clip-rule="evenodd" d="M86.6057 66.0576C87.0865 66.6045 87.3087 67.3319 87.2155 68.0541C86.4058 74.3296 82.0069 79.6928 76.0296 83.4085C70.0157 87.147 62.1353 89.4103 53.7028 89.4103C45.2703 89.4103 37.3898 87.147 31.376 83.4085C25.3987 79.6928 20.9998 74.3296 20.19 68.0541C20.0968 67.3319 20.319 66.6045 20.7999 66.0576C21.2807 65.5107 21.9737 65.1973 22.702 65.1973H84.7036C85.4318 65.1973 86.1248 65.5107 86.6057 66.0576ZM84.7036 67.73H22.702C22.8127 68.5883 23.0048 69.4338 23.273 70.2628C26.2991 79.6171 39.0067 86.8776 53.7028 86.8776C68.3988 86.8776 81.1064 79.6171 84.1325 70.2628C84.4007 69.4338 84.5929 68.5883 84.7036 67.73Z" fill="white"/>
</svg>
