<svg width="73" height="73" viewBox="0 0 73 73" fill="none" xmlns="http://www.w3.org/2000/svg">
<rect width="73" height="73" rx="5" fill="#00BC07" fill-opacity="0.45"/>
<path fill-rule="evenodd" clip-rule="evenodd" d="M33.3564 24.1406C33.8575 24.1406 34.2638 24.5469 34.2638 25.048V27.8398C34.2638 28.2509 33.9874 28.6106 33.5902 28.7165C28.7254 30.0138 26.616 33.049 24.6468 36.7305C24.3745 37.2395 24.1044 37.7633 23.8293 38.2968C22.1259 41.5998 20.2311 45.2741 16.4518 48.1086C16.0509 48.4093 15.4822 48.328 15.1815 47.9271C14.8809 47.5262 14.9621 46.9575 15.363 46.6568C18.7844 44.0908 20.4792 40.8167 22.1905 37.5105C22.4728 36.965 22.7556 36.4188 23.0466 35.8746C25.0069 32.2098 27.3197 28.7529 32.4491 27.1574V25.048C32.4491 24.5469 32.8553 24.1406 33.3564 24.1406ZM38.9401 24.1406C39.4412 24.1406 39.8475 24.5469 39.8475 25.048V27.1574C44.9769 28.7529 47.2897 32.2098 49.2499 35.8746C49.541 36.4188 49.8237 36.965 50.106 37.5105C51.8174 40.8167 53.5121 44.0908 56.9335 46.6568C57.3344 46.9575 57.4157 47.5262 57.115 47.9271C56.8143 48.328 56.2456 48.4093 55.8447 48.1086C52.0655 45.2741 50.1706 41.5998 48.4672 38.2968C48.1921 37.7633 47.922 37.2395 47.6497 36.7305C45.6805 33.049 43.5712 30.0138 38.7063 28.7165C38.3091 28.6106 38.0328 28.2509 38.0328 27.8398V25.048C38.0328 24.5469 38.439 24.1406 38.9401 24.1406ZM30.7269 36.0206C31.2199 36.1102 31.5469 36.5826 31.4573 37.0756L29.9863 45.1659L20.1539 50.8584C18.406 51.8703 17.7108 54.0431 18.5465 55.8818C19.3344 57.6152 21.2524 58.5336 23.0968 58.0607L35.6685 54.8372C35.8242 54.7403 36.0088 54.6904 36.1988 54.7012L44.1002 52.6752L38.8736 50.4352L23.8237 54.5397C23.3403 54.6716 22.8414 54.3866 22.7096 53.9031C22.5777 53.4197 22.8628 52.9208 23.3462 52.789L38.7014 48.6012C38.8991 48.5473 39.1092 48.5619 39.2975 48.6426L49.069 52.8304C49.5296 53.0278 49.7429 53.5612 49.5455 54.0218C49.3481 54.4824 48.8147 54.6958 48.3541 54.4984L46.8351 53.8474L39.794 55.6528L48.4998 58.0057C50.342 58.5036 52.2738 57.5939 53.0635 55.8566C53.8928 54.0322 53.2029 51.8763 51.4686 50.8723L41.6122 45.1659L40.1413 37.0756C40.0516 36.5826 40.3786 36.1102 40.8717 36.0206C41.3647 35.931 41.8371 36.258 41.9267 36.751L43.2476 44.0158L52.3778 49.3018C54.9199 50.7735 55.931 53.9335 54.7155 56.6075C53.5581 59.154 50.7266 60.4873 48.0263 59.7575L36.2248 56.5679L23.5475 59.8185C20.8508 60.51 18.0465 59.1672 16.8945 56.6327C15.6725 53.9444 16.689 50.7675 19.2447 49.2879L28.351 44.0158L29.6719 36.751C29.7615 36.258 30.2339 35.931 30.7269 36.0206Z" fill="white"/>
<rect x="31.8887" y="13.1445" width="8.32429" height="11.9057" rx="4.16214" transform="rotate(-1 31.8887 13.1445)" stroke="white" stroke-width="2" stroke-linecap="round" stroke-linejoin="round"/>
</svg>



