<svg width="107" height="107" viewBox="0 0 107 107" fill="none" xmlns="http://www.w3.org/2000/svg">
<rect width="107" height="107" rx="5" fill="#00BC07"/>
<path fill-rule="evenodd" clip-rule="evenodd" d="M49.0741 33.2539C49.8951 33.2539 50.5606 33.9195 50.5606 34.7405V39.3144C50.5606 39.9879 50.1079 40.5773 49.4571 40.7508C41.4868 42.8762 38.031 47.8489 34.8047 53.8805C34.3587 54.7144 33.9162 55.5726 33.4654 56.4466C30.6747 61.8581 27.5703 67.8778 21.3786 72.5216C20.7218 73.0142 19.79 72.8811 19.2974 72.2243C18.8048 71.5675 18.9379 70.6358 19.5947 70.1432C25.2002 65.939 27.9767 60.575 30.7805 55.1583C31.243 54.2647 31.7063 53.3697 32.1831 52.4782C35.3947 46.474 39.1838 40.8103 47.5875 38.1964V34.7405C47.5875 33.9195 48.2531 33.2539 49.0741 33.2539ZM58.2221 33.2539C59.0431 33.2539 59.7086 33.9195 59.7086 34.7405V38.1964C68.1123 40.8103 71.9015 46.474 75.1131 52.4782C75.5899 53.3697 76.0532 54.2647 76.5157 55.1583C79.3195 60.575 82.096 65.939 87.7015 70.1432C88.3583 70.6358 88.4914 71.5675 87.9988 72.2243C87.5062 72.8811 86.5744 73.0142 85.9176 72.5216C79.7259 67.8778 76.6215 61.8581 73.8307 56.4466C73.38 55.5726 72.9375 54.7144 72.4914 53.8805C69.2652 47.8489 65.8094 42.8762 57.8391 40.7508C57.1883 40.5773 56.7355 39.9879 56.7355 39.3144V34.7405C56.7355 33.9195 57.4011 33.2539 58.2221 33.2539ZM44.766 52.7174C45.5738 52.8642 46.1095 53.6381 45.9627 54.4459L43.5527 67.7005L27.4439 77.0267C24.5802 78.6846 23.4411 82.2444 24.8104 85.2568C26.1013 88.0967 29.2435 89.6014 32.2653 88.8266L52.8621 83.5454C53.1172 83.3866 53.4196 83.3049 53.7309 83.3226L66.676 80.0033L58.113 76.3335L33.4563 83.0581C32.6642 83.2741 31.847 82.8071 31.6309 82.015C31.4149 81.223 31.8819 80.4057 32.674 80.1897L57.8309 73.3287C58.1548 73.2404 58.4991 73.2643 58.8077 73.3965L74.8166 80.2575C75.5713 80.5809 75.9208 81.4549 75.5974 82.2095C75.274 82.9641 74.4001 83.3137 73.6455 82.9902L71.1568 81.9237L59.621 84.8816L73.8841 88.7364C76.9023 89.5522 80.0673 88.0618 81.361 85.2155C82.7197 82.2266 81.5894 78.6945 78.748 77.0494L62.6 67.7005L60.19 54.4459C60.0431 53.6381 60.5789 52.8642 61.3867 52.7174C62.1944 52.5705 62.9683 53.1063 63.1151 53.914L65.2792 65.8163L80.2377 74.4765C84.4024 76.8876 86.059 82.0648 84.0676 86.4458C82.1713 90.6177 77.5324 92.8022 73.1084 91.6066L53.7735 86.3809L33.0038 91.7065C28.5856 92.8394 23.9912 90.6394 22.1038 86.4871C20.1018 82.0826 21.7672 76.8778 25.9543 74.4537L40.8735 65.8163L43.0375 53.914C43.1844 53.1063 43.9583 52.5705 44.766 52.7174Z" fill="white"/>
<rect x="46.6692" y="15.2383" width="13.638" height="19.5056" rx="6.81901" transform="rotate(-1 46.6692 15.2383)" stroke="white" stroke-width="3" stroke-linecap="round" stroke-linejoin="round"/>
</svg>
