<svg width="73" height="73" viewBox="0 0 73 73" fill="none" xmlns="http://www.w3.org/2000/svg">
<rect width="73" height="73" rx="5" fill="#FF2794" fill-opacity="0.45"/>
<path fill-rule="evenodd" clip-rule="evenodd" d="M35.1757 13.7927C30.2228 13.7927 26.1447 17.9925 26.1447 23.2539L26.134 32.9565C26.1335 33.4515 25.7317 33.8524 25.2367 33.8518C24.7416 33.8513 24.3408 33.4495 24.3413 32.9545L24.352 23.2539C24.352 23.2538 24.352 23.2541 24.352 23.2539C24.3522 17.0752 29.1618 12 35.1757 12H36.9277C43.2637 12 48.3352 17.3466 48.3358 23.8623M48.3358 23.8633L48.3464 32.9544C48.347 33.4495 47.9462 33.8512 47.4511 33.8518C46.9561 33.8524 46.5543 33.4516 46.5537 32.9565L46.5431 23.8633C46.5431 18.2648 42.2031 13.7927 36.9277 13.7927H35.1757" fill="white"/>
<path fill-rule="evenodd" clip-rule="evenodd" d="M15 25.5604C15 25.0654 15.4013 24.6641 15.8964 24.6641H56.7912C57.2862 24.6641 57.6876 25.0654 57.6876 25.5604V45.2995C57.6876 53.8297 51.7846 61.0008 44.2086 61.0008H28.4789C20.903 61.0008 15 53.8297 15 45.2995V25.5604ZM16.7927 26.4568V45.2995C16.7927 53.1241 22.1554 59.2081 28.4789 59.2081H44.2086C50.5322 59.2081 55.8949 53.1241 55.8949 45.2995V26.4568H16.7927Z" fill="white"/>
<path fill-rule="evenodd" clip-rule="evenodd" d="M20.5483 46.4726C20.5483 46.1425 20.8159 45.875 21.1459 45.875H52.1264C52.4565 45.875 52.724 46.1425 52.724 46.4726V46.5118C52.724 52.1439 49.1162 56.9887 44.3932 56.9887H28.8792C24.1562 56.9887 20.5483 52.1439 20.5483 46.5118V46.4726ZM21.7561 47.0701C21.9816 52.0549 25.2082 55.7936 28.8792 55.7936H44.3932C48.0641 55.7936 51.2907 52.0549 51.5163 47.0701H21.7561Z" fill="white"/>
</svg>


