<svg width="107" height="107" viewBox="0 0 107 107" fill="none" xmlns="http://www.w3.org/2000/svg">
<rect width="107" height="107" rx="5" fill="#FF2894"/>
<path fill-rule="evenodd" clip-rule="evenodd" d="M52.3513 24.3414C45.8822 24.3414 40.5558 29.8269 40.5558 36.6988L40.5419 49.3713C40.5412 50.0178 40.0164 50.5414 39.3699 50.5407C38.7233 50.54 38.1997 50.0152 38.2004 49.3687L38.2144 36.6988C38.2144 36.6985 38.2144 36.699 38.2144 36.6988C38.2147 28.6287 44.4965 22 52.3513 22H54.6395C62.915 22 69.5389 28.9831 69.5396 37.4933M69.5396 37.4947L69.5536 49.3686C69.5543 50.0152 69.0308 50.5399 68.3842 50.5407C67.7377 50.5414 67.2129 50.0179 67.2121 49.3713L67.1982 37.4947C67.1982 30.1825 61.5297 24.3414 54.6395 24.3414H52.3513" fill="white"/>
<path fill-rule="evenodd" clip-rule="evenodd" d="M26 39.7117C26 39.0652 26.5242 38.541 27.1707 38.541H80.5836C81.2301 38.541 81.7543 39.0652 81.7543 39.7117V65.493C81.7543 76.6343 74.0444 86.0005 64.1494 86.0005H43.6048C33.7099 86.0005 26 76.6343 26 65.493V39.7117ZM28.3414 40.8825V65.493C28.3414 75.7127 35.3456 83.659 43.6048 83.659H64.1494C72.4086 83.659 79.4128 75.7127 79.4128 65.493V40.8825H28.3414Z" fill="white"/>
<path fill-rule="evenodd" clip-rule="evenodd" d="M33.2463 67.0246C33.2463 66.5936 33.5958 66.2441 34.0268 66.2441H74.4905C74.9216 66.2441 75.271 66.5936 75.271 67.0246V67.0759C75.271 74.432 70.5588 80.7598 64.3901 80.7598H44.1273C37.9585 80.7598 33.2463 74.432 33.2463 67.0759V67.0246ZM34.8237 67.8051C35.1184 74.3157 39.3326 79.1988 44.1273 79.1988H64.3901C69.1848 79.1988 73.399 74.3157 73.6936 67.8051H34.8237Z" fill="white"/>
</svg>
