<svg width="107" height="107" viewBox="0 0 107 107" fill="none" xmlns="http://www.w3.org/2000/svg">
<rect width="107" height="107" rx="5" fill="#007CFF"/>
<path fill-rule="evenodd" clip-rule="evenodd" d="M38.6472 69.8782C38.6472 69.4266 39.0133 69.0605 39.4649 69.0605H68.0829C68.5345 69.0605 68.9006 69.4266 68.9006 69.8782V78.0548C68.9006 78.5064 68.5345 78.8725 68.0829 78.8725H39.4649C39.0133 78.8725 38.6472 78.5064 38.6472 78.0548V69.8782ZM40.2825 70.6959V77.2371H67.2653V70.6959H40.2825Z" fill="white"/>
<path fill-rule="evenodd" clip-rule="evenodd" d="M73.3208 84.8506C73.3208 86.2053 72.2226 87.3035 70.8678 87.3035H35.453C34.0982 87.3035 33 86.2053 33 84.8506V65.4331C33 57.8691 38.2683 51.1752 45.5715 51.1752H50.6308C52.5609 51.1752 54.3838 50.4961 55.7516 48.953C57.1377 47.3894 58.2963 44.6639 58.2963 40.1368C58.2963 37.2461 57.5572 35.5588 56.6501 34.6016C55.76 33.6625 54.3747 33.075 52.3172 33.075C49.9536 33.075 48.5753 33.481 47.7764 34.1482C47.0752 34.734 46.3381 35.9401 46.3381 38.8382C46.3381 40.193 45.2398 41.2912 43.8851 41.2912H35.453C34.0982 41.2912 33 40.193 33 38.8382C33 28.0695 42.3225 20 52.958 20C58.2565 20 63.3846 21.8304 67.1955 25.6201C71.0232 29.4265 73.3208 35.0078 73.3208 42.1251V84.8506ZM35.6457 36.3853C36.9198 28.371 44.3433 22.453 52.958 22.453C62.4323 22.453 70.8678 28.9794 70.8678 42.1251V84.8506H35.453V65.4331C35.453 58.8594 39.9608 53.6282 45.5715 53.6282H50.6308C55.69 53.6282 60.7493 49.9973 60.7493 40.1368C60.7493 33.5631 57.3765 30.622 52.3172 30.622C47.2579 30.622 43.8851 32.2663 43.8851 38.8382H35.453C35.453 38.0023 35.5189 37.1834 35.6457 36.3853Z" fill="white"/>
</svg>
