<svg width="73" height="73" viewBox="0 0 73 73" fill="none" xmlns="http://www.w3.org/2000/svg">
<rect width="73" height="73" rx="5" fill="#007CFF" fill-opacity="0.45"/>
<path fill-rule="evenodd" clip-rule="evenodd" d="M25.8745 48.0547C25.8745 47.7192 26.1465 47.4473 26.482 47.4473H47.7424C48.0779 47.4473 48.3498 47.7192 48.3498 48.0547V54.1291C48.3498 54.4646 48.0779 54.7366 47.7424 54.7366H26.482C26.1465 54.7366 25.8745 54.4646 25.8745 54.1291V48.0547ZM27.0894 48.6621V53.5217H47.135V48.6621H27.0894Z" fill="white"/>
<path fill-rule="evenodd" clip-rule="evenodd" d="M51.6336 59.1777C51.6336 60.1841 50.8178 61 49.8113 61H23.5015C22.4951 61 21.6792 60.1841 21.6792 59.1777V44.7524C21.6792 39.133 25.5931 34.1601 31.0186 34.1601H34.7772C36.2111 34.1601 37.5653 33.6556 38.5815 32.5093C39.6111 31.3477 40.4719 29.3229 40.4719 25.9597C40.4719 23.8122 39.9228 22.5587 39.2489 21.8476C38.5876 21.1499 37.5585 20.7134 36.03 20.7134C34.2741 20.7134 33.2501 21.0151 32.6567 21.5108C32.1357 21.9459 31.5881 22.8419 31.5881 24.995C31.5881 26.0014 30.7722 26.8173 29.7658 26.8173H23.5015C22.4951 26.8173 21.6792 26.0014 21.6792 24.995C21.6792 16.9949 28.6049 11 36.5061 11C40.4424 11 44.252 12.3598 47.0831 15.1752C49.9268 18.003 51.6336 22.1493 51.6336 27.4368V59.1777ZM23.6447 23.1727C24.5912 17.2189 30.1062 12.8223 36.5061 12.8223C43.5446 12.8223 49.8113 17.6708 49.8113 27.4368V59.1777H23.5015V44.7524C23.5015 39.8688 26.8504 35.9825 31.0186 35.9825H34.7772C38.5357 35.9825 42.2942 33.2851 42.2942 25.9597C42.2942 21.0761 39.7885 18.8911 36.03 18.8911C32.2715 18.8911 29.7658 20.1126 29.7658 24.995H23.5015C23.5015 24.374 23.5505 23.7656 23.6447 23.1727Z" fill="white"/>
</svg>



